999
DXF data, created by potrace 1.10, written by Peter Selinger 2001-2011
  0
SECTION
  2
HEADER
  9
$ACADVER
  1
AC1006
  9
$EXTMIN
 10
0.000000
 20
0.000000
 30
0.000000
  9
$EXTMAX
 10
303.000000
 20
358.000000
 30
0.000000
  0
ENDSEC
  0
SECTION
  2
ENTITIES
  0
POLYLINE
  8
0
 66
1
 70
1
  0
VERTEX
  8
0
 10
249.000000
 20
319.016846
 42
-0.225429
  0
VERTEX
  8
0
 10
248.758317
 20
318.508036
 42
-0.017733
  0
VERTEX
  8
0
 10
247.531250
 20
317.578221
 42
-0.021383
  0
VERTEX
  8
0
 10
245.915650
 20
316.542162
 42
-0.014611
  0
VERTEX
  8
0
 10
244.000000
 20
315.500000
 42
-0.010596
  0
VERTEX
  8
0
 10
242.081828
 20
314.578541
 42
-0.019137
  0
VERTEX
  8
0
 10
240.468750
 20
313.918548
 42
-0.015851
  0
VERTEX
  8
0
 10
239.222641
 20
313.507809
 42
-0.500910
  0
VERTEX
  8
0
 10
239.000000
 20
313.674284
 42
0.488773
  0
VERTEX
  8
0
 10
238.876114
 20
313.770740
 42
0.113995
  0
VERTEX
  8
0
 10
238.601853
 20
313.629794
 42
0.042419
  0
VERTEX
  8
0
 10
238.165996
 20
313.192965
 42
0.017033
  0
VERTEX
  8
0
 10
237.644608
 20
312.528650
 42
-0.058610
  0
VERTEX
  8
0
 10
236.963090
 20
311.794824
 42
-0.082661
  0
VERTEX
  8
0
 10
236.199111
 20
311.336555
 42
-0.092219
  0
VERTEX
  8
0
 10
235.394517
 20
311.180615
 42
-0.093755
  0
VERTEX
  8
0
 10
234.592670
 20
311.326066
 42
0.032350
  0
VERTEX
  8
0
 10
233.974723
 20
311.518391
 42
0.109604
  0
VERTEX
  8
0
 10
233.554929
 20
311.526248
 42
0.301640
  0
VERTEX
  8
0
 10
233.393696
 20
311.364968
 42
0.190482
  0
VERTEX
  8
0
 10
233.442319
 20
311.093330
 42
-0.577349
  0
VERTEX
  8
0
 10
232.319314
 20
309.006146
 42
-0.033165
  0
VERTEX
  8
0
 10
223.287064
 20
309.334383
 42
-0.029076
  0
VERTEX
  8
0
 10
213.101805
 20
310.986078
 42
-0.128833
  0
VERTEX
  8
0
 10
207.750000
 20
313.739419
 42
0.025644
  0
VERTEX
  8
0
 10
207.077420
 20
314.283458
 42
0.060249
  0
VERTEX
  8
0
 10
206.514062
 20
314.597472
 42
0.138942
  0
VERTEX
  8
0
 10
206.155083
 20
314.637859
 42
0.366932
  0
VERTEX
  8
0
 10
206.000000
 20
314.454988
 42
-0.245024
  0
VERTEX
  8
0
 10
205.889997
 20
314.243991
 42
-0.226140
  0
VERTEX
  8
0
 10
205.647500
 20
314.203653
 42
-0.092680
  0
VERTEX
  8
0
 10
205.261649
 20
314.397130
 42
-0.033956
  0
VERTEX
  8
0
 10
204.800000
 20
314.800000
 42
0.184451
  0
VERTEX
  8
0
 10
202.442916
 20
315.854293
 42
0.017805
  0
VERTEX
  8
0
 10
196.061451
 20
315.983131
 42
0.022961
  0
VERTEX
  8
0
 10
189.565130
 20
315.584187
 42
0.072258
  0
VERTEX
  8
0
 10
185.345757
 20
314.500000
 42
-0.012686
  0
VERTEX
  8
0
 10
183.867121
 20
313.925796
 42
-0.013544
  0
VERTEX
  8
0
 10
182.392961
 20
313.440625
 42
-0.013206
  0
VERTEX
  8
0
 10
181.106543
 20
313.092269
 42
-0.059581
  0
VERTEX
  8
0
 10
180.334969
 20
313.000000
 42
0.149975
  0
VERTEX
  8
0
 10
178.631512
 20
312.477290
 42
0.006932
  0
VERTEX
  8
0
 10
173.607538
 20
308.970969
 42
0.005307
  0
VERTEX
  8
0
 10
168.569279
 20
305.268055
 42
0.233178
  0
VERTEX
  8
0
 10
167.993677
 20
304.129855
 42
-0.210981
  0
VERTEX
  8
0
 10
167.843239
 20
303.798251
 42
-0.017433
  0
VERTEX
  8
0
 10
167.097611
 20
303.177613
 42
-0.020946
  0
VERTEX
  8
0
 10
166.115385
 20
302.480211
 42
-0.014538
  0
VERTEX
  8
0
 10
164.952118
 20
301.772659
 42
0.054043
  0
VERTEX
  8
0
 10
163.682373
 20
300.855849
 42
0.032022
  0
VERTEX
  8
0
 10
162.376123
 20
299.517943
 42
0.031738
  0
VERTEX
  8
0
 10
161.230257
 20
297.997890
 42
0.046713
  0
VERTEX
  8
0
 10
160.445021
 20
296.522659
 42
-0.039907
  0
VERTEX
  8
0
 10
159.384287
 20
294.462860
 42
-0.092532
  0
VERTEX
  8
0
 10
158.216808
 20
293.183903
 42
-0.314319
  0
VERTEX
  8
0
 10
157.419693
 20
293.154145
 42
-0.255084
  0
VERTEX
  8
0
 10
157.000000
 20
293.923275
 42
0.162939
  0
VERTEX
  8
0
 10
156.578962
 20
295.180986
 42
0.013502
  0
VERTEX
  8
0
 10
154.400131
 20
297.913827
 42
0.012038
  0
VERTEX
  8
0
 10
152.067610
 20
300.551098
 42
0.208590
  0
VERTEX
  8
0
 10
151.038391
 20
301.000000
 42
0.510627
  0
VERTEX
  8
0
 10
150.858661
 20
300.751711
 42
0.013785
  0
VERTEX
  8
0
 10
151.390285
 20
299.273435
 42
0.017721
  0
VERTEX
  8
0
 10
152.210461
 20
297.377193
 42
0.009834
  0
VERTEX
  8
0
 10
153.337011
 20
295.122333
 42
0.000000
  0
VERTEX
  8
0
 10
156.419453
 20
289.244665
 42
0.000000
  0
VERTEX
  8
0
 10
154.290587
 20
282.372333
 42
0.004098
  0
VERTEX
  8
0
 10
151.181279
 20
272.035969
 42
0.042114
  0
VERTEX
  8
0
 10
150.296470
 20
267.667162
 42
0.880960
  0
VERTEX
  8
0
 10
150.776965
 20
267.548532
 42
0.008897
  0
VERTEX
  8
0
 10
153.402352
 20
274.726025
 42
-0.006794
  0
VERTEX
  8
0
 10
154.574771
 20
277.973551
 42
-0.006125
  0
VERTEX
  8
0
 10
155.874834
 20
281.302717
 42
-0.006148
  0
VERTEX
  8
0
 10
157.113329
 20
284.258017
 42
-0.019291
  0
VERTEX
  8
0
 10
158.045044
 20
286.198118
 42
0.014608
  0
VERTEX
  8
0
 10
158.793418
 20
287.719775
 42
0.016124
  0
VERTEX
  8
0
 10
159.425732
 20
289.233802
 42
0.015674
  0
VERTEX
  8
0
 10
159.881144
 20
290.554643
 42
0.075312
  0
VERTEX
  8
0
 10
160.000000
 20
291.339260
 42
-0.200068
  0
VERTEX
  8
0
 10
160.825707
 20
293.320231
 42
-0.004280
  0
VERTEX
  8
0
 10
168.531795
 20
300.828456
 42
-0.004445
  0
VERTEX
  8
0
 10
176.346262
 20
308.180879
 42
-0.188707
  0
VERTEX
  8
0
 10
178.439331
 20
309.000000
 42
0.070233
  0
VERTEX
  8
0
 10
179.193423
 20
309.106450
 42
0.010696
  0
VERTEX
  8
0
 10
180.647777
 20
309.559307
 42
0.011793
  0
VERTEX
  8
0
 10
182.351261
 20
310.175035
 42
0.009971
  0
VERTEX
  8
0
 10
184.122882
 20
310.904025
 42
-0.050104
  0
VERTEX
  8
0
 10
188.252645
 20
312.227730
 42
-0.023583
  0
VERTEX
  8
0
 10
193.787730
 20
313.137463
 42
-0.015475
  0
VERTEX
  8
0
 10
199.135634
 20
313.592037
 42
-0.274356
  0
VERTEX
  8
0
 10
200.610652
 20
312.820962
 42
0.139332
  0
VERTEX
  8
0
 10
200.956622
 20
312.504844
 42
0.042757
  0
VERTEX
  8
0
 10
201.620668
 20
312.241158
 42
0.039069
  0
VERTEX
  8
0
 10
202.450099
 20
312.060520
 42
0.034098
  0
VERTEX
  8
0
 10
203.336511
 20
312.000000
 42
-0.049442
  0
VERTEX
  8
0
 10
204.329315
 20
311.901586
 42
-0.029200
  0
VERTEX
  8
0
 10
205.482734
 20
311.599697
 42
-0.028996
  0
VERTEX
  8
0
 10
206.610357
 20
311.159279
 42
-0.043588
  0
VERTEX
  8
0
 10
207.527494
 20
310.637265
 42
0.038999
  0
VERTEX
  8
0
 10
208.497030
 20
310.073602
 42
0.019375
  0
VERTEX
  8
0
 10
209.801826
 20
309.506640
 42
0.019103
  0
VERTEX
  8
0
 10
211.207091
 20
309.020648
 42
0.026548
  0
VERTEX
  8
0
 10
212.500000
 20
308.701957
 42
-0.002791
  0
VERTEX
  8
0
 10
213.963923
 20
308.414077
 42
-0.001156
  0
VERTEX
  8
0
 10
215.940625
 20
308.009128
 42
-0.001143
  0
VERTEX
  8
0
 10
218.057495
 20
307.565313
 42
-0.001474
  0
VERTEX
  8
0
 10
220.000000
 20
307.147430
 42
0.042784
  0
VERTEX
  8
0
 10
223.382086
 20
306.707574
 42
0.037691
  0
VERTEX
  8
0
 10
226.938974
 20
306.819769
 42
0.031882
  0
VERTEX
  8
0
 10
230.954412
 20
307.511613
 42
0.017662
  0
VERTEX
  8
0
 10
235.750000
 20
308.837198
 42
-0.021411
  0
VERTEX
  8
0
 10
238.257397
 20
309.510102
 42
-0.389681
  0
VERTEX
  8
0
 10
238.915679
 20
309.129882
 42
-0.359724
  0
VERTEX
  8
0
 10
238.614329
 20
308.389976
 42
-0.020808
  0
VERTEX
  8
0
 10
236.250000
 20
307.242633
 42
0.010992
  0
VERTEX
  8
0
 10
234.917153
 20
306.627858
 42
0.004498
  0
VERTEX
  8
0
 10
233.133583
 20
305.737187
 42
0.004448
  0
VERTEX
  8
0
 10
231.234419
 20
304.745953
 42
0.005675
  0
VERTEX
  8
0
 10
229.502623
 20
303.796979
 42
-0.055837
  0
VERTEX
  8
0
 10
226.507996
 20
302.527070
 42
-0.045999
  0
VERTEX
  8
0
 10
223.103455
 20
301.845487
 42
-0.020479
  0
VERTEX
  8
0
 10
217.698877
 20
301.495312
 42
-0.002414
  0
VERTEX
  8
0
 10
205.648094
 20
301.267248
 42
0.002387
  0
VERTEX
  8
0
 10
193.924628
 20
301.046002
 42
0.019095
  0
VERTEX
  8
0
 10
188.530612
 20
300.712073
 42
0.043304
  0
VERTEX
  8
0
 10
185.316535
 20
300.105378
 42
0.086630
  0
VERTEX
  8
0
 10
182.991101
 20
298.993663
 42
-0.016057
  0
VERTEX
  8
0
 10
181.842885
 20
298.230404
 42
-0.018924
  0
VERTEX
  8
0
 10
180.708136
 20
297.585639
 42
-0.018108
  0
VERTEX
  8
0
 10
179.720050
 20
297.117261
 42
-0.101961
  0
VERTEX
  8
0
 10
179.150999
 20
297.000000
 42
0.193008
  0
VERTEX
  8
0
 10
177.763852
 20
296.443821
 42
0.005515
  0
VERTEX
  8
0
 10
173.109616
 20
291.897376
 42
0.005509
  0
VERTEX
  8
0
 10
168.556343
 20
287.249021
 42
0.193369
  0
VERTEX
  8
0
 10
168.000000
 20
285.864260
 42
0.212877
  0
VERTEX
  8
0
 10
168.278434
 20
285.239916
 42
0.282472
  0
VERTEX
  8
0
 10
168.876262
 20
285.130380
 42
0.083637
  0
VERTEX
  8
0
 10
169.949501
 20
285.768285
 42
0.017347
  0
VERTEX
  8
0
 10
171.579276
 20
287.250000
 42
-0.016511
  0
VERTEX
  8
0
 10
175.655565
 20
290.968446
 42
-0.018640
  0
VERTEX
  8
0
 10
179.811170
 20
294.255519
 42
-0.011050
  0
VERTEX
  8
0
 10
183.543985
 20
296.863634
 42
-0.357441
  0
VERTEX
  8
0
 10
184.571580
 20
296.761754
 42
-0.299423
  0
VERTEX
  8
0
 10
184.637849
 20
296.440683
 42
-0.026582
  0
VERTEX
  8
0
 10
184.275005
 20
295.652562
 42
-0.027815
  0
VERTEX
  8
0
 10
183.695515
 20
294.686330
 42
-0.017669
  0
VERTEX
  8
0
 10
182.921021
 20
293.626724
 42
0.019399
  0
VERTEX
  8
0
 10
181.938040
 20
292.272070
 42
0.007772
  0
VERTEX
  8
0
 10
180.695252
 20
290.347522
 42
0.007677
  0
VERTEX
  8
0
 10
179.418479
 20
288.229514
 42
0.009612
  0
VERTEX
  8
0
 10
178.302685
 20
286.224925
 42
0.028942
  0
VERTEX
  8
0
 10
176.868779
 20
283.105123
 42
0.065148
  0
VERTEX
  8
0
 10
176.243896
 20
280.582669
 42
0.038719
  0
VERTEX
  8
0
 10
176.127025
 20
277.275849
 42
0.005083
  0
VERTEX
  8
0
 10
176.494317
 20
270.250864
 42
0.000000
  0
VERTEX
  8
0
 10
177.197298
 20
259.000000
 42
0.000000
  0
VERTEX
  8
0
 10
174.157666
 20
259.000000
 42
0.050572
  0
VERTEX
  8
0
 10
172.124736
 20
258.793854
 42
0.109609
  0
VERTEX
  8
0
 10
170.698696
 20
258.156232
 42
0.340069
  0
VERTEX
  8
0
 10
170.489039
 20
257.417078
 42
0.220951
  0
VERTEX
  8
0
 10
171.165905
 20
256.778032
 42
-0.395600
  0
VERTEX
  8
0
 10
171.306439
 20
256.518094
 42
-0.161692
  0
VERTEX
  8
0
 10
171.066312
 20
256.150292
 42
-0.056465
  0
VERTEX
  8
0
 10
170.312024
 20
255.678456
 42
-0.021643
  0
VERTEX
  8
0
 10
169.172136
 20
255.192621
 42
-0.000145
  0
VERTEX
  8
0
 10
167.739989
 20
254.654654
 42
-0.000089
  0
VERTEX
  8
0
 10
166.050565
 20
254.020945
 42
-0.000089
  0
VERTEX
  8
0
 10
164.377473
 20
253.394040
 42
-0.000158
  0
VERTEX
  8
0
 10
163.000000
 20
252.878680
 42
0.025991
  0
VERTEX
  8
0
 10
161.851160
 20
252.379816
 42
0.035683
  0
VERTEX
  8
0
 10
160.881250
 20
251.807653
 42
0.038680
  0
VERTEX
  8
0
 10
160.188337
 20
251.245453
 42
0.205796
  0
VERTEX
  8
0
 10
160.000000
 20
250.807251
 42
-0.107889
  0
VERTEX
  8
0
 10
159.897634
 20
250.338371
 42
-0.031215
  0
VERTEX
  8
0
 10
159.545387
 20
249.681624
 42
-0.029820
  0
VERTEX
  8
0
 10
159.044693
 20
248.971816
 42
-0.027867
  0
VERTEX
  8
0
 10
158.452381
 20
248.309524
 42
0.050648
  0
VERTEX
  8
0
 10
157.285924
 20
246.879363
 42
0.493498
  0
VERTEX
  8
0
 10
157.505829
 20
246.245399
 42
0.231542
  0
VERTEX
  8
0
 10
158.568526
 20
246.389763
 42
0.037665
  0
VERTEX
  8
0
 10
160.253943
 20
247.712417
 42
-0.043336
  0
VERTEX
  8
0
 10
163.080755
 20
249.879527
 42
-0.038932
  0
VERTEX
  8
0
 10
166.339234
 20
251.615951
 42
-0.037796
  0
VERTEX
  8
0
 10
169.926603
 20
252.869756
 42
-0.035645
  0
VERTEX
  8
0
 10
173.732766
 20
253.599457
 42
0.000000
  0
VERTEX
  8
0
 10
178.500000
 20
254.165378
 42
0.000000
  0
VERTEX
  8
0
 10
173.250000
 20
251.628694
 42
0.011816
  0
VERTEX
  8
0
 10
171.238193
 20
250.597304
 42
0.017830
  0
VERTEX
  8
0
 10
169.542188
 20
249.596697
 42
0.012840
  0
VERTEX
  8
0
 10
168.221785
 20
248.704263
 42
0.242271
  0
VERTEX
  8
0
 10
168.000000
 20
248.273409
 42
-0.209628
  0
VERTEX
  8
0
 10
167.816120
 20
247.854096
 42
-0.021642
  0
VERTEX
  8
0
 10
166.971875
 20
247.141590
 42
-0.024019
  0
VERTEX
  8
0
 10
165.840728
 20
246.351568
 42
-0.016912
  0
VERTEX
  8
0
 10
164.500000
 20
245.569933
 42
0.016689
  0
VERTEX
  8
0
 10
163.159254
 20
244.789091
 42
0.023755
  0
VERTEX
  8
0
 10
162.028125
 20
244.001469
 42
0.021259
  0
VERTEX
  8
0
 10
161.182633
 20
243.291831
 42
0.210537
  0
VERTEX
  8
0
 10
161.000000
 20
242.877326
 42
-0.145417
  0
VERTEX
  8
0
 10
160.857059
 20
242.396232
 42
-0.010933
  0
VERTEX
  8
0
 10
160.079657
 20
241.258652
 42
-0.014379
  0
VERTEX
  8
0
 10
159.067045
 20
239.926922
 42
-0.010418
  0
VERTEX
  8
0
 10
157.866919
 20
238.501210
 42
0.021895
  0
VERTEX
  8
0
 10
155.087033
 20
235.040623
 42
0.722387
  0
VERTEX
  8
0
 10
155.506399
 20
234.450987
 42
0.113548
  0
VERTEX
  8
0
 10
157.661778
 20
235.698677
 42
0.012765
  0
VERTEX
  8
0
 10
161.724100
 20
239.688515
 42
-0.038696
  0
VERTEX
  8
0
 10
167.305837
 20
244.629405
 42
-0.040914
  0
VERTEX
  8
0
 10
173.483534
 20
248.549436
 42
-0.044568
  0
VERTEX
  8
0
 10
179.344290
 20
250.989922
 42
-0.118322
  0
VERTEX
  8
0
 10
183.839506
 20
251.304865
 42
-0.023767
  0
VERTEX
  8
0
 10
185.774665
 20
250.886072
 42
-0.577025
  0
VERTEX
  8
0
 10
185.890866
 20
250.455225
 42
-0.095072
  0
VERTEX
  8
0
 10
185.013630
 20
249.857715
 42
-0.002284
  0
VERTEX
  8
0
 10
180.461821
 20
247.912798
 42
0.009417
  0
VERTEX
  8
0
 10
177.765424
 20
246.714902
 42
0.010558
  0
VERTEX
  8
0
 10
175.218120
 20
245.459126
 42
0.009914
  0
VERTEX
  8
0
 10
173.098429
 20
244.303992
 42
0.054247
  0
VERTEX
  8
0
 10
172.043574
 20
243.539434
 42
-0.017276
  0
VERTEX
  8
0
 10
171.345239
 20
242.950021
 42
-0.021294
  0
VERTEX
  8
0
 10
170.653632
 20
242.452209
 42
-0.020267
  0
VERTEX
  8
0
 10
170.048643
 20
242.088923
 42
-0.125718
  0
VERTEX
  8
0
 10
169.700572
 20
242.000000
 42
0.194098
  0
VERTEX
  8
0
 10
168.097881
 20
241.353486
 42
0.010718
  0
VERTEX
  8
0
 10
164.210669
 20
237.443729
 42
0.009232
  0
VERTEX
  8
0
 10
160.443655
 20
233.339712
 42
0.267600
  0
VERTEX
  8
0
 10
160.168990
 20
231.993030
 42
0.313747
  0
VERTEX
  8
0
 10
160.612866
 20
231.661851
 42
0.128473
  0
VERTEX
  8
0
 10
161.384991
 20
231.836609
 42
0.054639
  0
VERTEX
  8
0
 10
162.563018
 20
232.620762
 42
0.015475
  0
VERTEX
  8
0
 10
164.210535
 20
234.087500
 42
-0.019284
  0
VERTEX
  8
0
 10
169.146373
 20
238.414811
 42
-0.025245
  0
VERTEX
  8
0
 10
173.990341
 20
241.952244
 42
-0.028223
  0
VERTEX
  8
0
 10
178.589486
 20
244.609085
 42
-0.046024
  0
VERTEX
  8
0
 10
182.778656
 20
246.260145
 42
-0.027160
  0
VERTEX
  8
0
 10
186.820296
 20
247.202806
 42
-0.080045
  0
VERTEX
  8
0
 10
189.664966
 20
247.245717
 42
-0.153172
  0
VERTEX
  8
0
 10
191.339846
 20
246.439449
 42
-0.207443
  0
VERTEX
  8
0
 10
192.000000
 20
244.916748
 42
-0.157347
  0
VERTEX
  8
0
 10
191.394708
 20
243.040937
 42
-0.011204
  0
VERTEX
  8
0
 10
188.046393
 20
238.605916
 42
-0.016899
  0
VERTEX
  8
0
 10
184.253282
 20
234.128773
 42
-0.030007
  0
VERTEX
  8
0
 10
180.797491
 20
230.750000
 42
-0.041865
  0
VERTEX
  8
0
 10
179.157761
 20
229.553315
 42
-0.091580
  0
VERTEX
  8
0
 10
177.710065
 20
229.001579
 42
-0.526992
  0
VERTEX
  8
0
 10
177.355031
 20
229.358855
 42
-0.150530
  0
VERTEX
  8
0
 10
177.800000
 20
230.200000
 42
0.049912
  0
VERTEX
  8
0
 10
178.259320
 20
230.761475
 42
0.037987
  0
VERTEX
  8
0
 10
178.647500
 20
231.455488
 42
0.038942
  0
VERTEX
  8
0
 10
178.913282
 20
232.169831
 42
0.069700
  0
VERTEX
  8
0
 10
179.000000
 20
232.788894
 42
0.293877
  0
VERTEX
  8
0
 10
178.756178
 20
233.167904
 42
0.202542
  0
VERTEX
  8
0
 10
178.230192
 20
233.182530
 42
0.065574
  0
VERTEX
  8
0
 10
177.294943
 20
232.668150
 42
0.016428
  0
VERTEX
  8
0
 10
175.923275
 20
231.588894
 42
-0.011778
  0
VERTEX
  8
0
 10
174.686924
 20
230.597356
 42
-0.015735
  0
VERTEX
  8
0
 10
173.516991
 20
229.760488
 42
-0.012923
  0
VERTEX
  8
0
 10
172.515853
 20
229.127770
 42
-0.135259
  0
VERTEX
  8
0
 10
172.052177
 20
229.000000
 42
0.193882
  0
VERTEX
  8
0
 10
171.622838
 20
228.827015
 42
0.017129
  0
VERTEX
  8
0
 10
170.792349
 20
227.971433
 42
0.020422
  0
VERTEX
  8
0
 10
169.848019
 20
226.839816
 42
0.014457
  0
VERTEX
  8
0
 10
168.878902
 20
225.498495
 42
-0.022138
  0
VERTEX
  8
0
 10
167.850368
 20
224.120034
 42
-0.023835
  0
VERTEX
  8
0
 10
166.727675
 20
222.872956
 42
-0.024260
  0
VERTEX
  8
0
 10
165.668647
 20
221.902723
 42
-0.095266
  0
VERTEX
  8
0
 10
164.896163
 20
221.477497
 42
0.105952
  0
VERTEX
  8
0
 10
164.154022
 20
221.048270
 42
0.029887
  0
VERTEX
  8
0
 10
163.213092
 20
220.088649
 42
0.028694
  0
VERTEX
  8
0
 10
162.253932
 20
218.848784
 42
0.026772
  0
VERTEX
  8
0
 10
161.418759
 20
217.479003
 42
-0.034726
  0
VERTEX
  8
0
 10
160.543570
 20
216.093613
 42
-0.046163
  0
VERTEX
  8
0
 10
159.555958
 20
214.979109
 42
-0.054029
  0
VERTEX
  8
0
 10
158.570637
 20
214.237074
 42
-0.135195
  0
VERTEX
  8
0
 10
157.709881
 20
214.000000
 42
0.175115
  0
VERTEX
  8
0
 10
156.709686
 20
213.638620
 42
0.059506
  0
VERTEX
  8
0
 10
155.630143
 20
212.499373
 42
0.039326
  0
VERTEX
  8
0
 10
154.424645
 20
210.580896
 42
0.014177
  0
VERTEX
  8
0
 10
153.010339
 20
207.683074
 42
-0.011281
  0
VERTEX
  8
0
 10
151.803116
 20
205.172767
 42
-0.013270
  0
VERTEX
  8
0
 10
150.544273
 20
202.853919
 42
-0.012207
  0
VERTEX
  8
0
 10
149.387585
 20
200.960130
 42
-0.076486
  0
VERTEX
  8
0
 10
148.637333
 20
200.113976
 42
0.069861
  0
VERTEX
  8
0
 10
148.012766
 20
199.428004
 42
0.030810
  0
VERTEX
  8
0
 10
147.383403
 20
198.372046
 42
0.029744
  0
VERTEX
  8
0
 10
146.843779
 20
197.151932
 42
0.035198
  0
VERTEX
  8
0
 10
146.487342
 20
195.942370
 42
-0.023859
  0
VERTEX
  8
0
 10
146.174041
 20
194.782923
 42
-0.027446
  0
VERTEX
  8
0
 10
145.763334
 20
193.712939
 42
-0.028154
  0
VERTEX
  8
0
 10
145.320804
 20
192.858068
 42
-0.121405
  0
VERTEX
  8
0
 10
144.923063
 20
192.452451
 42
0.101346
  0
VERTEX
  8
0
 10
144.569356
 20
192.119234
 42
0.052020
  0
VERTEX
  8
0
 10
144.271150
 20
191.585203
 42
0.048665
  0
VERTEX
  8
0
 10
144.068451
 20
190.948198
 42
0.052754
  0
VERTEX
  8
0
 10
144.000000
 20
190.301226
 42
-0.079966
  0
VERTEX
  8
0
 10
143.889499
 20
189.614725
 42
-0.048197
  0
VERTEX
  8
0
 10
143.555944
 20
188.858694
 42
-0.046846
  0
VERTEX
  8
0
 10
143.066716
 20
188.151887
 42
-0.059634
  0
VERTEX
  8
0
 10
142.488319
 20
187.610243
 42
0.059705
  0
VERTEX
  8
0
 10
141.879180
 20
187.039648
 42
0.036215
  0
VERTEX
  8
0
 10
141.299563
 20
186.238634
 42
0.035860
  0
VERTEX
  8
0
 10
140.832794
 20
185.347079
 42
0.051867
  0
VERTEX
  8
0
 10
140.564274
 20
184.500000
 42
-0.016927
  0
VERTEX
  8
0
 10
140.282270
 20
183.333404
 42
-0.002653
  0
VERTEX
  8
0
 10
139.636666
 20
181.056896
 42
-0.002947
  0
VERTEX
  8
0
 10
138.845179
 20
178.380537
 42
-0.002567
  0
VERTEX
  8
0
 10
137.985523
 20
175.587305
 42
-0.014603
  0
VERTEX
  8
0
 10
136.278670
 20
170.650932
 42
-0.353620
  0
VERTEX
  8
0
 10
135.103745
 20
169.964264
 42
-0.353250
  0
VERTEX
  8
0
 10
134.184811
 20
170.969118
 42
-0.014593
  0
VERTEX
  8
0
 10
134.015313
 20
176.190983
 42
0.022331
  0
VERTEX
  8
0
 10
133.926722
 20
178.038345
 42
0.029226
  0
VERTEX
  8
0
 10
133.672477
 20
179.709190
 42
0.029561
  0
VERTEX
  8
0
 10
133.309496
 20
181.028191
 42
0.174121
  0
VERTEX
  8
0
 10
132.869716
 20
181.580520
 42
0.403844
  0
VERTEX
  8
0
 10
132.393654
 20
181.477030
 42
0.116436
  0
VERTEX
  8
0
 10
132.103220
 20
180.699012
 42
0.040392
  0
VERTEX
  8
0
 10
132.027822
 20
179.013866
 42
0.009045
  0
VERTEX
  8
0
 10
132.183526
 20
176.139537
 42
-0.011138
  0
VERTEX
  8
0
 10
132.301169
 20
173.785444
 42
-0.018632
  0
VERTEX
  8
0
 10
132.282136
 20
171.803489
 42
-0.013199
  0
VERTEX
  8
0
 10
132.167858
 20
170.246395
 42
-0.385317
  0
VERTEX
  8
0
 10
131.895597
 20
170.000000
 42
-0.087347
  0
VERTEX
  8
0
 10
130.280307
 20
170.284352
 42
-0.157885
  0
VERTEX
  8
0
 10
129.231161
 20
171.101442
 42
-0.122889
  0
VERTEX
  8
0
 10
128.700182
 20
172.549897
 42
-0.043273
  0
VERTEX
  8
0
 10
128.654869
 20
174.778651
 42
0.000777
  0
VERTEX
  8
0
 10
128.816606
 20
177.278472
 42
0.171405
  0
VERTEX
  8
0
 10
128.752677
 20
177.503798
 42
0.638466
  0
VERTEX
  8
0
 10
128.651120
 20
177.485148
 42
0.001375
  0
VERTEX
  8
0
 10
128.144273
 20
175.500000
 42
0.000000
  0
VERTEX
  8
0
 10
127.387098
 20
172.500000
 42
0.000000
  0
VERTEX
  8
0
 10
125.193549
 20
177.195136
 42
-0.037828
  0
VERTEX
  8
0
 10
124.018599
 20
180.303058
 42
-0.041898
  0
VERTEX
  8
0
 10
123.374202
 20
183.448434
 42
-0.024688
  0
VERTEX
  8
0
 10
123.073156
 20
187.806894
 42
-0.004794
  0
VERTEX
  8
0
 10
122.994208
 20
195.695136
 42
0.006382
  0
VERTEX
  8
0
 10
122.918968
 20
201.402078
 42
0.006287
  0
VERTEX
  8
0
 10
122.698069
 20
207.133884
 42
0.006197
  0
VERTEX
  8
0
 10
122.379189
 20
212.149815
 42
0.023837
  0
VERTEX
  8
0
 10
121.994208
 20
215.250000
 42
-0.000069
  0
VERTEX
  8
0
 10
121.542867
 20
217.862490
 42
-0.000041
  0
VERTEX
  8
0
 10
121.005272
 20
220.978339
 42
-0.000041
  0
VERTEX
  8
0
 10
120.469411
 20
224.087190
 42
-0.000071
  0
VERTEX
  8
0
 10
120.023739
 20
226.676261
 42
0.023562
  0
VERTEX
  8
0
 10
119.201161
 20
230.399473
 42
0.051316
  0
VERTEX
  8
0
 10
118.152426
 20
233.126819
 42
0.404264
  0
VERTEX
  8
0
 10
117.465474
 20
233.364273
 42
0.291687
  0
VERTEX
  8
0
 10
117.000000
 20
232.634259
 42
0.038751
  0
VERTEX
  8
0
 10
117.061951
 20
231.836100
 42
0.022445
  0
VERTEX
  8
0
 10
117.253049
 20
230.892453
 42
0.022337
  0
VERTEX
  8
0
 10
117.531346
 20
229.957669
 42
0.034703
  0
VERTEX
  8
0
 10
117.861444
 20
229.184259
 42
-0.069628
  0
VERTEX
  8
0
 10
118.784483
 20
226.522041
 42
-0.025052
  0
VERTEX
  8
0
 10
119.363735
 20
222.544760
 42
-0.017144
  0
VERTEX
  8
0
 10
119.596129
 20
218.692013
 42
-0.421838
  0
VERTEX
  8
0
 10
118.921853
 20
218.000000
 42
-0.090152
  0
VERTEX
  8
0
 10
118.564987
 20
218.064871
 42
-0.168895
  0
VERTEX
  8
0
 10
118.342172
 20
218.250373
 42
-0.176492
  0
VERTEX
  8
0
 10
118.288182
 20
218.527352
 42
-0.099501
  0
VERTEX
  8
0
 10
118.408738
 20
218.852335
 42
0.185346
  0
VERTEX
  8
0
 10
118.520244
 20
219.441523
 42
0.014396
  0
VERTEX
  8
0
 10
118.182439
 20
221.039861
 42
0.018136
  0
VERTEX
  8
0
 10
117.640590
 20
222.972564
 42
0.012808
  0
VERTEX
  8
0
 10
116.898636
 20
225.102335
 42
-0.001901
  0
VERTEX
  8
0
 10
114.017417
 20
232.826243
 42
-0.014347
  0
VERTEX
  8
0
 10
112.775276
 20
236.518232
 42
-0.030620
  0
VERTEX
  8
0
 10
112.192933
 20
238.954448
 42
-0.043380
  0
VERTEX
  8
0
 10
112.000000
 20
241.174000
 42
-0.050936
  0
VERTEX
  8
0
 10
112.157198
 20
242.713075
 42
-0.111424
  0
VERTEX
  8
0
 10
112.643702
 20
243.786588
 42
-0.097995
  0
VERTEX
  8
0
 10
113.590916
 20
244.630852
 42
-0.033663
  0
VERTEX
  8
0
 10
115.240094
 20
245.458905
 42
-0.037844
  0
VERTEX
  8
0
 10
117.816997
 20
246.319660
 42
-0.198938
  0
VERTEX
  8
0
 10
119.263037
 20
246.106986
 42
-0.141349
  0
VERTEX
  8
0
 10
120.419456
 20
244.868597
 42
-0.016348
  0
VERTEX
  8
0
 10
122.047222
 20
241.389835
 42
0.011642
  0
VERTEX
  8
0
 10
122.815179
 20
239.707542
 42
0.017767
  0
VERTEX
  8
0
 10
123.566181
 20
238.289514
 42
0.012579
  0
VERTEX
  8
0
 10
124.241762
 20
237.182005
 42
0.254782
  0
VERTEX
  8
0
 10
124.575754
 20
237.000000
 42
0.471105
  0
VERTEX
  8
0
 10
125.222021
 20
237.782612
 42
0.028329
  0
VERTEX
  8
0
 10
124.370891
 20
241.159434
 42
0.032362
  0
VERTEX
  8
0
 10
122.960119
 20
244.815693
 42
0.066738
  0
VERTEX
  8
0
 10
121.318928
 20
247.397561
 42
-0.010898
  0
VERTEX
  8
0
 10
119.810150
 20
249.272095
 42
-0.122779
  0
VERTEX
  8
0
 10
119.431140
 20
250.140366
 42
-0.230951
  0
VERTEX
  8
0
 10
119.635411
 20
250.833235
 42
-0.049737
  0
VERTEX
  8
0
 10
120.593877
 20
251.692303
 42
-0.126012
  0
VERTEX
  8
0
 10
123.525121
 20
252.865357
 42
-0.228819
  0
VERTEX
  8
0
 10
125.922205
 20
252.071188
 42
-0.127888
  0
VERTEX
  8
0
 10
127.757671
 20
249.054385
 42
-0.034171
  0
VERTEX
  8
0
 10
129.015792
 20
243.528808
 42
0.004905
  0
VERTEX
  8
0
 10
129.467017
 20
240.825108
 42
0.007348
  0
VERTEX
  8
0
 10
129.918765
 20
238.474545
 42
0.003531
  0
VERTEX
  8
0
 10
130.343880
 20
236.495858
 42
0.142632
  0
VERTEX
  8
0
 10
130.554526
 20
236.112141
 42
0.625601
  0
VERTEX
  8
0
 10
130.730906
 20
236.173081
 42
0.009877
  0
VERTEX
  8
0
 10
130.868044
 20
237.535546
 42
0.013229
  0
VERTEX
  8
0
 10
130.966016
 20
239.344490
 42
0.007070
  0
VERTEX
  8
0
 10
130.996262
 20
241.583333
 42
0.020126
  0
VERTEX
  8
0
 10
130.878695
 20
244.457708
 42
0.033052
  0
VERTEX
  8
0
 10
130.521715
 20
246.865217
 42
0.038243
  0
VERTEX
  8
0
 10
129.907084
 20
248.926897
 42
0.045369
  0
VERTEX
  8
0
 10
129.010960
 20
250.750000
 42
0.000000
  0
VERTEX
  8
0
 10
127.029397
 20
254.000000
 42
0.000000
  0
VERTEX
  8
0
 10
129.392254
 20
254.000000
 42
-0.081950
  0
VERTEX
  8
0
 10
131.180096
 20
253.704990
 42
-0.117539
  0
VERTEX
  8
0
 10
132.534255
 20
252.853972
 42
-0.083555
  0
VERTEX
  8
0
 10
133.659308
 20
251.240817
 42
-0.026010
  0
VERTEX
  8
0
 10
134.786780
 20
248.500000
 42
0.000000
  0
VERTEX
  8
0
 10
135.842105
 20
245.500000
 42
0.000000
  0
VERTEX
  8
0
 10
135.921053
 20
248.421259
 42
0.051864
  0
VERTEX
  8
0
 10
135.824437
 20
249.679811
 42
0.037230
  0
VERTEX
  8
0
 10
135.468861
 20
251.045676
 42
0.037802
  0
VERTEX
  8
0
 10
134.927674
 20
252.309212
 42
0.063918
  0
VERTEX
  8
0
 10
134.270814
 20
253.253248
 42
-0.014424
  0
VERTEX
  8
0
 10
133.242655
 20
254.457411
 42
-0.171109
  0
VERTEX
  8
0
 10
133.041627
 20
255.027638
 42
-0.239641
  0
VERTEX
  8
0
 10
133.280034
 20
255.496496
 42
-0.029951
  0
VERTEX
  8
0
 10
134.270814
 20
256.131679
 42
0.045840
  0
VERTEX
  8
0
 10
134.932324
 20
256.586014
 42
0.047368
  0
VERTEX
  8
0
 10
135.492052
 20
257.148776
 42
0.052049
  0
VERTEX
  8
0
 10
135.876442
 20
257.730361
 42
0.120585
  0
VERTEX
  8
0
 10
136.000000
 20
258.235239
 42
-0.110756
  0
VERTEX
  8
0
 10
136.129360
 20
258.812063
 42
-0.027480
  0
VERTEX
  8
0
 10
136.593172
 20
259.668842
 42
-0.026751
  0
VERTEX
  8
0
 10
137.246389
 20
260.614268
 42
-0.024028
  0
VERTEX
  8
0
 10
138.019309
 20
261.520553
 42
0.132322
  0
VERTEX
  8
0
 10
139.917918
 20
265.070904
 42
0.065896
  0
VERTEX
  8
0
 10
140.412217
 20
270.184998
 42
0.056734
  0
VERTEX
  8
0
 10
139.523235
 20
276.123575
 42
0.046464
  0
VERTEX
  8
0
 10
137.292039
 20
282.146029
 42
0.033239
  0
VERTEX
  8
0
 10
134.071128
 20
287.848999
 42
0.095915
  0
VERTEX
  8
0
 10
130.919388
 20
291.087525
 42
0.116321
  0
VERTEX
  8
0
 10
127.169040
 20
292.568669
 42
0.062252
  0
VERTEX
  8
0
 10
122.161921
 20
292.669774
 42
-0.024921
  0
VERTEX
  8
0
 10
119.307043
 20
292.514541
 42
-0.008909
  0
VERTEX
  8
0
 10
115.227736
 20
292.568920
 42
-0.008814
  0
VERTEX
  8
0
 10
110.748024
 20
292.787594
 42
-0.010305
  0
VERTEX
  8
0
 10
106.506968
 20
293.157550
 42
-0.018533
  0
VERTEX
  8
0
 10
99.358641
 20
294.199061
 42
-0.070794
  0
VERTEX
  8
0
 10
95.099099
 20
295.625272
 42
-0.105141
  0
VERTEX
  8
0
 10
92.316279
 20
297.847958
 42
-0.072451
  0
VERTEX
  8
0
 10
90.225753
 20
301.314412
 42
0.000000
  0
VERTEX
  8
0
 10
88.886964
 20
304.498452
 42
0.000000
  0
VERTEX
  8
0
 10
90.936972
 20
302.298028
 42
0.092555
  0
VERTEX
  8
0
 10
94.107035
 20
299.956507
 42
0.092171
  0
VERTEX
  8
0
 10
97.913068
 20
298.912242
 42
0.057080
  0
VERTEX
  8
0
 10
103.247404
 20
299.072731
 42
0.015091
  0
VERTEX
  8
0
 10
111.660195
 20
300.554036
 42
-0.018044
  0
VERTEX
  8
0
 10
120.111440
 20
301.990715
 42
-0.051889
  0
VERTEX
  8
0
 10
126.049911
 20
302.160712
 42
-0.070658
  0
VERTEX
  8
0
 10
130.784657
 20
301.121064
 42
-0.062913
  0
VERTEX
  8
0
 10
135.250000
 20
298.779921
 42
0.023105
  0
VERTEX
  8
0
 10
136.305916
 20
298.114452
 42
0.048316
  0
VERTEX
  8
0
 10
137.192187
 20
297.719101
 42
0.089298
  0
VERTEX
  8
0
 10
137.781207
 20
297.633143
 42
0.404519
  0
VERTEX
  8
0
 10
138.000000
 20
297.859326
 42
0.205197
  0
VERTEX
  8
0
 10
137.462999
 20
299.112733
 42
0.029272
  0
VERTEX
  8
0
 10
135.280866
 20
300.960885
 42
0.032183
  0
VERTEX
  8
0
 10
132.843237
 20
302.557415
 42
0.124812
  0
VERTEX
  8
0
 10
131.115141
 20
303.030409
 42
-0.009492
  0
VERTEX
  8
0
 10
130.151766
 20
303.066850
 42
-0.385025
  0
VERTEX
  8
0
 10
130.015635
 20
303.204750
 42
-0.271157
  0
VERTEX
  8
0
 10
130.123230
 20
303.408577
 42
-0.006549
  0
VERTEX
  8
0
 10
131.073390
 20
303.981263
 42
-0.160117
  0
VERTEX
  8
0
 10
132.925161
 20
304.379409
 42
-0.015639
  0
VERTEX
  8
0
 10
137.518532
 20
303.746010
 42
-0.019747
  0
VERTEX
  8
0
 10
142.087998
 20
302.782598
 42
-0.076723
  0
VERTEX
  8
0
 10
144.743480
 20
301.658538
 42
0.075840
  0
VERTEX
  8
0
 10
145.211030
 20
301.459656
 42
0.089214
  0
VERTEX
  8
0
 10
145.690443
 20
301.424674
 42
0.100732
  0
VERTEX
  8
0
 10
146.106613
 20
301.556109
 42
0.128330
  0
VERTEX
  8
0
 10
146.396772
 20
301.832974
 42
0.441674
  0
VERTEX
  8
0
 10
145.986566
 20
303.269007
 42
0.031409
  0
VERTEX
  8
0
 10
141.687839
 20
305.076043
 42
0.034385
  0
VERTEX
  8
0
 10
136.393105
 20
306.520886
 42
0.049454
  0
VERTEX
  8
0
 10
131.560875
 20
307.000000
 42
0.026258
  0
VERTEX
  8
0
 10
129.566796
 20
306.895207
 42
0.011431
  0
VERTEX
  8
0
 10
126.935197
 20
306.556861
 42
0.011276
  0
VERTEX
  8
0
 10
124.148987
 20
306.069174
 42
0.014745
  0
VERTEX
  8
0
 10
121.628454
 20
305.491442
 42
-0.012117
  0
VERTEX
  8
0
 10
119.343038
 20
304.954949
 42
-0.016755
  0
VERTEX
  8
0
 10
117.268268
 20
304.592749
 42
-0.013342
  0
VERTEX
  8
0
 10
115.554700
 20
304.398906
 42
-0.161260
  0
VERTEX
  8
0
 10
114.918355
 20
304.550459
 42
0.082986
  0
VERTEX
  8
0
 10
114.567469
 20
304.693865
 42
0.161635
  0
VERTEX
  8
0
 10
114.269767
 20
304.664564
 42
0.182014
  0
VERTEX
  8
0
 10
114.071841
 20
304.469274
 42
0.108426
  0
VERTEX
  8
0
 10
114.000000
 20
304.141881
 42
-0.334405
  0
VERTEX
  8
0
 10
113.319236
 20
303.237832
 42
-0.013286
  0
VERTEX
  8
0
 10
109.070228
 20
302.137628
 42
-0.022078
  0
VERTEX
  8
0
 10
104.430077
 20
301.280564
 42
-0.034638
  0
VERTEX
  8
0
 10
100.385037
 20
301.000000
 42
-0.085937
  0
VERTEX
  8
0
 10
96.188815
 20
301.726588
 42
-0.120572
  0
VERTEX
  8
0
 10
93.027314
 20
303.810994
 42
-0.090838
  0
VERTEX
  8
0
 10
90.601106
 20
307.623513
 42
-0.033246
  0
VERTEX
  8
0
 10
88.588288
 20
313.715886
 42
0.016034
  0
VERTEX
  8
0
 10
87.985896
 20
315.774362
 42
0.079873
  0
VERTEX
  8
0
 10
87.435722
 20
316.841113
 42
0.194893
  0
VERTEX
  8
0
 10
86.829079
 20
317.213267
 42
0.181997
  0
VERTEX
  8
0
 10
86.112574
 20
317.071935
 42
0.179657
  0
VERTEX
  8
0
 10
85.468600
 20
316.242988
 42
0.083734
  0
VERTEX
  8
0
 10
85.278818
 20
314.875183
 42
0.036649
  0
VERTEX
  8
0
 10
85.518508
 20
312.544354
 42
0.005774
  0
VERTEX
  8
0
 10
86.377257
 20
308.012872
 42
0.009744
  0
VERTEX
  8
0
 10
87.786965
 20
301.658737
 42
0.053448
  0
VERTEX
  8
0
 10
88.972450
 20
298.355853
 42
0.089395
  0
VERTEX
  8
0
 10
90.539201
 20
296.205723
 42
0.057363
  0
VERTEX
  8
0
 10
93.007204
 20
294.336673
 42
-0.012356
  0
VERTEX
  8
0
 10
94.153899
 20
293.620508
 42
-0.018187
  0
VERTEX
  8
0
 10
95.120866
 20
292.931124
 42
-0.013704
  0
VERTEX
  8
0
 10
95.867300
 20
292.323638
 42
-0.218443
  0
VERTEX
  8
0
 10
96.000000
 20
292.034392
 42
0.373938
  0
VERTEX
  8
0
 10
96.404119
 20
291.569594
 42
0.011716
  0
VERTEX
  8
0
 10
99.103958
 20
291.254975
 42
0.008549
  0
VERTEX
  8
0
 10
103.851612
 20
290.895939
 42
0.000860
  0
VERTEX
  8
0
 10
115.188482
 20
290.252864
 42
-0.003468
  0
VERTEX
  8
0
 10
123.925156
 20
289.711541
 42
-0.037021
  0
VERTEX
  8
0
 10
127.444126
 20
289.205500
 42
-0.083789
  0
VERTEX
  8
0
 10
129.696907
 20
288.295193
 42
-0.053413
  0
VERTEX
  8
0
 10
131.938482
 20
286.562909
 42
-0.014372
  0
VERTEX
  8
0
 10
133.110994
 20
285.371478
 42
-0.019178
  0
VERTEX
  8
0
 10
134.100679
 20
284.220753
 42
-0.016681
  0
VERTEX
  8
0
 10
134.840906
 20
283.223621
 42
-0.152473
  0
VERTEX
  8
0
 10
135.000000
 20
282.714038
 42
0.079844
  0
VERTEX
  8
0
 10
135.086653
 20
282.174857
 42
0.010068
  0
VERTEX
  8
0
 10
135.480248
 20
281.058046
 42
0.011617
  0
VERTEX
  8
0
 10
136.008873
 20
279.742956
 42
0.009408
  0
VERTEX
  8
0
 10
136.634886
 20
278.356991
 42
-0.041596
  0
VERTEX
  8
0
 10
137.364533
 20
276.418056
 42
-0.039834
  0
VERTEX
  8
0
 10
137.776254
 20
274.356826
 42
-0.033810
  0
VERTEX
  8
0
 10
137.895481
 20
271.970884
 42
-0.018193
  0
VERTEX
  8
0
 10
137.736292
 20
269.028407
 42
-0.039854
  0
VERTEX
  8
0
 10
136.917453
 20
264.260927
 42
-0.084497
  0
VERTEX
  8
0
 10
135.400040
 20
260.847949
 42
-0.106269
  0
VERTEX
  8
0
 10
133.110177
 20
258.618171
 42
-0.093440
  0
VERTEX
  8
0
 10
130.000000
 20
257.397427
 42
0.019772
  0
VERTEX
  8
0
 10
128.457400
 20
257.040749
 42
0.012987
  0
VERTEX
  8
0
 10
126.711686
 20
256.514595
 42
0.013073
  0
VERTEX
  8
0
 10
125.036323
 20
255.912787
 42
0.024425
  0
VERTEX
  8
0
 10
123.720632
 20
255.325485
 42
-0.024269
  0
VERTEX
  8
0
 10
122.596962
 20
254.823477
 42
-0.031189
  0
VERTEX
  8
0
 10
121.519126
 20
254.479086
 42
-0.032337
  0
VERTEX
  8
0
 10
120.615343
 20
254.312514
 42
-0.169389
  0
VERTEX
  8
0
 10
120.129084
 20
254.420221
 42
0.329943
  0
VERTEX
  8
0
 10
119.110263
 20
254.334626
 42
0.015129
  0
VERTEX
  8
0
 10
116.406225
 20
251.808138
 42
0.022881
  0
VERTEX
  8
0
 10
113.877877
 20
249.057532
 42
0.080674
  0
VERTEX
  8
0
 10
112.654114
 20
247.000000
 42
-0.595715
  0
VERTEX
  8
0
 10
112.453281
 20
246.975640
 42
-0.124767
  0
VERTEX
  8
0
 10
112.285687
 20
247.409375
 42
-0.028569
  0
VERTEX
  8
0
 10
112.205471
 20
248.673870
 42
-0.009940
  0
VERTEX
  8
0
 10
112.230400
 20
250.500000
 42
-0.034890
  0
VERTEX
  8
0
 10
112.503202
 20
253.131953
 42
-0.031366
  0
VERTEX
  8
0
 10
113.143659
 20
255.798162
 42
-0.028077
  0
VERTEX
  8
0
 10
114.190695
 20
258.626097
 42
-0.018558
  0
VERTEX
  8
0
 10
115.691434
 20
261.750000
 42
0.010996
  0
VERTEX
  8
0
 10
116.888310
 20
264.147815
 42
0.019987
  0
VERTEX
  8
0
 10
117.743170
 20
266.164062
 42
0.017379
  0
VERTEX
  8
0
 10
118.266558
 20
267.710794
 42
0.502421
  0
VERTEX
  8
0
 10
118.051397
 20
268.000000
 42
0.086979
  0
VERTEX
  8
0
 10
117.650688
 20
267.929762
 42
0.053360
  0
VERTEX
  8
0
 10
117.218591
 20
267.719079
 42
0.051494
  0
VERTEX
  8
0
 10
116.822296
 20
267.409488
 42
0.062869
  0
VERTEX
  8
0
 10
116.526992
 20
267.043674
 42
-0.126333
  0
VERTEX
  8
0
 10
116.191083
 20
266.720623
 42
-0.081095
  0
VERTEX
  8
0
 10
115.680827
 20
266.532792
 42
-0.072444
  0
VERTEX
  8
0
 10
115.078543
 20
266.504918
 42
-0.067106
  0
VERTEX
  8
0
 10
114.476404
 20
266.647428
 42
0.111626
  0
VERTEX
  8
0
 10
113.844848
 20
266.739055
 42
0.122275
  0
VERTEX
  8
0
 10
113.258358
 20
266.543657
 42
0.106542
  0
VERTEX
  8
0
 10
112.773185
 20
266.066354
 42
0.069451
  0
VERTEX
  8
0
 10
112.435431
 20
265.353754
 42
-0.012056
  0
VERTEX
  8
0
 10
112.156695
 20
264.534755
 42
-0.007886
  0
VERTEX
  8
0
 10
111.797877
 20
263.603915
 42
-0.007933
  0
VERTEX
  8
0
 10
111.419278
 20
262.707349
 42
-0.015038
  0
VERTEX
  8
0
 10
111.081506
 20
262.000000
 42
0.038958
  0
VERTEX
  8
0
 10
110.708019
 20
261.110923
 42
0.007028
  0
VERTEX
  8
0
 10
110.167655
 20
259.399109
 42
0.007540
  0
VERTEX
  8
0
 10
109.591957
 20
257.371369
 42
0.006761
  0
VERTEX
  8
0
 10
109.055311
 20
255.252287
 42
-0.017588
  0
VERTEX
  8
0
 10
108.509957
 20
253.279326
 42
-0.031434
  0
VERTEX
  8
0
 10
107.905277
 20
251.709629
 42
-0.036463
  0
VERTEX
  8
0
 10
107.325175
 20
250.656398
 42
-0.407562
  0
VERTEX
  8
0
 10
106.900808
 20
250.561304
 42
0.288280
  0
VERTEX
  8
0
 10
106.560267
 20
250.558660
 42
0.142866
  0
VERTEX
  8
0
 10
106.264612
 20
250.220120
 42
0.074012
  0
VERTEX
  8
0
 10
106.063850
 20
249.538187
 42
0.034654
  0
VERTEX
  8
0
 10
106.000000
 20
248.618034
 42
-0.039958
  0
VERTEX
  8
0
 10
105.919449
 20
247.611700
 42
-0.042786
  0
VERTEX
  8
0
 10
105.679869
 20
246.654557
 42
-0.046929
  0
VERTEX
  8
0
 10
105.328909
 20
245.878221
 42
-0.125365
  0
VERTEX
  8
0
 10
104.910193
 20
245.444496
 42
0.172921
  0
VERTEX
  8
0
 10
104.497421
 20
244.928559
 42
0.060118
  0
VERTEX
  8
0
 10
104.293854
 20
243.983771
 42
0.045617
  0
VERTEX
  8
0
 10
104.292627
 20
242.702842
 42
0.024456
  0
VERTEX
  8
0
 10
104.512088
 20
241.135479
 42
-0.001665
  0
VERTEX
  8
0
 10
105.515020
 20
235.766909
 42
-0.026993
  0
VERTEX
  8
0
 10
105.748382
 20
233.944859
 42
-0.483154
  0
VERTEX
  8
0
 10
105.492437
 20
233.709252
 42
-0.208915
  0
VERTEX
  8
0
 10
105.036848
 20
234.000000
 42
-0.043677
  0
VERTEX
  8
0
 10
104.650203
 20
234.701782
 42
-0.027940
  0
VERTEX
  8
0
 10
104.321705
 20
235.573437
 42
-0.028017
  0
VERTEX
  8
0
 10
104.093989
 20
236.470778
 42
-0.045971
  0
VERTEX
  8
0
 10
104.015313
 20
237.250000
 42
0.061876
  0
VERTEX
  8
0
 10
103.926235
 20
237.919149
 42
0.079719
  0
VERTEX
  8
0
 10
103.676488
 20
238.485938
 42
0.096882
  0
VERTEX
  8
0
 10
103.310454
 20
238.865465
 42
0.153779
  0
VERTEX
  8
0
 10
102.883369
 20
239.000000
 42
0.199969
  0
VERTEX
  8
0
 10
102.477391
 20
238.830871
 42
0.147262
  0
VERTEX
  8
0
 10
102.246031
 20
238.395977
 42
0.085885
  0
VERTEX
  8
0
 10
102.228219
 20
237.687624
 42
0.035689
  0
VERTEX
  8
0
 10
102.435487
 20
236.750000
 42
-0.023473
  0
VERTEX
  8
0
 10
103.417635
 20
232.770539
 42
-0.044914
  0
VERTEX
  8
0
 10
103.763123
 20
229.500543
 42
-0.057793
  0
VERTEX
  8
0
 10
103.499750
 20
226.874633
 42
-0.099221
  0
VERTEX
  8
0
 10
102.619621
 20
224.867320
 42
-0.023068
  0
VERTEX
  8
0
 10
101.995508
 20
224.058394
 42
-0.068916
  0
VERTEX
  8
0
 10
101.475764
 20
223.593346
 42
-0.235080
  0
VERTEX
  8
0
 10
101.160895
 20
223.552014
 42
-0.320202
  0
VERTEX
  8
0
 10
101.000000
 20
223.777494
 42
0.089900
  0
VERTEX
  8
0
 10
100.915397
 20
224.244228
 42
0.095320
  0
VERTEX
  8
0
 10
100.672910
 20
224.640889
 42
0.099770
  0
VERTEX
  8
0
 10
100.311311
 20
224.906282
 42
0.108995
  0
VERTEX
  8
0
 10
99.886501
 20
225.000000
 42
0.244511
  0
VERTEX
  8
0
 10
99.468557
 20
224.782621
 42
0.098020
  0
VERTEX
  8
0
 10
99.200140
 20
224.175304
 42
0.061942
  0
VERTEX
  8
0
 10
99.107534
 20
223.223751
 42
0.029763
  0
VERTEX
  8
0
 10
99.213308
 20
222.000000
 42
-0.006504
  0
VERTEX
  8
0
 10
99.366894
 20
220.849585
 42
-0.010981
  0
VERTEX
  8
0
 10
99.461852
 20
219.881250
 42
-0.004821
  0
VERTEX
  8
0
 10
99.515048
 20
219.078234
 42
-0.430862
  0
VERTEX
  8
0
 10
99.441114
 20
219.000000
 42
-0.111856
  0
VERTEX
  8
0
 10
99.289629
 20
219.034318
 42
-0.001606
  0
VERTEX
  8
0
 10
98.449646
 20
219.438815
 42
-0.004344
  0
VERTEX
  8
0
 10
97.477436
 20
219.921320
 42
-0.002840
  0
VERTEX
  8
0
 10
96.364307
 20
220.493839
 42
0.086641
  0
VERTEX
  8
0
 10
93.139869
 20
221.519174
 42
0.024356
  0
VERTEX
  8
0
 10
87.858589
 20
221.976215
 42
0.021388
  0
VERTEX
  8
0
 10
82.982417
 20
221.951119
 42
0.571386
  0
VERTEX
  8
0
 10
82.490073
 20
221.016063
 42
-0.367433
  0
VERTEX
  8
0
 10
82.407984
 20
220.475351
 42
-0.024543
  0
VERTEX
  8
0
 10
81.079836
 20
219.429988
 42
-0.026109
  0
VERTEX
  8
0
 10
79.192844
 20
218.232342
 42
-0.015559
  0
VERTEX
  8
0
 10
76.835331
 20
216.998360
 42
0.013981
  0
VERTEX
  8
0
 10
74.246488
 20
215.653687
 42
0.012639
  0
VERTEX
  8
0
 10
71.646807
 20
214.122475
 42
0.012775
  0
VERTEX
  8
0
 10
69.388418
 20
212.632764
 42
0.038848
  0
VERTEX
  8
0
 10
67.966908
 20
211.468296
 42
-0.018958
  0
VERTEX
  8
0
 10
66.931072
 20
210.548611
 42
-0.030532
  0
VERTEX
  8
0
 10
65.975734
 20
209.856274
 42
-0.031342
  0
VERTEX
  8
0
 10
65.193882
 20
209.425681
 42
-0.316511
  0
VERTEX
  8
0
 10
64.847334
 20
209.485999
 42
0.520374
  0
VERTEX
  8
0
 10
64.642114
 20
209.449878
 42
0.052969
  0
VERTEX
  8
0
 10
64.451139
 20
208.894325
 42
0.032244
  0
VERTEX
  8
0
 10
64.299921
 20
207.962021
 42
0.015399
  0
VERTEX
  8
0
 10
64.220374
 20
206.750000
 42
-0.013725
  0
VERTEX
  8
0
 10
64.129327
 20
205.287878
 42
-0.008454
  0
VERTEX
  8
0
 10
63.945965
 20
203.573437
 42
-0.008476
  0
VERTEX
  8
0
 10
63.707075
 20
201.883197
 42
-0.015004
  0
VERTEX
  8
0
 10
63.444840
 20
200.500000
 42
0.021310
  0
VERTEX
  8
0
 10
63.158686
 20
198.879251
 42
0.005533
  0
VERTEX
  8
0
 10
62.838723
 20
196.249544
 42
0.005616
  0
VERTEX
  8
0
 10
62.540616
 20
193.241464
 42
0.005705
  0
VERTEX
  8
0
 10
62.311888
 20
190.243130
 42
0.042255
  0
VERTEX
  8
0
 10
62.435671
 20
183.970564
 42
0.040571
  0
VERTEX
  8
0
 10
63.607355
 20
177.719532
 42
0.039407
  0
VERTEX
  8
0
 10
65.817833
 20
171.571690
 42
0.035325
  0
VERTEX
  8
0
 10
69.034463
 20
165.606710
 42
-0.012492
  0
VERTEX
  8
0
 10
70.169958
 20
163.713242
 42
-0.015392
  0
VERTEX
  8
0
 10
71.128873
 20
161.891080
 42
-0.013831
  0
VERTEX
  8
0
 10
71.837482
 20
160.329479
 42
-0.099912
  0
VERTEX
  8
0
 10
72.000000
 20
159.524289
 42
0.065576
  0
VERTEX
  8
0
 10
72.077135
 20
158.938679
 42
0.052019
  0
VERTEX
  8
0
 10
72.305653
 20
158.342217
 42
0.053441
  0
VERTEX
  8
0
 10
72.642267
 20
157.824601
 42
0.083655
  0
VERTEX
  8
0
 10
73.040520
 20
157.474957
 42
-0.080000
  0
VERTEX
  8
0
 10
73.586495
 20
157.002597
 42
-0.011041
  0
VERTEX
  8
0
 10
74.528747
 20
155.827386
 42
-0.012428
  0
VERTEX
  8
0
 10
75.587484
 20
154.371892
 42
-0.010234
  0
VERTEX
  8
0
 10
76.645668
 20
152.769246
 42
-0.041120
  0
VERTEX
  8
0
 10
77.996030
 20
150.181154
 42
-0.041873
  0
VERTEX
  8
0
 10
78.894995
 20
147.422436
 42
-0.028399
  0
VERTEX
  8
0
 10
79.542830
 20
143.748372
 42
-0.008008
  0
VERTEX
  8
0
 10
80.133767
 20
137.959789
 42
0.009651
  0
VERTEX
  8
0
 10
80.772287
 20
131.902185
 42
0.029535
  0
VERTEX
  8
0
 10
81.525131
 20
127.842799
 42
0.034737
  0
VERTEX
  8
0
 10
82.677519
 20
124.268335
 42
0.017904
  0
VERTEX
  8
0
 10
84.582767
 20
119.968785
 42
-0.014249
  0
VERTEX
  8
0
 10
85.888722
 20
117.078851
 42
-0.019147
  0
VERTEX
  8
0
 10
86.894367
 20
114.387922
 42
-0.016525
  0
VERTEX
  8
0
 10
87.557510
 20
112.135379
 42
-0.156169
  0
VERTEX
  8
0
 10
87.501296
 20
111.142782
 42
0.018439
  0
VERTEX
  8
0
 10
87.305231
 20
110.569497
 42
0.075263
  0
VERTEX
  8
0
 10
87.253132
 20
110.206152
 42
0.398391
  0
VERTEX
  8
0
 10
87.344006
 20
110.111694
 42
0.211025
  0
VERTEX
  8
0
 10
87.508866
 20
110.175533
 42
-0.374341
  0
VERTEX
  8
0
 10
88.390932
 20
110.236504
 42
-0.019258
  0
VERTEX
  8
0
 10
90.782479
 20
108.279175
 42
-0.020080
  0
VERTEX
  8
0
 10
93.030786
 20
106.122723
 42
-0.263981
  0
VERTEX
  8
0
 10
93.305556
 20
105.046221
 42
0.174343
  0
VERTEX
  8
0
 10
93.327127
 20
104.773509
 42
0.129079
  0
VERTEX
  8
0
 10
93.519097
 20
104.536549
 42
0.094816
  0
VERTEX
  8
0
 10
93.862882
 20
104.372977
 42
0.059415
  0
VERTEX
  8
0
 10
94.305556
 20
104.312244
 42
-0.109390
  0
VERTEX
  8
0
 10
96.551425
 20
103.773184
 42
-0.002706
  0
VERTEX
  8
0
 10
106.088555
 20
99.061191
 42
-0.003997
  0
VERTEX
  8
0
 10
115.273827
 20
94.368833
 42
-0.063906
  0
VERTEX
  8
0
 10
118.134527
 20
92.378255
 42
-0.030448
  0
VERTEX
  8
0
 10
118.848453
 20
91.648384
 42
-0.032474
  0
VERTEX
  8
0
 10
119.452017
 20
90.852044
 42
-0.034373
  0
VERTEX
  8
0
 10
119.874936
 20
90.104604
 42
-0.112013
  0
VERTEX
  8
0
 10
120.000000
 20
89.553351
 42
0.133997
  0
VERTEX
  8
0
 10
120.174229
 20
88.914900
 42
0.016582
  0
VERTEX
  8
0
 10
120.954688
 20
87.686421
 42
0.018618
  0
VERTEX
  8
0
 10
122.005438
 20
86.264401
 42
0.014408
  0
VERTEX
  8
0
 10
123.250000
 20
84.794026
 42
-0.005585
  0
VERTEX
  8
0
 10
124.604278
 20
83.250115
 42
-0.004888
  0
VERTEX
  8
0
 10
125.985938
 20
81.606800
 42
-0.004919
  0
VERTEX
  8
0
 10
127.204976
 20
80.097778
 42
-0.014598
  0
VERTEX
  8
0
 10
128.000000
 20
79.031021
 42
0.082304
  0
VERTEX
  8
0
 10
129.024219
 20
77.986350
 42
0.066765
  0
VERTEX
  8
0
 10
130.404537
 20
77.236372
 42
0.047692
  0
VERTEX
  8
0
 10
132.335291
 20
76.703953
 42
0.018093
  0
VERTEX
  8
0
 10
135.107459
 20
76.320143
 42
-0.012384
  0
VERTEX
  8
0
 10
137.950435
 20
75.959554
 42
-0.058451
  0
VERTEX
  8
0
 10
139.533232
 20
75.525427
 42
-0.127032
  0
VERTEX
  8
0
 10
140.343003
 20
74.926065
 42
-0.188630
  0
VERTEX
  8
0
 10
140.607459
 20
74.094852
 42
-0.136720
  0
VERTEX
  8
0
 10
139.965392
 20
72.259950
 42
-0.009579
  0
VERTEX
  8
0
 10
136.734054
 20
67.804874
 42
-0.012492
  0
VERTEX
  8
0
 10
133.350894
 20
63.549073
 42
-0.076403
  0
VERTEX
  8
0
 10
131.249978
 20
61.700298
 42
0.067342
  0
VERTEX
  8
0
 10
130.675072
 20
61.212496
 42
0.021278
  0
VERTEX
  8
0
 10
129.956646
 20
60.342295
 42
0.020819
  0
VERTEX
  8
0
 10
129.229344
 20
59.292698
 42
0.021696
  0
VERTEX
  8
0
 10
128.602496
 20
58.200298
 42
-0.048699
  0
VERTEX
  8
0
 10
127.653309
 20
56.735245
 42
-0.008445
  0
VERTEX
  8
0
 10
125.552492
 20
54.185159
 42
-0.009111
  0
VERTEX
  8
0
 10
122.973170
 20
51.269163
 42
-0.008045
  0
VERTEX
  8
0
 10
120.181891
 20
48.323648
 42
0.015452
  0
VERTEX
  8
0
 10
117.329292
 20
45.222703
 42
0.014495
  0
VERTEX
  8
0
 10
114.610041
 20
41.886195
 42
0.014749
  0
VERTEX
  8
0
 10
112.365244
 20
38.777044
 42
0.044873
  0
VERTEX
  8
0
 10
111.103030
 20
36.500011
 42
-0.021387
  0
VERTEX
  8
0
 10
110.221786
 20
34.717924
 42
-0.039529
  0
VERTEX
  8
0
 10
109.335625
 20
33.368367
 42
-0.051486
  0
VERTEX
  8
0
 10
108.545762
 20
32.542175
 42
-0.325453
  0
VERTEX
  8
0
 10
107.998880
 20
32.500692
 42
0.045558
  0
VERTEX
  8
0
 10
107.611530
 20
32.693822
 42
0.147441
  0
VERTEX
  8
0
 10
107.328110
 20
32.716172
 42
0.278973
  0
VERTEX
  8
0
 10
107.186168
 20
32.581752
 42
0.138044
  0
VERTEX
  8
0
 10
107.187675
 20
32.324330
 42
-0.114706
  0
VERTEX
  8
0
 10
107.210822
 20
31.877865
 42
-0.027871
  0
VERTEX
  8
0
 10
107.039695
 20
31.154647
 42
-0.027124
  0
VERTEX
  8
0
 10
106.744478
 20
30.326163
 42
-0.024083
  0
VERTEX
  8
0
 10
106.350784
 20
29.500000
 42
0.034357
  0
VERTEX
  8
0
 10
105.100262
 20
26.730791
 42
0.060077
  0
VERTEX
  8
0
 10
104.513885
 20
24.286770
 42
0.100153
  0
VERTEX
  8
0
 10
104.654540
 20
22.619791
 42
0.333327
  0
VERTEX
  8
0
 10
105.480948
 20
22.000000
 42
0.088652
  0
VERTEX
  8
0
 10
106.060933
 20
22.103648
 42
0.094884
  0
VERTEX
  8
0
 10
106.553778
 20
22.401010
 42
0.099960
  0
VERTEX
  8
0
 10
106.883487
 20
22.844349
 42
0.110495
  0
VERTEX
  8
0
 10
107.000000
 20
23.365141
 42
-0.136448
  0
VERTEX
  8
0
 10
107.399205
 20
24.800749
 42
-0.020351
  0
VERTEX
  8
0
 10
109.066666
 20
27.328492
 42
-0.015685
  0
VERTEX
  8
0
 10
110.895730
 20
29.708709
 42
-0.443466
  0
VERTEX
  8
0
 10
111.590275
 20
29.743058
 42
-0.268322
  0
VERTEX
  8
0
 10
111.672815
 20
29.434155
 42
-0.005928
  0
VERTEX
  8
0
 10
111.236797
 20
27.889091
 42
-0.011827
  0
VERTEX
  8
0
 10
110.647162
 20
26.051888
 42
-0.007514
  0
VERTEX
  8
0
 10
109.878232
 20
23.940396
 42
0.011798
  0
VERTEX
  8
0
 10
108.986365
 20
21.424490
 42
0.006661
  0
VERTEX
  8
0
 10
108.018141
 20
18.335616
 42
0.006645
  0
VERTEX
  8
0
 10
107.123933
 20
15.192126
 42
0.010831
  0
VERTEX
  8
0
 10
106.458870
 20
12.500000
 42
-0.002399
  0
VERTEX
  8
0
 10
105.894505
 20
10.037890
 42
-0.002459
  0
VERTEX
  8
0
 10
105.311075
 20
7.601562
 42
-0.002381
  0
VERTEX
  8
0
 10
104.784309
 20
5.492227
 42
-0.010344
  0
VERTEX
  8
0
 10
104.440278
 20
4.250000
 42
0.040490
  0
VERTEX
  8
0
 10
104.173558
 20
2.998177
 42
0.236805
  0
VERTEX
  8
0
 10
104.388937
 20
2.381577
 42
0.173347
  0
VERTEX
  8
0
 10
105.074366
 20
2.070193
 42
0.020787
  0
VERTEX
  8
0
 10
106.762048
 20
2.000000
 42
0.103322
  0
VERTEX
  8
0
 10
108.754505
 20
2.416171
 42
0.136873
  0
VERTEX
  8
0
 10
110.184017
 20
3.581364
 42
0.079330
  0
VERTEX
  8
0
 10
111.299477
 20
5.852536
 42
0.018126
  0
VERTEX
  8
0
 10
112.411488
 20
10.000000
 42
-0.064090
  0
VERTEX
  8
0
 10
112.865059
 20
11.228384
 42
-0.019931
  0
VERTEX
  8
0
 10
113.847162
 20
12.937415
 42
-0.019564
  0
VERTEX
  8
0
 10
115.108093
 20
14.778316
 42
-0.020385
  0
VERTEX
  8
0
 10
116.492771
 20
16.489071
 42
0.014472
  0
VERTEX
  8
0
 10
117.835812
 20
18.108843
 42
0.018594
  0
VERTEX
  8
0
 10
118.969752
 20
19.676750
 42
0.016645
  0
VERTEX
  8
0
 10
119.810799
 20
21.031241
 42
0.131343
  0
VERTEX
  8
0
 10
120.000000
 20
21.739071
 42
-0.067811
  0
VERTEX
  8
0
 10
120.065668
 20
22.221043
 42
-0.084443
  0
VERTEX
  8
0
 10
120.257667
 20
22.629602
 42
-0.099690
  0
VERTEX
  8
0
 10
120.542665
 20
22.902808
 42
-0.142338
  0
VERTEX
  8
0
 10
120.877163
 20
23.000000
 42
-0.339159
  0
VERTEX
  8
0
 10
121.198350
 20
22.753814
 42
-0.034704
  0
VERTEX
  8
0
 10
121.394719
 20
21.751562
 42
-0.032077
  0
VERTEX
  8
0
 10
121.477106
 20
20.379282
 42
-0.019329
  0
VERTEX
  8
0
 10
121.407297
 20
18.750000
 42
0.002473
  0
VERTEX
  8
0
 10
120.777282
 20
10.533408
 42
0.010790
  0
VERTEX
  8
0
 10
120.533498
 20
5.661840
 42
0.009054
  0
VERTEX
  8
0
 10
120.500140
 20
2.427619
 42
0.411933
  0
VERTEX
  8
0
 10
120.931105
 20
2.000000
 42
0.282797
  0
VERTEX
  8
0
 10
121.609684
 20
2.417162
 42
0.003063
  0
VERTEX
  8
0
 10
124.147207
 20
7.509720
 42
0.009881
  0
VERTEX
  8
0
 10
126.491461
 20
12.536301
 42
0.021475
  0
VERTEX
  8
0
 10
128.045641
 20
16.500000
 42
-0.061353
  0
VERTEX
  8
0
 10
129.616117
 20
19.723998
 42
-0.003952
  0
VERTEX
  8
0
 10
135.386218
 20
28.459452
 42
-0.002133
  0
VERTEX
  8
0
 10
141.470280
 20
37.430884
 42
-0.737345
  0
VERTEX
  8
0
 10
142.000000
 20
37.266969
 42
-0.050263
  0
VERTEX
  8
0
 10
141.939735
 20
36.668991
 42
-0.013486
  0
VERTEX
  8
0
 10
141.723743
 20
35.737514
 42
-0.013523
  0
VERTEX
  8
0
 10
141.419545
 20
34.687031
 42
-0.013603
  0
VERTEX
  8
0
 10
141.059550
 20
33.656628
 42
0.039642
  0
VERTEX
  8
0
 10
140.655705
 20
32.273480
 42
0.009288
  0
VERTEX
  8
0
 10
140.208434
 20
29.899969
 42
0.009516
  0
VERTEX
  8
0
 10
139.795440
 20
27.142198
 42
0.009220
  0
VERTEX
  8
0
 10
139.482765
 20
24.341528
 42
-0.005909
  0
VERTEX
  8
0
 10
139.178827
 20
21.445345
 42
-0.005047
  0
VERTEX
  8
0
 10
138.791664
 20
18.400477
 42
-0.005090
  0
VERTEX
  8
0
 10
138.383467
 20
15.638855
 42
-0.014404
  0
VERTEX
  8
0
 10
138.023654
 20
13.723924
 42
0.035550
  0
VERTEX
  8
0
 10
137.608665
 20
10.851271
 42
0.054292
  0
VERTEX
  8
0
 10
137.699405
 20
8.337191
 42
0.074643
  0
VERTEX
  8
0
 10
138.230435
 20
6.580545
 42
0.289781
  0
VERTEX
  8
0
 10
139.148016
 20
6.000000
 42
0.122206
  0
VERTEX
  8
0
 10
139.524179
 20
6.093333
 42
0.073005
  0
VERTEX
  8
0
 10
139.898075
 20
6.367188
 42
0.065882
  0
VERTEX
  8
0
 10
140.213182
 20
6.772107
 42
0.063508
  0
VERTEX
  8
0
 10
140.416860
 20
7.250000
 42
-0.000084
  0
VERTEX
  8
0
 10
140.643301
 20
8.048866
 42
-0.000008
  0
VERTEX
  8
0
 10
141.208709
 20
10.042188
 42
-0.000010
  0
VERTEX
  8
0
 10
141.883101
 20
12.419414
 42
-0.000008
  0
VERTEX
  8
0
 10
142.615282
 20
15.000000
 42
-0.022908
  0
VERTEX
  8
0
 10
143.698542
 20
18.243999
 42
-0.007893
  0
VERTEX
  8
0
 10
145.551159
 20
22.830610
 42
-0.007825
  0
VERTEX
  8
0
 10
147.755837
 20
27.830270
 42
-0.008992
  0
VERTEX
  8
0
 10
150.019845
 20
32.529735
 42
0.000000
  0
VERTEX
  8
0
 10
155.580077
 20
43.559469
 42
0.000000
  0
VERTEX
  8
0
 10
155.817333
 20
32.599310
 42
0.008161
  0
VERTEX
  8
0
 10
155.980112
 20
28.313866
 42
0.011561
  0
VERTEX
  8
0
 10
156.275244
 20
24.508848
 42
0.007794
  0
VERTEX
  8
0
 10
156.641888
 20
21.365520
 42
0.141182
  0
VERTEX
  8
0
 10
157.043013
 20
20.448172
 42
-0.149249
  0
VERTEX
  8
0
 10
157.428955
 20
19.526129
 42
-0.016752
  0
VERTEX
  8
0
 10
157.581914
 20
17.232948
 42
-0.017645
  0
VERTEX
  8
0
 10
157.575412
 20
14.254226
 42
-0.009812
  0
VERTEX
  8
0
 10
157.368192
 20
10.628596
 42
0.000000
  0
VERTEX
  8
0
 10
156.704945
 20
2.000000
 42
0.000000
  0
VERTEX
  8
0
 10
159.275550
 20
2.000000
 42
0.137652
  0
VERTEX
  8
0
 10
161.648470
 20
2.665893
 42
0.042172
  0
VERTEX
  8
0
 10
164.682506
 20
4.884865
 42
0.041337
  0
VERTEX
  8
0
 10
167.261894
 20
7.532138
 42
0.174176
  0
VERTEX
  8
0
 10
168.000000
 20
9.586711
 42
-0.106501
  0
VERTEX
  8
0
 10
168.144663
 20
10.258171
 42
-0.039466
  0
VERTEX
  8
0
 10
168.613590
 20
11.109858
 42
-0.036905
  0
VERTEX
  8
0
 10
169.289527
 20
11.988096
 42
-0.036630
  0
VERTEX
  8
0
 10
170.088816
 20
12.759787
 42
0.034412
  0
VERTEX
  8
0
 10
171.100414
 20
13.727837
 42
0.010765
  0
VERTEX
  8
0
 10
172.480485
 20
15.310688
 42
0.010701
  0
VERTEX
  8
0
 10
173.949746
 20
17.149546
 42
0.011632
  0
VERTEX
  8
0
 10
175.297440
 20
19.000000
 42
-0.001259
  0
VERTEX
  8
0
 10
177.450482
 20
22.088907
 42
-0.006632
  0
VERTEX
  8
0
 10
178.658751
 20
23.765351
 42
-0.006452
  0
VERTEX
  8
0
 10
179.924549
 20
25.428106
 42
-0.001150
  0
VERTEX
  8
0
 10
182.337713
 20
28.500000
 42
0.026127
  0
VERTEX
  8
0
 10
183.506115
 20
30.150785
 42
0.007194
  0
VERTEX
  8
0
 10
185.167893
 20
32.865459
 42
0.007248
  0
VERTEX
  8
0
 10
186.964454
 20
36.000168
 42
0.007515
  0
VERTEX
  8
0
 10
188.647286
 20
39.148372
 42
0.000000
  0
VERTEX
  8
0
 10
192.588997
 20
46.796744
 42
0.000000
  0
VERTEX
  8
0
 10
194.971287
 20
40.652999
 42
-0.026426
  0
VERTEX
  8
0
 10
196.067305
 20
37.312908
 42
-0.018398
  0
VERTEX
  8
0
 10
196.962320
 20
33.445781
 42
-0.016409
  0
VERTEX
  8
0
 10
197.662203
 20
29.048262
 42
-0.011783
  0
VERTEX
  8
0
 10
198.166078
 20
24.098671
 42
0.003834
  0
VERTEX
  8
0
 10
198.511185
 20
20.074789
 42
0.005949
  0
VERTEX
  8
0
 10
198.876833
 20
16.609271
 42
0.002148
  0
VERTEX
  8
0
 10
199.238466
 20
13.642981
 42
0.166459
  0
VERTEX
  8
0
 10
199.444710
 20
13.221957
 42
0.661982
  0
VERTEX
  8
0
 10
199.635277
 20
13.298981
 42
0.000356
  0
VERTEX
  8
0
 10
199.773158
 20
21.667678
 42
0.002499
  0
VERTEX
  8
0
 10
199.875827
 20
31.205091
 42
0.001463
  0
VERTEX
  8
0
 10
199.908267
 20
42.627913
 42
-0.002823
  0
VERTEX
  8
0
 10
199.977240
 20
55.035084
 42
-0.005023
  0
VERTEX
  8
0
 10
200.194296
 20
65.247662
 42
-0.003585
  0
VERTEX
  8
0
 10
200.506925
 20
73.370998
 42
-0.061476
  0
VERTEX
  8
0
 10
200.952847
 20
75.993398
 42
0.069820
  0
VERTEX
  8
0
 10
202.032707
 20
83.051603
 42
0.055137
  0
VERTEX
  8
0
 10
201.277825
 20
90.748838
 42
0.059561
  0
VERTEX
  8
0
 10
199.124586
 20
97.099306
 42
0.220769
  0
VERTEX
  8
0
 10
195.946321
 20
99.724288
 42
-0.186176
  0
VERTEX
  8
0
 10
195.266820
 20
100.213418
 42
-0.284059
  0
VERTEX
  8
0
 10
195.249048
 20
100.918297
 42
-0.067561
  0
VERTEX
  8
0
 10
196.187022
 20
102.118795
 42
-0.007131
  0
VERTEX
  8
0
 10
198.774888
 20
104.570418
 42
-0.016205
  0
VERTEX
  8
0
 10
200.709470
 20
106.238974
 42
-0.020193
  0
VERTEX
  8
0
 10
202.614843
 20
107.654390
 42
-0.018872
  0
VERTEX
  8
0
 10
204.277347
 20
108.698531
 42
-0.125620
  0
VERTEX
  8
0
 10
205.211812
 20
108.960295
 42
0.152472
  0
VERTEX
  8
0
 10
206.905276
 20
109.532419
 42
0.014729
  0
VERTEX
  8
0
 10
210.380359
 20
112.217623
 42
0.015907
  0
VERTEX
  8
0
 10
214.721051
 20
116.018109
 42
0.008117
  0
VERTEX
  8
0
 10
219.937756
 20
121.048170
 42
0.020729
  0
VERTEX
  8
0
 10
221.592672
 20
122.839178
 42
0.008820
  0
VERTEX
  8
0
 10
223.663918
 20
125.365005
 42
0.008709
  0
VERTEX
  8
0
 10
225.782101
 20
128.141078
 42
0.011301
  0
VERTEX
  8
0
 10
227.620262
 20
130.761242
 42
-0.009884
  0
VERTEX
  8
0
 10
229.245374
 20
133.091739
 42
-0.016473
  0
VERTEX
  8
0
 10
230.715182
 20
134.979176
 42
-0.010431
  0
VERTEX
  8
0
 10
231.969737
 20
136.422796
 42
-0.384573
  0
VERTEX
  8
0
 10
232.370262
 20
136.463072
 42
0.020330
  0
VERTEX
  8
0
 10
232.596065
 20
136.310770
 42
0.334309
  0
VERTEX
  8
0
 10
232.681321
 20
136.318679
 42
0.359186
  0
VERTEX
  8
0
 10
232.693063
 20
136.400028
 42
0.021389
  0
VERTEX
  8
0
 10
232.544872
 20
136.621795
 42
-0.237113
  0
VERTEX
  8
0
 10
232.469132
 20
137.073230
 42
-0.012832
  0
VERTEX
  8
0
 10
232.944632
 20
138.484144
 42
-0.017757
  0
VERTEX
  8
0
 10
233.637081
 20
140.186919
 42
-0.011820
  0
VERTEX
  8
0
 10
234.544872
 20
142.088551
 42
0.015482
  0
VERTEX
  8
0
 10
235.484673
 20
144.094890
 42
0.016425
  0
VERTEX
  8
0
 10
236.278806
 20
146.116790
 42
0.016235
  0
VERTEX
  8
0
 10
236.846667
 20
147.896021
 42
0.069229
  0
VERTEX
  8
0
 10
237.000000
 20
148.998141
 42
-0.061528
  0
VERTEX
  8
0
 10
237.102367
 20
149.826871
 42
-0.060449
  0
VERTEX
  8
0
 10
237.403432
 20
150.611096
 42
-0.065842
  0
VERTEX
  8
0
 10
237.847957
 20
151.235347
 42
-0.114015
  0
VERTEX
  8
0
 10
238.373385
 20
151.589787
 42
0.133190
  0
VERTEX
  8
0
 10
239.015645
 20
152.059278
 42
0.025019
  0
VERTEX
  8
0
 10
239.874847
 20
153.250866
 42
0.025177
  0
VERTEX
  8
0
 10
240.762695
 20
154.786010
 42
0.020720
  0
VERTEX
  8
0
 10
241.556161
 20
156.504458
 42
-0.023193
  0
VERTEX
  8
0
 10
242.338336
 20
158.176685
 42
-0.041639
  0
VERTEX
  8
0
 10
243.151821
 20
159.453922
 42
-0.054728
  0
VERTEX
  8
0
 10
243.894486
 20
160.235781
 42
-0.314398
  0
VERTEX
  8
0
 10
244.432776
 20
160.285730
 42
0.019000
  0
VERTEX
  8
0
 10
244.816766
 20
160.086453
 42
0.231506
  0
VERTEX
  8
0
 10
244.977838
 20
160.088755
 42
0.454756
  0
VERTEX
  8
0
 10
245.004756
 20
160.195106
 42
0.032096
  0
VERTEX
  8
0
 10
244.789651
 20
160.466691
 42
-0.200624
  0
VERTEX
  8
0
 10
244.605991
 20
160.989138
 42
-0.032072
  0
VERTEX
  8
0
 10
244.740677
 20
162.087002
 42
-0.031219
  0
VERTEX
  8
0
 10
245.082123
 20
163.432009
 42
-0.022795
  0
VERTEX
  8
0
 10
245.620442
 20
164.877016
 42
0.015585
  0
VERTEX
  8
0
 10
246.237527
 20
166.463182
 42
0.011877
  0
VERTEX
  8
0
 10
246.816938
 20
168.234701
 42
0.012043
  0
VERTEX
  8
0
 10
247.280868
 20
169.922393
 42
0.027441
  0
VERTEX
  8
0
 10
247.529466
 20
171.219839
 42
-0.025734
  0
VERTEX
  8
0
 10
247.755318
 20
172.420730
 42
-0.016642
  0
VERTEX
  8
0
 10
248.133543
 20
173.783980
 42
-0.016736
  0
VERTEX
  8
0
 10
248.593440
 20
175.094978
 42
-0.030144
  0
VERTEX
  8
0
 10
249.069295
 20
176.129479
 42
0.096523
  0
VERTEX
  8
0
 10
250.277354
 20
180.049425
 42
0.020431
  0
VERTEX
  8
0
 10
250.748737
 20
187.220549
 42
0.022399
  0
VERTEX
  8
0
 10
250.596108
 20
194.847405
 42
0.041477
  0
VERTEX
  8
0
 10
249.685032
 20
200.970639
 42
-0.013113
  0
VERTEX
  8
0
 10
249.070396
 20
203.935848
 42
-0.027395
  0
VERTEX
  8
0
 10
248.780318
 20
206.274837
 42
-0.034930
  0
VERTEX
  8
0
 10
248.782490
 20
208.058930
 42
-0.105476
  0
VERTEX
  8
0
 10
249.118083
 20
209.220639
 42
0.032726
  0
VERTEX
  8
0
 10
249.449690
 20
209.951455
 42
0.086768
  0
VERTEX
  8
0
 10
249.556220
 20
210.513132
 42
0.173349
  0
VERTEX
  8
0
 10
249.438577
 20
210.857768
 42
0.228497
  0
VERTEX
  8
0
 10
249.143592
 20
211.000000
 42
-0.205007
  0
VERTEX
  8
0
 10
248.743733
 20
211.171140
 42
-0.052160
  0
VERTEX
  8
0
 10
248.302868
 20
211.741833
 42
-0.044487
  0
VERTEX
  8
0
 10
247.893569
 20
212.558466
 42
-0.032459
  0
VERTEX
  8
0
 10
247.582984
 20
213.525390
 42
0.113859
  0
VERTEX
  8
0
 10
246.078331
 20
216.468190
 42
0.018429
  0
VERTEX
  8
0
 10
241.732397
 20
221.263847
 42
0.013148
  0
VERTEX
  8
0
 10
237.034022
 20
225.832541
 42
0.273225
  0
VERTEX
  8
0
 10
235.187850
 20
226.229283
 42
-0.096421
  0
VERTEX
  8
0
 10
234.732540
 20
226.169988
 42
-0.170280
  0
VERTEX
  8
0
 10
234.387407
 20
226.315937
 42
-0.168923
  0
VERTEX
  8
0
 10
234.207290
 20
226.646651
 42
-0.094672
  0
VERTEX
  8
0
 10
234.218750
 20
227.109544
 42
0.116395
  0
VERTEX
  8
0
 10
234.209604
 20
227.611666
 42
0.117375
  0
VERTEX
  8
0
 10
233.976758
 20
228.054974
 42
0.108728
  0
VERTEX
  8
0
 10
233.551204
 20
228.369751
 42
0.088645
  0
VERTEX
  8
0
 10
233.000000
 20
228.506649
 42
-0.035443
  0
VERTEX
  8
0
 10
230.945227
 20
228.790903
 42
-0.014795
  0
VERTEX
  8
0
 10
228.225349
 20
229.450481
 42
-0.014575
  0
VERTEX
  8
0
 10
225.583500
 20
230.258002
 42
-0.041958
  0
VERTEX
  8
0
 10
223.827356
 20
231.020567
 42
0.099832
  0
VERTEX
  8
0
 10
222.797834
 20
231.332868
 42
0.024950
  0
VERTEX
  8
0
 10
221.033687
 20
231.413420
 42
0.023065
  0
VERTEX
  8
0
 10
218.860989
 20
231.303857
 42
0.016210
  0
VERTEX
  8
0
 10
216.432742
 20
230.989054
 42
-0.042697
  0
VERTEX
  8
0
 10
211.935613
 20
230.646622
 42
-0.100347
  0
VERTEX
  8
0
 10
208.656476
 20
231.343378
 42
-0.101899
  0
VERTEX
  8
0
 10
205.938375
 20
233.253189
 42
-0.044927
  0
VERTEX
  8
0
 10
203.213684
 20
236.724899
 42
0.000000
  0
VERTEX
  8
0
 10
200.927368
 20
240.248071
 42
0.000000
  0
VERTEX
  8
0
 10
202.963684
 20
244.154829
 42
0.030233
  0
VERTEX
  8
0
 10
204.359287
 20
247.279645
 42
0.069981
  0
VERTEX
  8
0
 10
204.918413
 20
249.781661
 42
0.135468
  0
VERTEX
  8
0
 10
204.615278
 20
251.364920
 42
0.285478
  0
VERTEX
  8
0
 10
203.593620
 20
252.000000
 42
-0.121219
  0
VERTEX
  8
0
 10
203.031896
 20
252.138214
 42
-0.169691
  0
VERTEX
  8
0
 10
202.681695
 20
252.512551
 42
-0.120594
  0
VERTEX
  8
0
 10
202.570873
 20
253.136109
 42
-0.047946
  0
VERTEX
  8
0
 10
202.710251
 20
254.000000
 42
0.049530
  0
VERTEX
  8
0
 10
202.834177
 20
254.783863
 42
0.089688
  0
VERTEX
  8
0
 10
202.755978
 20
255.426562
 42
0.131985
  0
VERTEX
  8
0
 10
202.493675
 20
255.842692
 42
0.188671
  0
VERTEX
  8
0
 10
202.091631
 20
256.000000
 42
0.210189
  0
VERTEX
  8
0
 10
201.610078
 20
255.788209
 42
0.055958
  0
VERTEX
  8
0
 10
201.104365
 20
255.095056
 42
0.046738
  0
VERTEX
  8
0
 10
200.653400
 20
254.098892
 42
0.033587
  0
VERTEX
  8
0
 10
200.333868
 20
252.919340
 42
-0.016725
  0
VERTEX
  8
0
 10
199.993028
 20
251.469154
 42
-0.114884
  0
VERTEX
  8
0
 10
199.648597
 20
250.828133
 42
-0.348223
  0
VERTEX
  8
0
 10
199.256185
 20
250.757214
 42
-0.118619
  0
VERTEX
  8
0
 10
198.793361
 20
251.169340
 42
0.023707
  0
VERTEX
  8
0
 10
198.384883
 20
251.701625
 42
0.556643
  0
VERTEX
  8
0
 10
198.230137
 20
251.678709
 42
0.162656
  0
VERTEX
  8
0
 10
198.203385
 20
251.366341
 42
0.008727
  0
VERTEX
  8
0
 10
198.457071
 20
250.391183
 42
-0.065526
  0
VERTEX
  8
0
 10
198.591919
 20
249.441812
 42
-0.070187
  0
VERTEX
  8
0
 10
198.470551
 20
248.512862
 42
-0.072797
  0
VERTEX
  8
0
 10
198.104247
 20
247.682359
 42
-0.079501
  0
VERTEX
  8
0
 10
197.523780
 20
247.019736
 42
-0.124458
  0
VERTEX
  8
0
 10
196.537793
 20
246.549416
 42
-0.138913
  0
VERTEX
  8
0
 10
195.490264
 20
246.631941
 42
-0.067770
  0
VERTEX
  8
0
 10
194.093152
 20
247.377166
 42
-0.012331
  0
VERTEX
  8
0
 10
191.751202
 20
249.157548
 42
0.016100
  0
VERTEX
  8
0
 10
189.819158
 20
250.603467
 42
0.010750
  0
VERTEX
  8
0
 10
187.521048
 20
252.138093
 42
0.010830
  0
VERTEX
  8
0
 10
185.226272
 20
253.531215
 42
0.020827
  0
VERTEX
  8
0
 10
183.320451
 20
254.528995
 42
0.000000
  0
VERTEX
  8
0
 10
179.140901
 20
256.500000
 42
0.000000
  0
VERTEX
  8
0
 10
178.703914
 20
263.500000
 42
0.004206
  0
VERTEX
  8
0
 10
178.498702
 20
266.395357
 42
0.004122
  0
VERTEX
  8
0
 10
178.243583
 20
269.306427
 42
0.004060
  0
VERTEX
  8
0
 10
177.977994
 20
271.856446
 42
0.015546
  0
VERTEX
  8
0
 10
177.750474
 20
273.436774
 42
-0.044092
  0
VERTEX
  8
0
 10
177.634466
 20
274.783163
 42
-0.025345
  0
VERTEX
  8
0
 10
177.720572
 20
276.410694
 42
-0.025164
  0
VERTEX
  8
0
 10
177.974750
 20
278.049724
 42
-0.038037
  0
VERTEX
  8
0
 10
178.373913
 20
279.436774
 42
-0.032365
  0
VERTEX
  8
0
 10
180.162453
 20
283.431585
 42
-0.014228
  0
VERTEX
  8
0
 10
183.012963
 20
288.478759
 42
-0.006448
  0
VERTEX
  8
0
 10
186.071435
 20
293.406619
 42
-0.255991
  0
VERTEX
  8
0
 10
187.154475
 20
294.000000
 42
0.110528
  0
VERTEX
  8
0
 10
187.476801
 20
294.072133
 42
0.183095
  0
VERTEX
  8
0
 10
187.668078
 20
294.270068
 42
0.159951
  0
VERTEX
  8
0
 10
187.694636
 20
294.568036
 42
0.081494
  0
VERTEX
  8
0
 10
187.549826
 20
294.919380
 42
-0.165635
  0
VERTEX
  8
0
 10
187.443578
 20
295.382988
 42
-0.067928
  0
VERTEX
  8
0
 10
187.598144
 20
296.018308
 42
-0.057038
  0
VERTEX
  8
0
 10
187.968595
 20
296.715767
 42
-0.045831
  0
VERTEX
  8
0
 10
188.512222
 20
297.369365
 42
-0.148875
  0
VERTEX
  8
0
 10
190.021954
 20
298.174288
 42
-0.031264
  0
VERTEX
  8
0
 10
193.023136
 20
298.571950
 42
-0.017413
  0
VERTEX
  8
0
 10
198.011047
 20
298.743623
 42
-0.003014
  0
VERTEX
  8
0
 10
207.453821
 20
298.682742
 42
0.003635
  0
VERTEX
  8
0
 10
214.055456
 20
298.648375
 42
0.006704
  0
VERTEX
  8
0
 10
219.423326
 20
298.731428
 42
0.003516
  0
VERTEX
  8
0
 10
223.681350
 20
298.884404
 42
0.738760
  0
VERTEX
  8
0
 10
223.751594
 20
299.153524
 42
-0.431332
  0
VERTEX
  8
0
 10
223.684916
 20
299.477824
 42
-0.123839
  0
VERTEX
  8
0
 10
224.120058
 20
299.853897
 42
-0.049998
  0
VERTEX
  8
0
 10
225.134833
 20
300.243264
 42
-0.020707
  0
VERTEX
  8
0
 10
226.569186
 20
300.571633
 42
0.020497
  0
VERTEX
  8
0
 10
228.226633
 20
300.950340
 42
0.016987
  0
VERTEX
  8
0
 10
229.956272
 20
301.484604
 42
0.017321
  0
VERTEX
  8
0
 10
231.509440
 20
302.083808
 42
0.043475
  0
VERTEX
  8
0
 10
232.579826
 20
302.654374
 42
-0.035223
  0
VERTEX
  8
0
 10
233.425240
 20
303.123070
 42
-0.048173
  0
VERTEX
  8
0
 10
234.245566
 20
303.412813
 42
-0.057776
  0
VERTEX
  8
0
 10
234.927704
 20
303.500490
 42
-0.202139
  0
VERTEX
  8
0
 10
235.329826
 20
303.336841
 42
0.109598
  0
VERTEX
  8
0
 10
235.584773
 20
303.174479
 42
0.251713
  0
VERTEX
  8
0
 10
235.803136
 20
303.206239
 42
0.176393
  0
VERTEX
  8
0
 10
235.952738
 20
303.432605
 42
0.058766
  0
VERTEX
  8
0
 10
236.000000
 20
303.833333
 42
-0.123526
  0
VERTEX
  8
0
 10
236.111629
 20
304.278282
 42
-0.100776
  0
VERTEX
  8
0
 10
236.426029
 20
304.657292
 42
-0.090807
  0
VERTEX
  8
0
 10
236.896301
 20
304.911958
 42
-0.078963
  0
VERTEX
  8
0
 10
237.450310
 20
305.000000
 42
0.100292
  0
VERTEX
  8
0
 10
238.080138
 20
305.127617
 42
0.054217
  0
VERTEX
  8
0
 10
238.774005
 20
305.514063
 42
0.050884
  0
VERTEX
  8
0
 10
239.422383
 20
306.080635
 42
0.055942
  0
VERTEX
  8
0
 10
239.919901
 20
306.750000
 42
-0.021519
  0
VERTEX
  8
0
 10
240.314952
 20
307.365732
 42
-0.067432
  0
VERTEX
  8
0
 10
240.648701
 20
307.725329
 42
-0.254972
  0
VERTEX
  8
0
 10
240.854806
 20
307.764688
 42
-0.316451
  0
VERTEX
  8
0
 10
240.969591
 20
307.612822
 42
0.660612
  0
VERTEX
  8
0
 10
241.484088
 20
307.413898
 42
0.003457
  0
VERTEX
  8
0
 10
246.490619
 20
312.626671
 42
0.003462
  0
VERTEX
  8
0
 10
251.488348
 20
317.976523
 42
0.185776
  0
VERTEX
  8
0
 10
251.992704
 20
319.250000
 42
0.192109
  0
VERTEX
  8
0
 10
251.881676
 20
319.536370
 42
0.089170
  0
VERTEX
  8
0
 10
251.557232
 20
319.779688
 42
0.068483
  0
VERTEX
  8
0
 10
251.073537
 20
319.944743
 42
0.048061
  0
VERTEX
  8
0
 10
250.500000
 20
320.000000
 42
0.063708
  0
VERTEX
  8
0
 10
249.926503
 20
319.926629
 42
0.081605
  0
VERTEX
  8
0
 10
249.440625
 20
319.711198
 42
0.098517
  0
VERTEX
  8
0
 10
249.115533
 20
319.391785
 42
0.150575
  0
SEQEND
  0
POLYLINE
  8
0
 66
1
 70
1
  0
VERTEX
  8
0
 10
194.122073
 20
242.325003
 42
-0.009073
  0
VERTEX
  8
0
 10
193.526993
 20
241.343107
 42
-0.200091
  0
VERTEX
  8
0
 10
193.258773
 20
241.154512
 42
-0.446695
  0
VERTEX
  8
0
 10
193.081567
 20
241.281648
 42
-0.022266
  0
VERTEX
  8
0
 10
193.030409
 20
242.083333
 42
-0.068411
  0
VERTEX
  8
0
 10
193.167873
 20
243.248790
 42
-0.088309
  0
VERTEX
  8
0
 10
193.616467
 20
244.226472
 42
-0.148740
  0
VERTEX
  8
0
 10
194.203585
 20
244.690800
 42
-0.298202
  0
VERTEX
  8
0
 10
194.758330
 20
244.575003
 42
-0.228220
  0
VERTEX
  8
0
 10
194.856077
 20
244.295699
 42
-0.040891
  0
VERTEX
  8
0
 10
194.746741
 20
243.738754
 42
-0.036971
  0
VERTEX
  8
0
 10
194.497543
 20
243.055001
 42
-0.025833
  0
SEQEND
  0
POLYLINE
  8
0
 66
1
 70
1
  0
VERTEX
  8
0
 10
196.926114
 20
239.410972
 42
-0.048467
  0
VERTEX
  8
0
 10
195.725460
 20
238.220323
 42
-0.254452
  0
VERTEX
  8
0
 10
194.843567
 20
238.054347
 42
-0.390085
  0
VERTEX
  8
0
 10
194.500187
 20
238.661603
 42
-0.065638
  0
VERTEX
  8
0
 10
195.014990
 20
240.028008
 42
-0.049171
  0
VERTEX
  8
0
 10
195.503907
 20
240.758759
 42
-0.072039
  0
VERTEX
  8
0
 10
196.074799
 20
241.279035
 42
-0.095673
  0
VERTEX
  8
0
 10
196.634549
 20
241.518634
 42
-0.194202
  0
VERTEX
  8
0
 10
197.098732
 20
241.438981
 42
-0.129807
  0
VERTEX
  8
0
 10
197.439440
 20
241.079829
 42
-0.147504
  0
VERTEX
  8
0
 10
197.537114
 20
240.616999
 42
-0.105652
  0
VERTEX
  8
0
 10
197.366059
 20
240.054950
 42
-0.046726
  0
SEQEND
  0
POLYLINE
  8
0
 66
1
 70
1
  0
VERTEX
  8
0
 10
201.800000
 20
235.800000
 42
-0.058198
  0
VERTEX
  8
0
 10
202.588661
 20
234.802763
 42
-0.095327
  0
VERTEX
  8
0
 10
202.969650
 20
233.799084
 42
-0.317335
  0
VERTEX
  8
0
 10
202.757295
 20
233.350178
 42
-0.273517
  0
VERTEX
  8
0
 10
202.225551
 20
233.360602
 42
0.297967
  0
VERTEX
  8
0
 10
200.714864
 20
233.321908
 42
0.015644
  0
VERTEX
  8
0
 10
196.631325
 20
230.306371
 42
0.017430
  0
VERTEX
  8
0
 10
192.768074
 20
227.037727
 42
0.211502
  0
VERTEX
  8
0
 10
192.000000
 20
225.303193
 42
0.105128
  0
VERTEX
  8
0
 10
192.148478
 20
224.604818
 42
0.375665
  0
VERTEX
  8
0
 10
192.530211
 20
224.428306
 42
0.102425
  0
VERTEX
  8
0
 10
193.255878
 20
224.815116
 42
0.010229
  0
VERTEX
  8
0
 10
194.750000
 20
226.110641
 42
-0.030790
  0
VERTEX
  8
0
 10
197.568419
 20
228.358380
 42
-0.046317
  0
VERTEX
  8
0
 10
200.296100
 20
229.916877
 42
-0.054928
  0
VERTEX
  8
0
 10
202.838598
 20
230.750368
 42
-0.089632
  0
VERTEX
  8
0
 10
205.100759
 20
230.814297
 42
-0.024622
  0
VERTEX
  8
0
 10
206.423094
 20
230.546565
 42
-0.505393
  0
VERTEX
  8
0
 10
206.554336
 20
230.223512
 42
-0.137389
  0
VERTEX
  8
0
 10
206.073944
 20
229.778032
 42
-0.004668
  0
VERTEX
  8
0
 10
203.750000
 20
228.611248
 42
0.016521
  0
VERTEX
  8
0
 10
202.313398
 20
227.846816
 42
0.023832
  0
VERTEX
  8
0
 10
201.101562
 20
227.070582
 42
0.021180
  0
VERTEX
  8
0
 10
200.193586
 20
226.366322
 42
0.220664
  0
VERTEX
  8
0
 10
200.000000
 20
225.949037
 42
-0.167356
  0
VERTEX
  8
0
 10
199.833966
 20
225.466879
 42
-0.011270
  0
VERTEX
  8
0
 10
198.898438
 20
224.323660
 42
-0.015204
  0
VERTEX
  8
0
 10
197.686577
 20
222.993146
 42
-0.010755
  0
VERTEX
  8
0
 10
196.250000
 20
221.571652
 42
0.015199
  0
VERTEX
  8
0
 10
193.331848
 20
218.632355
 42
0.719193
  0
VERTEX
  8
0
 10
193.604877
 20
218.127297
 42
0.128909
  0
VERTEX
  8
0
 10
195.286796
 20
218.894957
 42
0.010628
  0
VERTEX
  8
0
 10
198.983718
 20
222.045911
 42
-0.065796
  0
VERTEX
  8
0
 10
204.633268
 20
225.875333
 42
-0.063680
  0
VERTEX
  8
0
 10
211.145805
 20
228.157810
 42
-0.062979
  0
VERTEX
  8
0
 10
218.090518
 20
228.743361
 42
-0.061828
  0
VERTEX
  8
0
 10
225.007945
 20
227.590281
 42
0.000960
  0
VERTEX
  8
0
 10
227.148628
 20
226.959036
 42
0.001409
  0
VERTEX
  8
0
 10
229.033584
 20
226.412893
 42
0.000657
  0
VERTEX
  8
0
 10
230.641204
 20
225.954297
 42
0.026140
  0
VERTEX
  8
0
 10
231.000000
 20
225.872441
 42
-0.084771
  0
VERTEX
  8
0
 10
233.156381
 20
225.106810
 42
-0.021309
  0
VERTEX
  8
0
 10
236.341136
 20
223.141402
 42
-0.022631
  0
VERTEX
  8
0
 10
239.516615
 20
220.773237
 42
-0.041079
  0
VERTEX
  8
0
 10
241.844680
 20
218.524118
 42
-0.022145
  0
VERTEX
  8
0
 10
243.751969
 20
216.147366
 42
-0.056740
  0
VERTEX
  8
0
 10
244.843702
 20
214.234441
 42
-0.325464
  0
VERTEX
  8
0
 10
244.689236
 20
213.556598
 42
-0.328898
  0
VERTEX
  8
0
 10
244.000000
 20
213.500000
 42
0.222903
  0
VERTEX
  8
0
 10
243.373980
 20
213.572272
 42
0.394646
  0
VERTEX
  8
0
 10
243.145764
 20
213.149852
 42
0.047869
  0
VERTEX
  8
0
 10
243.708235
 20
211.618919
 42
0.005110
  0
VERTEX
  8
0
 10
245.385282
 20
208.216756
 42
-0.030228
  0
VERTEX
  8
0
 10
246.465226
 20
205.716732
 42
-0.028880
  0
VERTEX
  8
0
 10
247.254819
 20
203.066691
 42
-0.027111
  0
VERTEX
  8
0
 10
247.771637
 20
200.187803
 42
-0.020756
  0
VERTEX
  8
0
 10
248.033344
 20
197.000000
 42
-0.007475
  0
VERTEX
  8
0
 10
248.225283
 20
189.461545
 42
-0.017373
  0
VERTEX
  8
0
 10
248.088296
 20
183.810676
 42
-0.016594
  0
VERTEX
  8
0
 10
247.721769
 20
179.845044
 42
-0.545985
  0
VERTEX
  8
0
 10
247.000000
 20
179.500000
 42
0.353315
  0
VERTEX
  8
0
 10
246.599031
 20
179.449341
 42
0.115077
  0
VERTEX
  8
0
 10
246.271596
 20
178.899019
 42
0.054823
  0
VERTEX
  8
0
 10
246.056241
 20
177.825869
 42
0.021234
  0
VERTEX
  8
0
 10
245.986345
 20
176.309017
 42
-0.022552
  0
VERTEX
  8
0
 10
245.815183
 20
172.795748
 42
-0.051254
  0
VERTEX
  8
0
 10
245.297626
 20
170.191707
 42
-0.079065
  0
VERTEX
  8
0
 10
244.492245
 20
168.551393
 42
-0.243811
  0
VERTEX
  8
0
 10
243.428682
 20
168.000000
 42
0.213239
  0
VERTEX
  8
0
 10
242.856588
 20
167.744392
 42
0.062007
  0
VERTEX
  8
0
 10
242.293044
 20
166.932170
 42
0.048682
  0
VERTEX
  8
0
 10
241.805000
 20
165.729276
 42
0.030616
  0
VERTEX
  8
0
 10
241.463420
 20
164.250000
 42
-0.004676
  0
VERTEX
  8
0
 10
240.872504
 20
160.909302
 42
-0.049566
  0
VERTEX
  8
0
 10
240.486136
 20
159.583048
 42
-0.739282
  0
VERTEX
  8
0
 10
240.228292
 20
159.605003
 42
-0.044645
  0
VERTEX
  8
0
 10
240.078947
 20
160.809017
 42
0.093999
  0
VERTEX
  8
0
 10
239.740870
 20
162.309407
 42
0.521990
  0
VERTEX
  8
0
 10
239.066457
 20
162.445805
 42
0.127175
  0
VERTEX
  8
0
 10
238.211561
 20
161.067536
 42
0.029196
  0
VERTEX
  8
0
 10
237.544955
 20
158.387937
 42
-0.011913
  0
VERTEX
  8
0
 10
237.224118
 20
156.877263
 42
-0.011017
  0
VERTEX
  8
0
 10
236.824071
 20
155.343417
 42
-0.011080
  0
VERTEX
  8
0
 10
236.407604
 20
153.993857
 42
-0.035738
  0
VERTEX
  8
0
 10
236.048263
 20
153.126892
 42
0.008381
  0
VERTEX
  8
0
 10
235.664982
 20
152.328575
 42
0.003530
  0
VERTEX
  8
0
 10
235.175488
 20
151.243525
 42
0.003491
  0
VERTEX
  8
0
 10
234.668505
 20
150.076248
 42
0.004543
  0
VERTEX
  8
0
 10
234.221472
 20
149.000000
 42
-0.011034
  0
VERTEX
  8
0
 10
231.842893
 20
143.476994
 42
-0.014930
  0
VERTEX
  8
0
 10
229.437016
 20
138.603731
 42
-0.013549
  0
VERTEX
  8
0
 10
227.243402
 20
134.732572
 42
-0.101845
  0
VERTEX
  8
0
 10
225.821940
 20
133.193296
 42
0.055916
  0
VERTEX
  8
0
 10
225.124900
 20
132.564597
 42
0.046594
  0
VERTEX
  8
0
 10
224.535195
 20
131.759301
 42
0.048588
  0
VERTEX
  8
0
 10
224.132608
 20
130.908230
 42
0.086400
  0
VERTEX
  8
0
 10
224.000000
 20
130.146556
 42
-0.197358
  0
VERTEX
  8
0
 10
223.166583
 20
128.117366
 42
-0.006730
  0
VERTEX
  8
0
 10
216.908725
 20
121.952400
 42
-0.013517
  0
VERTEX
  8
0
 10
210.339046
 20
115.984594
 42
-0.029208
  0
VERTEX
  8
0
 10
204.913346
 20
111.842838
 42
0.009870
  0
VERTEX
  8
0
 10
203.150802
 20
110.602191
 42
0.005876
  0
VERTEX
  8
0
 10
201.099550
 20
109.059499
 42
0.005880
  0
VERTEX
  8
0
 10
199.090527
 20
107.473273
 42
0.010110
  0
VERTEX
  8
0
 10
197.459947
 20
106.098977
 42
-0.019769
  0
VERTEX
  8
0
 10
195.808650
 20
104.760901
 42
-0.011617
  0
VERTEX
  8
0
 10
193.736817
 20
103.287309
 42
-0.011610
  0
VERTEX
  8
0
 10
191.593943
 20
101.908389
 42
-0.019377
  0
VERTEX
  8
0
 10
189.722196
 20
100.861854
 42
0.020330
  0
VERTEX
  8
0
 10
185.672256
 20
98.587306
 42
0.020583
  0
VERTEX
  8
0
 10
181.837657
 20
96.000127
 42
0.018916
  0
VERTEX
  8
0
 10
177.954365
 20
92.907561
 42
0.012718
  0
VERTEX
  8
0
 10
173.750000
 20
89.100924
 42
-0.011527
  0
VERTEX
  8
0
 10
170.602105
 20
86.237149
 42
-0.139383
  0
VERTEX
  8
0
 10
169.135468
 20
85.550020
 42
-0.689660
  0
VERTEX
  8
0
 10
168.855266
 20
86.034396
 42
-0.017784
  0
VERTEX
  8
0
 10
171.170610
 20
88.681606
 42
0.023837
  0
VERTEX
  8
0
 10
171.961348
 20
89.608069
 42
0.037589
  0
VERTEX
  8
0
 10
172.537153
 20
90.479852
 42
0.043367
  0
VERTEX
  8
0
 10
172.857963
 20
91.194597
 42
0.287720
  0
VERTEX
  8
0
 10
172.774581
 20
91.558752
 42
0.373881
  0
VERTEX
  8
0
 10
172.093578
 20
91.606377
 42
0.004749
  0
VERTEX
  8
0
 10
168.394750
 20
88.763708
 42
0.011698
  0
VERTEX
  8
0
 10
164.271630
 20
85.373562
 42
0.009102
  0
VERTEX
  8
0
 10
159.945035
 20
81.503587
 42
-0.068157
  0
VERTEX
  8
0
 10
157.562455
 20
79.831801
 42
-0.034081
  0
VERTEX
  8
0
 10
154.176008
 20
78.369574
 42
-0.033776
  0
VERTEX
  8
0
 10
150.520343
 20
77.350185
 42
-0.053257
  0
VERTEX
  8
0
 10
147.282119
 20
77.031803
 42
-0.004814
  0
VERTEX
  8
0
 10
144.840142
 20
77.075855
 42
-0.174947
  0
VERTEX
  8
0
 10
144.325489
 20
77.277875
 42
-0.452936
  0
VERTEX
  8
0
 10
144.325572
 20
77.633012
 42
-0.016530
  0
VERTEX
  8
0
 10
145.500000
 20
78.596245
 42
-0.028730
  0
VERTEX
  8
0
 10
146.655964
 20
79.381021
 42
-0.006188
  0
VERTEX
  8
0
 10
148.748437
 20
80.597495
 42
-0.006441
  0
VERTEX
  8
0
 10
151.210544
 20
81.946840
 42
-0.006110
  0
VERTEX
  8
0
 10
153.750000
 20
83.256796
 42
0.013391
  0
VERTEX
  8
0
 10
157.406686
 20
85.210988
 42
0.053445
  0
VERTEX
  8
0
 10
159.465414
 20
86.694353
 42
0.293847
  0
VERTEX
  8
0
 10
159.692006
 20
87.519396
 42
0.327849
  0
VERTEX
  8
0
 10
159.037823
 20
88.000000
 42
0.107626
  0
VERTEX
  8
0
 10
158.371457
 20
87.854882
 42
0.002651
  0
VERTEX
  8
0
 10
155.516704
 20
86.531250
 42
0.005619
  0
VERTEX
  8
0
 10
152.178748
 20
84.915973
 42
0.003781
  0
VERTEX
  8
0
 10
148.402177
 20
83.000000
 42
-0.017658
  0
VERTEX
  8
0
 10
141.297529
 20
79.640112
 42
-0.060570
  0
VERTEX
  8
0
 10
136.407583
 20
78.205138
 42
-0.104967
  0
VERTEX
  8
0
 10
132.892584
 20
78.362427
 42
-0.149862
  0
VERTEX
  8
0
 10
130.250000
 20
79.987685
 42
-0.007213
  0
VERTEX
  8
0
 10
127.915123
 20
82.718111
 42
-0.006715
  0
VERTEX
  8
0
 10
125.602650
 20
85.580016
 42
-0.006502
  0
VERTEX
  8
0
 10
123.295028
 20
88.595596
 42
-0.005793
  0
VERTEX
  8
0
 10
120.974689
 20
91.787450
 42
0.026821
  0
VERTEX
  8
0
 10
119.613440
 20
93.503418
 42
0.024677
  0
VERTEX
  8
0
 10
118.039807
 20
95.114613
 42
0.025485
  0
VERTEX
  8
0
 10
116.492866
 20
96.409381
 42
0.070770
  0
VERTEX
  8
0
 10
115.254630
 20
97.093289
 42
-0.014768
  0
VERTEX
  8
0
 10
113.731809
 20
97.724339
 42
-0.002625
  0
VERTEX
  8
0
 10
110.924463
 20
99.003825
 42
-0.002837
  0
VERTEX
  8
0
 10
107.649519
 20
100.539844
 42
-0.002554
  0
VERTEX
  8
0
 10
104.275028
 20
102.167163
 42
-0.032928
  0
VERTEX
  8
0
 10
97.056126
 20
106.303110
 42
-0.065753
  0
VERTEX
  8
0
 10
92.106272
 20
110.622010
 42
-0.068194
  0
VERTEX
  8
0
 10
88.558548
 20
115.968238
 42
-0.037940
  0
VERTEX
  8
0
 10
85.697494
 20
123.261236
 42
-0.010799
  0
VERTEX
  8
0
 10
84.239359
 20
128.401416
 42
-0.016407
  0
VERTEX
  8
0
 10
83.217007
 20
132.930589
 42
-0.013900
  0
VERTEX
  8
0
 10
82.387026
 20
138.028352
 42
-0.005405
  0
VERTEX
  8
0
 10
81.511838
 20
145.120137
 42
0.031531
  0
VERTEX
  8
0
 10
80.928346
 20
148.419906
 42
0.046486
  0
VERTEX
  8
0
 10
79.972894
 20
151.200584
 42
0.040006
  0
VERTEX
  8
0
 10
78.406430
 20
154.041993
 42
0.016948
  0
VERTEX
  8
0
 10
75.884080
 20
157.592371
 42
-0.008866
  0
VERTEX
  8
0
 10
74.396231
 20
159.616522
 42
-0.012305
  0
VERTEX
  8
0
 10
73.140948
 20
161.485161
 42
-0.008863
  0
VERTEX
  8
0
 10
72.168585
 20
163.074016
 42
-0.133653
  0
VERTEX
  8
0
 10
72.000000
 20
163.693432
 42
0.094379
  0
VERTEX
  8
0
 10
71.882349
 20
164.311168
 42
0.008701
  0
VERTEX
  8
0
 10
71.281687
 20
165.756780
 42
0.010978
  0
VERTEX
  8
0
 10
70.491185
 20
167.466152
 42
0.008393
  0
VERTEX
  8
0
 10
69.554678
 20
169.301139
 42
-0.019848
  0
VERTEX
  8
0
 10
68.572389
 20
171.339846
 42
-0.014667
  0
VERTEX
  8
0
 10
67.643593
 20
173.665423
 42
-0.014874
  0
VERTEX
  8
0
 10
66.894939
 20
175.917795
 42
-0.031939
  0
VERTEX
  8
0
 10
66.482712
 20
177.700079
 42
0.015286
  0
VERTEX
  8
0
 10
66.165641
 20
179.313831
 42
0.012449
  0
VERTEX
  8
0
 10
65.730768
 20
181.020659
 42
0.012640
  0
VERTEX
  8
0
 10
65.251096
 20
182.573224
 42
0.031827
  0
VERTEX
  8
0
 10
64.802873
 20
183.668123
 42
-0.081065
  0
VERTEX
  8
0
 10
64.399780
 20
185.016858
 42
-0.022747
  0
VERTEX
  8
0
 10
64.216556
 20
187.215156
 42
-0.020218
  0
VERTEX
  8
0
 10
64.224157
 20
189.968322
 42
-0.012836
  0
VERTEX
  8
0
 10
64.444849
 20
193.168123
 42
-0.015093
  0
VERTEX
  8
0
 10
64.932788
 20
197.060257
 42
-0.038356
  0
VERTEX
  8
0
 10
65.585914
 20
199.830072
 42
-0.046586
  0
VERTEX
  8
0
 10
66.564824
 20
202.136722
 42
-0.033751
  0
VERTEX
  8
0
 10
68.052846
 20
204.500000
 42
0.005951
  0
VERTEX
  8
0
 10
69.248677
 20
206.183915
 42
0.005545
  0
VERTEX
  8
0
 10
70.433083
 20
207.935700
 42
0.005534
  0
VERTEX
  8
0
 10
71.451040
 20
209.515639
 42
0.018683
  0
VERTEX
  8
0
 10
72.065428
 20
210.578977
 42
-0.127352
  0
VERTEX
  8
0
 10
73.758508
 20
212.433549
 42
-0.063326
  0
VERTEX
  8
0
 10
76.642512
 20
213.830472
 42
-0.050477
  0
VERTEX
  8
0
 10
80.515332
 20
214.711624
 42
-0.030721
  0
VERTEX
  8
0
 10
85.204367
 20
215.000000
 42
-0.011180
  0
VERTEX
  8
0
 10
88.378282
 20
214.929023
 42
-0.075213
  0
VERTEX
  8
0
 10
89.919176
 20
214.624905
 42
-0.151471
  0
VERTEX
  8
0
 10
90.790420
 20
213.968528
 42
-0.092437
  0
VERTEX
  8
0
 10
91.343705
 20
212.793670
 42
-0.012458
  0
VERTEX
  8
0
 10
91.546666
 20
211.930207
 42
-0.018336
  0
VERTEX
  8
0
 10
91.677933
 20
211.162193
 42
-0.013880
  0
VERTEX
  8
0
 10
91.743985
 20
210.534568
 42
-0.219029
  0
VERTEX
  8
0
 10
91.671290
 20
210.337957
 42
-0.263929
  0
VERTEX
  8
0
 10
91.454290
 20
210.278062
 42
-0.004549
  0
VERTEX
  8
0
 10
90.222281
 20
210.600373
 42
-0.010232
  0
VERTEX
  8
0
 10
88.767689
 20
211.027231
 42
-0.006472
  0
VERTEX
  8
0
 10
87.088689
 20
211.581488
 42
0.021564
  0
VERTEX
  8
0
 10
84.752640
 20
212.275214
 42
0.049665
  0
VERTEX
  8
0
 10
82.941406
 20
212.542105
 42
0.056177
  0
VERTEX
  8
0
 10
81.254439
 20
212.431982
 42
0.035353
  0
VERTEX
  8
0
 10
79.337735
 20
211.946448
 42
0.076219
  0
VERTEX
  8
0
 10
76.317023
 20
210.408541
 42
0.031893
  0
VERTEX
  8
0
 10
72.776321
 20
207.505128
 42
0.028172
  0
VERTEX
  8
0
 10
69.756236
 20
204.352181
 42
0.178755
  0
VERTEX
  8
0
 10
69.000000
 20
202.304492
 42
0.510490
  0
VERTEX
  8
0
 10
69.297700
 20
202.088896
 42
0.070641
  0
VERTEX
  8
0
 10
70.108258
 20
202.488740
 42
0.036319
  0
VERTEX
  8
0
 10
71.323180
 20
203.455076
 42
0.016460
  0
VERTEX
  8
0
 10
72.772793
 20
204.881816
 42
-0.024963
  0
VERTEX
  8
0
 10
74.422876
 20
206.451547
 42
-0.023234
  0
VERTEX
  8
0
 10
76.259859
 20
207.889266
 42
-0.023919
  0
VERTEX
  8
0
 10
78.012194
 20
209.011925
 42
-0.069122
  0
VERTEX
  8
0
 10
79.345690
 20
209.550627
 42
-0.074634
  0
VERTEX
  8
0
 10
82.507487
 20
209.858006
 42
-0.041992
  0
VERTEX
  8
0
 10
86.336755
 20
209.333930
 42
-0.039338
  0
VERTEX
  8
0
 10
89.678969
 20
208.305236
 42
-0.256227
  0
VERTEX
  8
0
 10
90.761802
 20
206.998349
 42
-0.246292
  0
VERTEX
  8
0
 10
90.541077
 20
206.265961
 42
-0.139992
  0
VERTEX
  8
0
 10
89.716033
 20
205.796930
 42
-0.051151
  0
VERTEX
  8
0
 10
87.975868
 20
205.557844
 42
-0.008581
  0
VERTEX
  8
0
 10
84.605743
 20
205.500000
 42
0.013515
  0
VERTEX
  8
0
 10
81.023503
 20
205.403156
 42
0.053252
  0
VERTEX
  8
0
 10
78.847643
 20
205.050990
 42
0.075155
  0
VERTEX
  8
0
 10
77.193558
 20
204.318479
 42
0.046851
  0
VERTEX
  8
0
 10
75.515966
 20
203.015000
 42
0.048064
  0
VERTEX
  8
0
 10
73.267231
 20
200.453934
 42
0.042495
  0
VERTEX
  8
0
 10
71.442306
 20
197.406457
 42
0.044702
  0
VERTEX
  8
0
 10
70.316605
 20
194.462974
 42
0.131171
  0
VERTEX
  8
0
 10
70.284150
 20
192.310885
 42
0.073345
  0
VERTEX
  8
0
 10
70.537543
 20
191.698275
 42
0.515133
  0
VERTEX
  8
0
 10
70.808354
 20
191.676344
 42
0.107455
  0
VERTEX
  8
0
 10
71.110418
 20
192.247941
 42
0.010883
  0
VERTEX
  8
0
 10
71.493362
 20
193.745811
 42
-0.101951
  0
VERTEX
  8
0
 10
72.915135
 20
196.831791
 42
-0.044492
  0
VERTEX
  8
0
 10
75.915626
 20
200.226330
 42
-0.044433
  0
VERTEX
  8
0
 10
79.511419
 20
203.070461
 42
-0.091301
  0
VERTEX
  8
0
 10
82.808976
 20
204.458044
 42
-0.054745
  0
VERTEX
  8
0
 10
84.493207
 20
204.638647
 42
-0.065431
  0
VERTEX
  8
0
 10
86.073955
 20
204.426785
 42
-0.052681
  0
VERTEX
  8
0
 10
87.797709
 20
203.759845
 42
-0.022169
  0
VERTEX
  8
0
 10
89.958564
 20
202.526157
 42
0.017159
  0
VERTEX
  8
0
 10
91.596882
 20
201.568916
 42
0.024617
  0
VERTEX
  8
0
 10
93.114103
 20
200.844895
 42
0.022319
  0
VERTEX
  8
0
 10
94.373223
 20
200.383300
 42
0.218462
  0
VERTEX
  8
0
 10
94.921143
 20
200.451263
 42
-0.414939
  0
VERTEX
  8
0
 10
95.790765
 20
200.244837
 42
-0.044904
  0
VERTEX
  8
0
 10
96.807213
 20
198.200219
 42
-0.042301
  0
VERTEX
  8
0
 10
97.597359
 20
195.523637
 42
-0.056335
  0
VERTEX
  8
0
 10
97.824978
 20
193.000000
 42
0.053595
  0
VERTEX
  8
0
 10
98.087406
 20
189.901240
 42
0.023418
  0
VERTEX
  8
0
 10
99.062878
 20
185.887334
 42
0.022667
  0
VERTEX
  8
0
 10
100.520431
 20
181.639709
 42
0.026312
  0
VERTEX
  8
0
 10
102.295602
 20
177.753599
 42
0.031909
  0
VERTEX
  8
0
 10
103.850763
 20
175.187803
 42
0.103817
  0
VERTEX
  8
0
 10
105.290835
 20
173.832168
 42
0.069358
  0
VERTEX
  8
0
 10
107.456176
 20
172.891514
 42
0.009161
  0
VERTEX
  8
0
 10
112.311027
 20
171.636333
 42
0.006097
  0
VERTEX
  8
0
 10
115.330153
 20
170.953313
 42
0.009555
  0
VERTEX
  8
0
 10
117.943599
 20
170.447491
 42
0.004184
  0
VERTEX
  8
0
 10
120.157576
 20
170.081777
 42
0.239619
  0
VERTEX
  8
0
 10
120.539607
 20
170.206274
 42
0.275179
  0
VERTEX
  8
0
 10
120.888062
 20
171.580482
 42
0.006933
  0
VERTEX
  8
0
 10
118.893027
 20
177.971087
 42
0.014328
  0
VERTEX
  8
0
 10
116.690431
 20
184.097896
 42
0.052483
  0
VERTEX
  8
0
 10
114.793283
 20
187.754134
 42
-0.002060
  0
VERTEX
  8
0
 10
113.724338
 20
189.387878
 42
-0.001529
  0
VERTEX
  8
0
 10
112.556270
 20
191.201396
 42
-0.001545
  0
VERTEX
  8
0
 10
111.464365
 20
192.919780
 42
-0.003490
  0
VERTEX
  8
0
 10
110.650629
 20
194.229342
 42
0.063427
  0
VERTEX
  8
0
 10
109.695435
 20
195.421002
 42
0.027261
  0
VERTEX
  8
0
 10
108.152350
 20
196.757850
 42
0.026438
  0
VERTEX
  8
0
 10
106.332103
 20
198.020693
 42
0.031563
  0
VERTEX
  8
0
 10
104.490482
 20
199.004336
 42
-0.016195
  0
VERTEX
  8
0
 10
102.770107
 20
199.856370
 42
-0.023630
  0
VERTEX
  8
0
 10
101.319079
 20
200.725150
 42
-0.020755
  0
VERTEX
  8
0
 10
100.228522
 20
201.517364
 42
-0.229151
  0
VERTEX
  8
0
 10
100.000000
 20
201.989810
 42
-0.224694
  0
VERTEX
  8
0
 10
100.451918
 20
202.944666
 42
-0.051082
  0
VERTEX
  8
0
 10
101.985743
 20
203.959754
 42
-0.049723
  0
VERTEX
  8
0
 10
103.918513
 20
204.738876
 42
-0.071075
  0
VERTEX
  8
0
 10
105.746200
 20
205.000000
 42
-0.174269
  0
VERTEX
  8
0
 10
107.244266
 20
204.461515
 42
-0.029881
  0
VERTEX
  8
0
 10
109.492303
 20
202.367723
 42
-0.030363
  0
VERTEX
  8
0
 10
111.477427
 20
200.013092
 42
-0.161315
  0
VERTEX
  8
0
 10
112.000000
 20
198.435517
 42
0.126297
  0
VERTEX
  8
0
 10
112.106453
 20
198.020802
 42
0.006021
  0
VERTEX
  8
0
 10
112.818117
 20
196.762054
 42
0.009551
  0
VERTEX
  8
0
 10
113.718079
 20
195.279959
 42
0.006702
  0
VERTEX
  8
0
 10
114.785079
 20
193.645025
 42
-0.019728
  0
VERTEX
  8
0
 10
116.751423
 20
190.453415
 42
-0.024356
  0
VERTEX
  8
0
 10
118.314988
 20
187.329191
 42
-0.025380
  0
VERTEX
  8
0
 10
119.515607
 20
184.183151
 42
-0.025264
  0
VERTEX
  8
0
 10
120.393370
 20
180.926897
 42
0.044641
  0
VERTEX
  8
0
 10
120.782313
 20
179.678439
 42
0.016438
  0
VERTEX
  8
0
 10
121.542340
 20
177.995114
 42
0.016141
  0
VERTEX
  8
0
 10
122.497578
 20
176.201018
 42
0.018676
  0
VERTEX
  8
0
 10
123.524079
 20
174.559655
 42
-0.007888
  0
VERTEX
  8
0
 10
124.489685
 20
173.087292
 42
-0.012940
  0
VERTEX
  8
0
 10
125.254555
 20
171.807826
 42
-0.006555
  0
VERTEX
  8
0
 10
125.842076
 20
170.731904
 42
-0.356562
  0
VERTEX
  8
0
 10
125.799425
 20
170.519663
 42
-0.080218
  0
VERTEX
  8
0
 10
125.570585
 20
170.386388
 42
-0.003538
  0
VERTEX
  8
0
 10
124.706706
 20
170.061022
 42
-0.005906
  0
VERTEX
  8
0
 10
123.671086
 20
169.693151
 42
-0.004177
  0
VERTEX
  8
0
 10
122.500000
 20
169.303571
 42
0.038900
  0
VERTEX
  8
0
 10
120.897791
 20
168.643935
 42
0.126334
  0
VERTEX
  8
0
 10
120.040505
 20
167.892564
 42
0.118372
  0
VERTEX
  8
0
 10
119.620597
 20
166.790902
 42
0.032139
  0
VERTEX
  8
0
 10
119.500000
 20
164.916667
 42
0.025662
  0
VERTEX
  8
0
 10
119.601696
 20
162.936530
 42
0.152000
  0
VERTEX
  8
0
 10
120.004878
 20
161.994279
 42
0.162844
  0
VERTEX
  8
0
 10
120.856053
 20
161.481818
 42
0.030623
  0
VERTEX
  8
0
 10
122.675529
 20
161.192196
 42
-0.053129
  0
VERTEX
  8
0
 10
125.648252
 20
160.580964
 42
-0.220818
  0
VERTEX
  8
0
 10
126.961506
 20
159.373132
 42
-0.196069
  0
VERTEX
  8
0
 10
126.971569
 20
157.475689
 42
-0.041772
  0
VERTEX
  8
0
 10
125.460179
 20
154.466237
 42
0.016095
  0
VERTEX
  8
0
 10
121.932179
 20
148.257388
 42
0.033647
  0
VERTEX
  8
0
 10
119.680576
 20
143.178203
 42
0.041936
  0
VERTEX
  8
0
 10
118.448591
 20
138.659580
 42
0.048698
  0
VERTEX
  8
0
 10
118.070285
 20
134.221487
 42
0.009604
  0
VERTEX
  8
0
 10
118.262835
 20
128.109020
 42
0.180333
  0
VERTEX
  8
0
 10
119.012003
 20
126.373612
 42
0.655801
  0
VERTEX
  8
0
 10
119.747898
 20
126.645949
 42
0.011609
  0
VERTEX
  8
0
 10
119.929715
 20
132.282119
 42
-0.024063
  0
VERTEX
  8
0
 10
120.246749
 20
137.823732
 42
-0.045062
  0
VERTEX
  8
0
 10
121.117491
 20
142.224791
 42
-0.048804
  0
VERTEX
  8
0
 10
122.703114
 20
146.161279
 42
-0.034043
  0
VERTEX
  8
0
 10
125.201321
 20
150.249608
 42
0.005410
  0
VERTEX
  8
0
 10
126.160766
 20
151.634862
 42
0.004675
  0
VERTEX
  8
0
 10
127.138610
 20
153.109350
 42
0.004709
  0
VERTEX
  8
0
 10
127.999958
 20
154.462642
 42
0.013634
  0
VERTEX
  8
0
 10
128.561363
 20
155.420520
 42
-0.173554
  0
VERTEX
  8
0
 10
129.782545
 20
156.500788
 42
-0.062838
  0
VERTEX
  8
0
 10
132.055983
 20
157.093537
 42
-0.024323
  0
VERTEX
  8
0
 10
136.267757
 20
157.435025
 42
-0.002611
  0
VERTEX
  8
0
 10
146.058852
 20
157.699886
 42
0.003371
  0
VERTEX
  8
0
 10
156.183481
 20
157.989172
 42
0.026161
  0
VERTEX
  8
0
 10
160.894058
 20
158.402960
 42
0.049448
  0
VERTEX
  8
0
 10
164.242999
 20
159.218042
 42
0.031876
  0
VERTEX
  8
0
 10
167.922640
 20
160.779365
 42
0.042876
  0
VERTEX
  8
0
 10
172.303992
 20
163.469942
 42
0.016640
  0
VERTEX
  8
0
 10
177.889162
 20
167.892066
 42
0.009565
  0
VERTEX
  8
0
 10
183.188195
 20
172.559448
 42
0.210416
  0
VERTEX
  8
0
 10
184.000000
 20
174.403089
 42
-0.133217
  0
VERTEX
  8
0
 10
184.141292
 20
174.923983
 42
-0.007274
  0
VERTEX
  8
0
 10
185.028125
 20
176.389126
 42
-0.010888
  0
VERTEX
  8
0
 10
186.159166
 20
178.113122
 42
-0.007708
  0
VERTEX
  8
0
 10
187.500000
 20
180.000000
 42
0.008121
  0
VERTEX
  8
0
 10
188.840780
 20
181.890112
 42
0.011373
  0
VERTEX
  8
0
 10
189.971875
 20
183.624099
 42
0.007860
  0
VERTEX
  8
0
 10
190.853990
 20
185.097251
 42
0.131707
  0
VERTEX
  8
0
 10
191.000000
 20
185.641934
 42
-0.116775
  0
VERTEX
  8
0
 10
191.304456
 20
186.927753
 42
-0.004206
  0
VERTEX
  8
0
 10
193.624008
 20
191.455828
 42
-0.004519
  0
VERTEX
  8
0
 10
196.008482
 20
195.917050
 42
-0.105471
  0
VERTEX
  8
0
 10
196.939421
 20
197.000000
 42
0.058445
  0
VERTEX
  8
0
 10
197.309515
 20
197.356955
 42
0.005994
  0
VERTEX
  8
0
 10
198.070171
 20
198.307813
 42
0.007412
  0
VERTEX
  8
0
 10
198.948993
 20
199.468874
 42
0.005853
  0
VERTEX
  8
0
 10
199.866274
 20
200.750000
 42
-0.029845
  0
VERTEX
  8
0
 10
201.453909
 20
202.756634
 42
-0.084246
  0
VERTEX
  8
0
 10
202.846339
 20
203.868162
 42
-0.436678
  0
VERTEX
  8
0
 10
203.443051
 20
203.671839
 42
-0.197715
  0
VERTEX
  8
0
 10
203.479120
 20
202.750000
 42
0.154236
  0
VERTEX
  8
0
 10
203.415222
 20
201.338150
 42
0.148498
  0
VERTEX
  8
0
 10
204.171019
 20
200.120967
 42
0.081520
  0
VERTEX
  8
0
 10
205.939894
 20
199.017877
 42
0.023073
  0
VERTEX
  8
0
 10
209.000000
 20
197.905070
 42
-0.086439
  0
VERTEX
  8
0
 10
212.787655
 20
195.956725
 42
-0.255668
  0
VERTEX
  8
0
 10
213.947302
 20
193.378246
 42
-0.126352
  0
VERTEX
  8
0
 10
212.640004
 20
189.553442
 42
-0.018129
  0
VERTEX
  8
0
 10
207.816130
 20
182.753026
 42
-0.000836
  0
VERTEX
  8
0
 10
205.359400
 20
179.554020
 42
-0.001264
  0
VERTEX
  8
0
 10
203.208488
 20
176.777451
 42
-0.000476
  0
VERTEX
  8
0
 10
201.349686
 20
174.395126
 42
-0.030476
  0
VERTEX
  8
0
 10
201.000000
 20
174.000000
 42
0.085373
  0
VERTEX
  8
0
 10
199.891365
 20
172.430771
 42
0.003869
  0
VERTEX
  8
0
 10
197.091810
 20
166.437431
 42
0.005517
  0
VERTEX
  8
0
 10
194.473905
 20
160.547066
 42
0.047262
  0
VERTEX
  8
0
 10
193.587322
 20
157.805128
 42
0.019970
  0
VERTEX
  8
0
 10
193.296238
 20
156.190311
 42
0.002919
  0
VERTEX
  8
0
 10
192.855915
 20
152.888374
 42
0.003296
  0
VERTEX
  8
0
 10
192.383700
 20
148.976814
 42
0.002822
  0
VERTEX
  8
0
 10
191.936824
 20
144.851531
 42
-0.031173
  0
VERTEX
  8
0
 10
190.182256
 20
134.287607
 42
-0.026994
  0
VERTEX
  8
0
 10
187.067250
 20
123.491005
 42
-0.025379
  0
VERTEX
  8
0
 10
183.354204
 20
114.344057
 42
-0.131609
  0
VERTEX
  8
0
 10
179.880505
 20
110.203749
 42
0.028678
  0
VERTEX
  8
0
 10
178.896521
 20
109.426818
 42
0.008066
  0
VERTEX
  8
0
 10
177.453506
 20
108.104378
 42
0.008104
  0
VERTEX
  8
0
 10
175.867768
 20
106.553876
 42
0.008461
  0
VERTEX
  8
0
 10
174.356115
 20
104.974539
 42
-0.029829
  0
VERTEX
  8
0
 10
172.735053
 20
103.419629
 42
-0.027955
  0
VERTEX
  8
0
 10
170.906300
 20
102.032185
 42
-0.029365
  0
VERTEX
  8
0
 10
169.116451
 20
100.972812
 42
-0.066992
  0
VERTEX
  8
0
 10
167.640663
 20
100.447567
 42
0.027273
  0
VERTEX
  8
0
 10
166.221316
 20
100.065921
 42
0.015293
  0
VERTEX
  8
0
 10
164.541320
 20
99.456874
 42
0.015225
  0
VERTEX
  8
0
 10
162.876912
 20
98.735795
 42
0.023926
  0
VERTEX
  8
0
 10
161.500000
 20
98.006458
 42
-0.037807
  0
VERTEX
  8
0
 10
159.885921
 20
97.208010
 42
-0.011622
  0
VERTEX
  8
0
 10
157.341756
 20
96.248755
 42
-0.011556
  0
VERTEX
  8
0
 10
154.435208
 20
95.304212
 42
-0.012423
  0
VERTEX
  8
0
 10
151.557043
 20
94.519265
 42
0.017710
  0
VERTEX
  8
0
 10
148.644118
 20
93.691658
 42
0.015061
  0
VERTEX
  8
0
 10
145.633065
 20
92.618545
 42
0.015323
  0
VERTEX
  8
0
 10
142.950212
 20
91.474369
 42
0.040793
  0
VERTEX
  8
0
 10
141.139993
 20
90.449159
 42
-0.027387
  0
VERTEX
  8
0
 10
138.803272
 20
89.041825
 42
-0.120277
  0
VERTEX
  8
0
 10
137.253696
 20
88.649582
 42
-0.262540
  0
VERTEX
  8
0
 10
136.357150
 20
89.145175
 42
-0.138967
  0
VERTEX
  8
0
 10
136.000000
 20
90.405379
 42
0.098799
  0
VERTEX
  8
0
 10
135.623213
 20
92.293599
 42
0.026084
  0
VERTEX
  8
0
 10
134.288470
 20
95.084655
 42
0.028657
  0
VERTEX
  8
0
 10
132.870118
 20
97.369608
 42
0.615522
  0
VERTEX
  8
0
 10
132.260063
 20
97.280190
 42
0.122479
  0
VERTEX
  8
0
 10
132.210590
 20
96.647247
 42
0.027583
  0
VERTEX
  8
0
 10
132.449070
 20
95.585235
 42
0.027006
  0
VERTEX
  8
0
 10
132.869867
 20
94.356882
 42
0.023307
  0
VERTEX
  8
0
 10
133.439264
 20
93.117451
 42
-0.007174
  0
VERTEX
  8
0
 10
134.037059
 20
91.919626
 42
-0.009655
  0
VERTEX
  8
0
 10
134.541534
 20
90.817444
 42
-0.007107
  0
VERTEX
  8
0
 10
134.930291
 20
89.886865
 42
-0.095667
  0
VERTEX
  8
0
 10
135.000000
 20
89.525868
 42
-0.594263
  0
VERTEX
  8
0
 10
134.821091
 20
89.428498
 42
-0.003542
  0
VERTEX
  8
0
 10
132.870313
 20
90.709518
 42
-0.008423
  0
VERTEX
  8
0
 10
130.531049
 20
92.327056
 42
-0.004770
  0
VERTEX
  8
0
 10
127.750000
 20
94.360585
 42
0.006744
  0
VERTEX
  8
0
 10
124.717573
 20
96.559605
 42
0.006576
  0
VERTEX
  8
0
 10
121.601562
 20
98.694942
 42
0.006504
  0
VERTEX
  8
0
 10
118.816072
 20
100.498556
 42
0.024345
  0
VERTEX
  8
0
 10
117.000000
 20
101.521392
 42
-0.018031
  0
VERTEX
  8
0
 10
115.398246
 20
102.397076
 42
-0.009315
  0
VERTEX
  8
0
 10
113.457728
 20
103.600194
 42
-0.009247
  0
VERTEX
  8
0
 10
111.506141
 20
104.912882
 42
-0.013837
  0
VERTEX
  8
0
 10
109.856096
 20
106.137015
 42
0.011946
  0
VERTEX
  8
0
 10
108.389784
 20
107.233460
 42
0.015685
  0
VERTEX
  8
0
 10
106.997870
 20
108.158998
 42
0.013178
  0
VERTEX
  8
0
 10
105.807409
 20
108.855046
 42
0.126348
  0
VERTEX
  8
0
 10
105.242938
 20
109.000000
 42
-0.213041
  0
VERTEX
  8
0
 10
103.045984
 20
109.980590
 42
-0.015490
  0
VERTEX
  8
0
 10
98.668429
 20
115.175639
 42
-0.022320
  0
VERTEX
  8
0
 10
94.400768
 20
121.095804
 42
-0.036804
  0
VERTEX
  8
0
 10
91.410534
 20
126.487265
 42
-0.014028
  0
VERTEX
  8
0
 10
89.618933
 20
130.669225
 42
-0.036103
  0
VERTEX
  8
0
 10
88.633702
 20
133.803879
 42
-0.039079
  0
VERTEX
  8
0
 10
88.152311
 20
136.900295
 42
-0.019031
  0
VERTEX
  8
0
 10
88.000000
 20
140.900533
 42
-0.024900
  0
VERTEX
  8
0
 10
88.236494
 20
145.646499
 42
-0.044252
  0
VERTEX
  8
0
 10
88.967561
 20
149.488702
 42
-0.037065
  0
VERTEX
  8
0
 10
90.461323
 20
153.573684
 42
-0.012587
  0
VERTEX
  8
0
 10
93.212582
 20
159.271610
 42
0.024496
  0
VERTEX
  8
0
 10
94.717217
 20
162.587092
 42
0.207306
  0
VERTEX
  8
0
 10
94.666345
 20
164.187483
 42
0.554027
  0
VERTEX
  8
0
 10
93.811180
 20
164.289157
 42
0.034643
  0
VERTEX
  8
0
 10
92.043995
 20
161.750000
 42
-0.025019
  0
VERTEX
  8
0
 10
90.484661
 20
159.414975
 42
-0.092401
  0
VERTEX
  8
0
 10
89.189977
 20
158.214394
 42
-0.340308
  0
VERTEX
  8
0
 10
88.395419
 20
158.288185
 42
-0.208485
  0
VERTEX
  8
0
 10
88.000000
 20
159.195281
 42
0.123005
  0
VERTEX
  8
0
 10
87.843326
 20
159.822505
 42
0.024050
  0
VERTEX
  8
0
 10
87.242633
 20
160.829969
 42
0.024211
  0
VERTEX
  8
0
 10
86.408763
 20
161.963722
 42
0.020357
  0
VERTEX
  8
0
 10
85.421730
 20
163.081697
 42
0.000000
  0
VERTEX
  8
0
 10
82.843459
 20
165.772831
 42
0.000000
  0
VERTEX
  8
0
 10
85.009740
 20
170.019092
 42
0.000000
  0
VERTEX
  8
0
 10
87.176020
 20
174.265352
 42
0.000000
  0
VERTEX
  8
0
 10
85.088010
 20
179.721660
 42
-0.010131
  0
VERTEX
  8
0
 10
83.261789
 20
184.799776
 42
-0.123619
  0
VERTEX
  8
0
 10
83.100074
 20
186.843260
 42
-0.322153
  0
VERTEX
  8
0
 10
84.032144
 20
187.766187
 42
-0.068451
  0
VERTEX
  8
0
 10
86.452584
 20
187.815742
 42
0.022279
  0
VERTEX
  8
0
 10
88.624380
 20
187.659827
 42
0.201530
  0
VERTEX
  8
0
 10
89.492636
 20
187.997207
 42
0.168201
  0
VERTEX
  8
0
 10
89.944358
 20
188.888324
 42
0.014578
  0
VERTEX
  8
0
 10
90.219485
 20
191.456336
 42
0.000000
  0
VERTEX
  8
0
 10
90.533802
 20
195.500000
 42
0.000000
  0
VERTEX
  8
0
 10
91.927416
 20
192.750000
 42
0.038469
  0
VERTEX
  8
0
 10
92.949314
 20
191.067986
 42
0.104533
  0
VERTEX
  8
0
 10
93.974031
 20
190.133009
 42
0.322882
  0
VERTEX
  8
0
 10
94.660641
 20
190.197258
 42
0.216507
  0
VERTEX
  8
0
 10
95.000000
 20
190.944236
 42
0.171867
  0
VERTEX
  8
0
 10
94.280464
 20
192.975692
 42
0.059880
  0
VERTEX
  8
0
 10
92.020386
 20
195.168801
 42
0.054849
  0
VERTEX
  8
0
 10
88.933278
 20
197.024152
 42
0.061797
  0
VERTEX
  8
0
 10
85.636497
 20
198.073401
 42
0.039579
  0
VERTEX
  8
0
 10
81.777102
 20
198.482379
 42
0.112052
  0
VERTEX
  8
0
 10
79.136771
 20
197.956185
 42
0.128872
  0
VERTEX
  8
0
 10
77.200594
 20
196.402548
 42
0.060691
  0
VERTEX
  8
0
 10
75.603932
 20
193.594502
 42
0.070256
  0
VERTEX
  8
0
 10
74.763464
 20
190.376873
 42
0.010700
  0
VERTEX
  8
0
 10
74.140360
 20
183.754763
 42
0.012650
  0
VERTEX
  8
0
 10
73.794361
 20
176.417378
 42
0.016893
  0
VERTEX
  8
0
 10
73.874114
 20
169.750000
 42
0.056661
  0
VERTEX
  8
0
 10
74.196224
 20
167.740544
 42
0.304301
  0
VERTEX
  8
0
 10
74.996014
 20
167.056078
 42
0.375924
  0
VERTEX
  8
0
 10
75.759274
 20
167.580610
 42
0.062464
  0
VERTEX
  8
0
 10
76.000000
 20
169.500000
 42
-0.046036
  0
VERTEX
  8
0
 10
76.088289
 20
170.456893
 42
-0.065972
  0
VERTEX
  8
0
 10
76.352500
 20
171.265625
 42
-0.086035
  0
VERTEX
  8
0
 10
76.741565
 20
171.811563
 42
-0.197505
  0
VERTEX
  8
0
 10
77.200000
 20
172.000000
 42
0.051663
  0
VERTEX
  8
0
 10
77.742599
 20
172.056215
 42
0.354955
  0
VERTEX
  8
0
 10
77.900000
 20
172.250000
 42
0.180052
  0
VERTEX
  8
0
 10
77.777696
 20
172.578624
 42
0.018208
  0
VERTEX
  8
0
 10
77.200000
 20
173.200000
 42
-0.183531
  0
VERTEX
  8
0
 10
76.008949
 20
175.850157
 42
-0.026546
  0
VERTEX
  8
0
 10
75.971105
 20
181.879895
 42
-0.030749
  0
VERTEX
  8
0
 10
76.657186
 20
188.191144
 42
-0.070386
  0
VERTEX
  8
0
 10
78.115107
 20
192.737779
 42
-0.016495
  0
VERTEX
  8
0
 10
79.480753
 20
195.336614
 42
-0.110071
  0
VERTEX
  8
0
 10
80.455918
 20
196.413056
 42
-0.141883
  0
VERTEX
  8
0
 10
81.682224
 20
196.838006
 42
-0.033762
  0
VERTEX
  8
0
 10
83.865107
 20
196.803503
 42
-0.024653
  0
VERTEX
  8
0
 10
85.952383
 20
196.525098
 42
-0.136338
  0
VERTEX
  8
0
 10
86.961526
 20
196.034011
 42
-0.154412
  0
VERTEX
  8
0
 10
87.506654
 20
195.125602
 42
-0.034389
  0
VERTEX
  8
0
 10
87.808309
 20
193.317707
 42
-0.026770
  0
VERTEX
  8
0
 10
87.889206
 20
191.439884
 42
-0.176332
  0
VERTEX
  8
0
 10
87.563538
 20
190.573488
 42
-0.169040
  0
VERTEX
  8
0
 10
86.748911
 20
190.099183
 42
-0.024155
  0
VERTEX
  8
0
 10
84.808309
 20
189.817707
 42
0.030890
  0
VERTEX
  8
0
 10
82.965840
 20
189.525094
 42
0.138111
  0
VERTEX
  8
0
 10
82.012309
 20
189.011893
 42
0.143305
  0
VERTEX
  8
0
 10
81.485734
 20
188.087697
 42
0.034162
  0
VERTEX
  8
0
 10
81.192130
 20
186.323596
 42
0.055556
  0
VERTEX
  8
0
 10
81.213885
 20
184.810522
 42
0.027553
  0
VERTEX
  8
0
 10
81.558869
 20
182.919706
 42
0.026694
  0
VERTEX
  8
0
 10
82.143668
 20
180.952374
 42
0.032369
  0
VERTEX
  8
0
 10
82.905407
 20
179.185417
 42
-0.015144
  0
VERTEX
  8
0
 10
84.128881
 20
176.596396
 42
-0.101335
  0
VERTEX
  8
0
 10
84.423041
 20
175.210786
 42
-0.100063
  0
VERTEX
  8
0
 10
84.151060
 20
173.813534
 42
-0.014592
  0
VERTEX
  8
0
 10
82.963277
 20
171.160127
 42
0.009259
  0
VERTEX
  8
0
 10
82.211500
 20
169.527632
 42
0.011540
  0
VERTEX
  8
0
 10
81.576713
 20
167.983176
 42
0.009882
  0
VERTEX
  8
0
 10
81.102667
 20
166.672820
 42
0.082023
  0
VERTEX
  8
0
 10
81.000000
 20
166.051187
 42
0.143022
  0
VERTEX
  8
0
 10
81.177126
 20
165.444626
 42
0.013304
  0
VERTEX
  8
0
 10
82.060478
 20
164.139033
 42
0.016257
  0
VERTEX
  8
0
 10
83.227425
 20
162.616535
 42
0.012061
  0
VERTEX
  8
0
 10
84.610137
 20
161.009771
 42
-0.016722
  0
VERTEX
  8
0
 10
86.485639
 20
158.788836
 42
-0.065297
  0
VERTEX
  8
0
 10
87.403487
 20
157.248645
 42
-0.097036
  0
VERTEX
  8
0
 10
87.704839
 20
155.858986
 42
-0.067207
  0
VERTEX
  8
0
 10
87.521194
 20
154.256890
 42
0.039571
  0
VERTEX
  8
0
 10
86.717631
 20
149.554262
 42
0.017454
  0
VERTEX
  8
0
 10
86.369166
 20
143.251911
 42
0.017469
  0
VERTEX
  8
0
 10
86.461506
 20
136.929365
 42
0.038808
  0
VERTEX
  8
0
 10
87.071790
 20
132.154190
 42
0.062137
  0
VERTEX
  8
0
 10
88.947334
 20
126.657136
 42
0.025130
  0
VERTEX
  8
0
 10
92.773989
 20
119.704928
 42
0.024881
  0
VERTEX
  8
0
 10
97.229408
 20
113.236542
 42
0.070678
  0
VERTEX
  8
0
 10
101.124789
 20
109.407934
 42
-0.008041
  0
VERTEX
  8
0
 10
102.410959
 20
108.426700
 42
-0.009683
  0
VERTEX
  8
0
 10
103.586290
 20
107.462254
 42
-0.008513
  0
VERTEX
  8
0
 10
104.542956
 20
106.617159
 42
-0.062413
  0
VERTEX
  8
0
 10
104.938220
 20
106.153139
 42
0.114224
  0
VERTEX
  8
0
 10
105.431028
 20
105.682448
 42
0.005624
  0
VERTEX
  8
0
 10
107.391227
 20
104.550370
 42
0.008859
  0
VERTEX
  8
0
 10
109.777436
 20
103.262939
 42
0.006263
  0
VERTEX
  8
0
 10
112.500000
 20
101.898668
 42
-0.014223
  0
VERTEX
  8
0
 10
115.313494
 20
100.432347
 42
-0.015152
  0
VERTEX
  8
0
 10
117.979133
 20
98.837421
 42
-0.014879
  0
VERTEX
  8
0
 10
120.182581
 20
97.332395
 42
-0.065334
  0
VERTEX
  8
0
 10
121.322580
 20
96.250000
 42
0.024578
  0
VERTEX
  8
0
 10
122.093351
 20
95.388685
 42
0.029456
  0
VERTEX
  8
0
 10
122.902019
 20
94.660937
 42
0.030424
  0
VERTEX
  8
0
 10
123.640245
 20
94.141613
 42
0.138940
  0
VERTEX
  8
0
 10
124.140026
 20
94.000000
 42
-0.144221
  0
VERTEX
  8
0
 10
124.757410
 20
93.818138
 42
-0.007810
  0
VERTEX
  8
0
 10
126.465391
 20
92.678125
 42
-0.011652
  0
VERTEX
  8
0
 10
128.470420
 20
91.223968
 42
-0.008200
  0
VERTEX
  8
0
 10
130.659115
 20
89.500000
 42
0.005889
  0
VERTEX
  8
0
 10
132.827606
 20
87.775642
 42
0.008749
  0
VERTEX
  8
0
 10
134.769908
 20
86.321875
 42
0.004617
  0
VERTEX
  8
0
 10
136.433645
 20
85.144651
 42
0.152813
  0
VERTEX
  8
0
 10
136.895888
 20
85.000000
 42
0.120650
  0
VERTEX
  8
0
 10
137.356833
 20
85.112869
 42
0.005710
  0
VERTEX
  8
0
 10
138.773457
 20
85.871575
 42
0.009111
  0
VERTEX
  8
0
 10
140.442797
 20
86.830349
 42
0.006403
  0
VERTEX
  8
0
 10
142.287010
 20
87.967062
 42
-0.024407
  0
VERTEX
  8
0
 10
144.494184
 20
89.220189
 42
-0.013692
  0
VERTEX
  8
0
 10
147.285369
 20
90.534850
 42
-0.013638
  0
VERTEX
  8
0
 10
150.184235
 20
91.711313
 42
-0.021596
  0
VERTEX
  8
0
 10
152.732791
 20
92.541953
 42
0.010753
  0
VERTEX
  8
0
 10
155.269054
 20
93.308176
 42
0.007269
  0
VERTEX
  8
0
 10
158.127757
 20
94.285535
 42
0.007325
  0
VERTEX
  8
0
 10
160.864588
 20
95.311369
 42
0.014467
  0
VERTEX
  8
0
 10
163.000000
 20
96.219750
 42
-0.000175
  0
VERTEX
  8
0
 10
164.978409
 20
97.128968
 42
-0.000123
  0
VERTEX
  8
0
 10
167.206250
 20
98.151213
 42
-0.000124
  0
VERTEX
  8
0
 10
169.339691
 20
99.128870
 42
-0.000259
  0
VERTEX
  8
0
 10
171.000000
 20
99.888175
 42
0.068246
  0
VERTEX
  8
0
 10
175.278427
 20
102.598586
 42
0.038646
  0
VERTEX
  8
0
 10
179.655438
 20
106.913267
 42
0.034541
  0
VERTEX
  8
0
 10
183.856942
 20
112.483192
 42
0.027531
  0
VERTEX
  8
0
 10
187.611399
 20
119.007826
 42
0.010300
  0
VERTEX
  8
0
 10
189.868902
 20
123.723195
 42
0.030844
  0
VERTEX
  8
0
 10
191.141444
 20
127.061000
 42
0.041066
  0
VERTEX
  8
0
 10
191.790068
 20
129.954967
 42
0.034063
  0
VERTEX
  8
0
 10
192.011869
 20
133.104821
 42
-0.034398
  0
VERTEX
  8
0
 10
192.368980
 20
138.128278
 42
-0.026449
  0
VERTEX
  8
0
 10
193.421853
 20
143.526443
 42
-0.025397
  0
VERTEX
  8
0
 10
195.101717
 20
149.029151
 42
-0.024926
  0
VERTEX
  8
0
 10
197.339816
 20
154.368576
 42
0.003643
  0
VERTEX
  8
0
 10
200.505693
 20
161.102504
 42
0.005576
  0
VERTEX
  8
0
 10
203.141987
 20
166.989489
 42
0.006432
  0
VERTEX
  8
0
 10
205.226562
 20
171.961209
 42
0.014216
  0
VERTEX
  8
0
 10
206.659460
 20
175.817931
 42
-0.022006
  0
VERTEX
  8
0
 10
207.382916
 20
177.675982
 42
-0.018377
  0
VERTEX
  8
0
 10
208.307971
 20
179.580977
 42
-0.018768
  0
VERTEX
  8
0
 10
209.284838
 20
181.262306
 42
-0.047143
  0
VERTEX
  8
0
 10
210.150995
 20
182.382757
 42
0.032097
  0
VERTEX
  8
0
 10
212.714321
 20
185.500413
 42
0.044286
  0
VERTEX
  8
0
 10
214.562412
 20
188.615603
 42
0.051152
  0
VERTEX
  8
0
 10
215.622984
 20
191.569446
 42
0.084979
  0
VERTEX
  8
0
 10
215.815318
 20
194.201370
 42
0.046429
  0
VERTEX
  8
0
 10
215.469845
 20
196.003598
 42
0.118437
  0
VERTEX
  8
0
 10
214.815485
 20
197.151882
 42
0.093830
  0
VERTEX
  8
0
 10
213.608832
 20
198.031573
 42
0.022572
  0
VERTEX
  8
0
 10
211.316398
 20
198.994584
 42
-0.012738
  0
VERTEX
  8
0
 10
207.770629
 20
200.402743
 42
-0.131871
  0
VERTEX
  8
0
 10
206.545614
 20
201.364804
 42
-0.254922
  0
VERTEX
  8
0
 10
206.379937
 20
202.510494
 42
-0.056169
  0
VERTEX
  8
0
 10
207.307767
 20
204.346960
 42
-0.173318
  0
VERTEX
  8
0
 10
210.356642
 20
206.652865
 42
-0.081435
  0
VERTEX
  8
0
 10
215.315349
 20
207.360711
 42
-0.082287
  0
VERTEX
  8
0
 10
220.188715
 20
206.449087
 42
-0.184623
  0
VERTEX
  8
0
 10
222.988233
 20
204.021986
 42
-0.123695
  0
VERTEX
  8
0
 10
224.166282
 20
199.315356
 42
-0.040980
  0
VERTEX
  8
0
 10
223.573113
 20
192.167674
 42
-0.041311
  0
VERTEX
  8
0
 10
221.788275
 20
185.097722
 42
-0.102695
  0
VERTEX
  8
0
 10
219.083172
 20
180.528472
 42
0.042787
  0
VERTEX
  8
0
 10
217.244895
 20
178.128739
 42
0.028273
  0
VERTEX
  8
0
 10
215.543248
 20
175.098208
 42
0.021031
  0
VERTEX
  8
0
 10
214.280310
 20
172.216466
 42
0.297429
  0
VERTEX
  8
0
 10
214.501267
 20
171.165400
 42
0.374172
  0
VERTEX
  8
0
 10
215.116494
 20
171.122691
 42
0.079407
  0
VERTEX
  8
0
 10
215.924266
 20
171.963205
 42
0.020183
  0
VERTEX
  8
0
 10
217.300907
 20
174.126666
 42
0.001360
  0
VERTEX
  8
0
 10
220.961524
 20
180.466832
 42
0.017940
  0
VERTEX
  8
0
 10
222.984369
 20
184.305209
 42
0.057657
  0
VERTEX
  8
0
 10
223.929686
 20
187.029855
 42
0.045529
  0
VERTEX
  8
0
 10
224.339493
 20
190.219678
 42
0.008204
  0
VERTEX
  8
0
 10
224.461524
 20
196.209411
 42
0.016982
  0
VERTEX
  8
0
 10
224.234140
 20
203.787200
 42
0.134198
  0
VERTEX
  8
0
 10
223.103863
 20
207.078878
 42
0.184549
  0
VERTEX
  8
0
 10
220.619651
 20
208.808654
 42
0.038224
  0
VERTEX
  8
0
 10
215.274318
 20
209.708842
 42
0.016942
  0
VERTEX
  8
0
 10
211.839528
 20
209.903283
 42
0.054289
  0
VERTEX
  8
0
 10
209.558232
 20
209.707059
 42
0.059958
  0
VERTEX
  8
0
 10
207.495967
 20
209.037245
 42
0.024072
  0
VERTEX
  8
0
 10
204.864260
 20
207.660603
 42
0.064601
  0
VERTEX
  8
0
 10
201.242742
 20
204.855068
 42
0.031064
  0
VERTEX
  8
0
 10
197.359817
 20
200.432836
 42
0.026804
  0
VERTEX
  8
0
 10
193.385182
 20
194.683158
 42
0.018278
  0
VERTEX
  8
0
 10
189.472422
 20
187.764631
 42
-0.000955
  0
VERTEX
  8
0
 10
188.223510
 20
185.366053
 42
-0.000876
  0
VERTEX
  8
0
 10
186.928967
 20
182.901917
 42
-0.000875
  0
VERTEX
  8
0
 10
185.766060
 20
180.707051
 42
-0.002880
  0
VERTEX
  8
0
 10
184.987893
 20
179.264631
 42
-0.055608
  0
VERTEX
  8
0
 10
182.574864
 20
175.823837
 42
-0.013411
  0
VERTEX
  8
0
 10
177.825811
 20
170.721162
 42
-0.007659
  0
VERTEX
  8
0
 10
172.754484
 20
165.712923
 42
-0.193311
  0
VERTEX
  8
0
 10
170.979407
 20
165.000000
 42
0.078623
  0
VERTEX
  8
0
 10
170.360885
 20
164.902135
 42
0.033669
  0
VERTEX
  8
0
 10
169.582042
 20
164.590008
 42
0.032263
  0
VERTEX
  8
0
 10
168.780353
 20
164.138440
 42
0.036633
  0
VERTEX
  8
0
 10
168.078741
 20
163.604284
 42
-0.116419
  0
VERTEX
  8
0
 10
162.679378
 20
160.709403
 42
-0.054623
  0
VERTEX
  8
0
 10
154.798743
 20
159.508542
 42
-0.055583
  0
VERTEX
  8
0
 10
147.451287
 20
160.016115
 42
-0.245577
  0
VERTEX
  8
0
 10
144.138098
 20
162.596253
 42
-0.029393
  0
VERTEX
  8
0
 10
143.691936
 20
163.750817
 42
-0.089782
  0
VERTEX
  8
0
 10
143.582734
 20
164.580271
 42
-0.133517
  0
VERTEX
  8
0
 10
143.784471
 20
165.202239
 42
-0.106798
  0
VERTEX
  8
0
 10
144.287710
 20
165.698977
 42
-0.030496
  0
VERTEX
  8
0
 10
147.156153
 20
167.285195
 42
-0.012553
  0
VERTEX
  8
0
 10
151.215654
 20
169.093472
 42
-0.009420
  0
VERTEX
  8
0
 10
155.229600
 20
170.673995
 42
-0.089305
  0
VERTEX
  8
0
 10
157.040280
 20
171.000000
 42
0.049270
  0
VERTEX
  8
0
 10
157.790601
 20
171.074116
 42
0.047340
  0
VERTEX
  8
0
 10
158.522518
 20
171.293750
 42
0.051081
  0
VERTEX
  8
0
 10
159.130433
 20
171.616610
 42
0.107141
  0
VERTEX
  8
0
 10
159.500000
 20
172.000000
 42
-0.124071
  0
VERTEX
  8
0
 10
159.895889
 20
172.384143
 42
-0.047276
  0
VERTEX
  8
0
 10
160.600126
 20
172.706250
 42
-0.043123
  0
VERTEX
  8
0
 10
161.467141
 20
172.926070
 42
-0.040550
  0
VERTEX
  8
0
 10
162.377232
 20
173.000000
 42
0.090421
  0
VERTEX
  8
0
 10
163.520819
 20
173.208514
 42
0.025314
  0
VERTEX
  8
0
 10
165.193328
 20
173.938070
 42
0.024657
  0
VERTEX
  8
0
 10
167.034854
 20
174.971154
 42
0.023687
  0
VERTEX
  8
0
 10
168.791452
 20
176.193430
 42
0.011671
  0
VERTEX
  8
0
 10
171.724872
 20
178.558893
 42
0.157680
  0
VERTEX
  8
0
 10
172.442854
 20
179.714207
 42
0.667219
  0
VERTEX
  8
0
 10
172.023862
 20
180.024405
 42
0.016604
  0
VERTEX
  8
0
 10
169.307575
 20
178.273057
 42
-0.002929
  0
VERTEX
  8
0
 10
168.147503
 20
177.479362
 42
-0.002970
  0
VERTEX
  8
0
 10
166.983537
 20
176.703005
 42
-0.002890
  0
VERTEX
  8
0
 10
165.962957
 20
176.039433
 42
-0.012156
  0
VERTEX
  8
0
 10
165.338508
 20
175.659650
 42
-0.731241
  0
VERTEX
  8
0
 10
165.162816
 20
175.820287
 42
-0.016954
  0
VERTEX
  8
0
 10
165.917422
 20
177.318631
 42
-0.013610
  0
VERTEX
  8
0
 10
167.192366
 20
179.506294
 42
-0.006532
  0
VERTEX
  8
0
 10
168.940312
 20
182.245684
 42
0.013570
  0
VERTEX
  8
0
 10
170.884680
 20
185.389629
 42
0.011221
  0
VERTEX
  8
0
 10
172.787867
 20
188.838106
 42
0.011380
  0
VERTEX
  8
0
 10
174.390931
 20
192.081065
 42
0.029607
  0
VERTEX
  8
0
 10
175.349487
 20
194.501060
 42
-0.030393
  0
VERTEX
  8
0
 10
176.190787
 20
196.615322
 42
-0.022766
  0
VERTEX
  8
0
 10
177.359514
 20
198.833081
 42
-0.023198
  0
VERTEX
  8
0
 10
178.656725
 20
200.826437
 42
-0.047781
  0
VERTEX
  8
0
 10
179.880901
 20
202.225603
 42
0.062893
  0
VERTEX
  8
0
 10
182.142283
 20
204.973039
 42
0.016136
  0
VERTEX
  8
0
 10
185.060102
 20
209.944154
 42
0.017175
  0
VERTEX
  8
0
 10
187.766338
 20
215.349766
 42
0.033198
  0
VERTEX
  8
0
 10
189.484882
 20
219.868313
 42
0.118758
  0
VERTEX
  8
0
 10
189.585829
 20
221.530516
 42
0.595203
  0
VERTEX
  8
0
 10
188.909603
 20
221.755568
 42
0.077553
  0
VERTEX
  8
0
 10
187.274641
 20
219.664129
 42
0.027198
  0
VERTEX
  8
0
 10
185.596138
 20
216.227423
 42
-0.036213
  0
VERTEX
  8
0
 10
183.196484
 20
211.530618
 42
-0.058141
  0
VERTEX
  8
0
 10
180.438416
 20
207.983366
 42
-0.072777
  0
VERTEX
  8
0
 10
177.500551
 20
205.757103
 42
-0.126459
  0
VERTEX
  8
0
 10
174.554952
 20
205.000000
 42
0.084939
  0
VERTEX
  8
0
 10
171.796160
 20
204.527939
 42
0.020145
  0
VERTEX
  8
0
 10
167.446168
 20
202.794399
 42
0.021616
  0
VERTEX
  8
0
 10
163.085013
 20
200.618788
 42
0.047003
  0
VERTEX
  8
0
 10
160.000000
 20
198.508681
 42
-0.050278
  0
VERTEX
  8
0
 10
159.339281
 20
198.063068
 42
-0.048766
  0
VERTEX
  8
0
 10
158.596250
 20
197.752908
 42
-0.052808
  0
VERTEX
  8
0
 10
157.885339
 20
197.614368
 42
-0.109487
  0
VERTEX
  8
0
 10
157.327661
 20
197.687934
 42
0.303698
  0
VERTEX
  8
0
 10
156.673793
 20
197.527625
 42
0.017437
  0
VERTEX
  8
0
 10
155.263581
 20
195.872953
 42
0.021791
  0
VERTEX
  8
0
 10
153.644878
 20
193.640503
 42
0.013798
  0
VERTEX
  8
0
 10
151.947272
 20
190.909717
 42
-0.004752
  0
VERTEX
  8
0
 10
147.872022
 20
184.081779
 42
-0.017158
  0
VERTEX
  8
0
 10
145.088241
 20
179.850539
 42
-0.090597
  0
VERTEX
  8
0
 10
143.915160
 20
178.704208
 42
-0.703875
  0
VERTEX
  8
0
 10
143.512424
 20
179.000000
 42
-0.024870
  0
VERTEX
  8
0
 10
143.943254
 20
180.221611
 42
-0.009395
  0
VERTEX
  8
0
 10
144.661260
 20
181.884623
 42
-0.009279
  0
VERTEX
  8
0
 10
145.511429
 20
183.667666
 42
-0.011175
  0
VERTEX
  8
0
 10
146.378311
 20
185.309356
 42
0.000953
  0
VERTEX
  8
0
 10
147.352055
 20
187.065516
 42
0.000528
  0
VERTEX
  8
0
 10
148.534484
 20
189.213013
 42
0.000526
  0
VERTEX
  8
0
 10
149.727798
 20
191.391129
 42
0.000848
  0
VERTEX
  8
0
 10
150.739083
 20
193.249093
 42
-0.035565
  0
VERTEX
  8
0
 10
155.663042
 20
200.967475
 42
-0.024805
  0
VERTEX
  8
0
 10
162.229081
 20
208.946454
 42
-0.025022
  0
VERTEX
  8
0
 10
169.429706
 20
216.106950
 42
-0.041006
  0
VERTEX
  8
0
 10
176.269417
 20
221.313057
 42
-0.003640
  0
VERTEX
  8
0
 10
178.516399
 20
222.726055
 42
-0.005545
  0
VERTEX
  8
0
 10
180.489738
 20
223.916960
 42
-0.002235
  0
VERTEX
  8
0
 10
182.191395
 20
224.908121
 42
-0.131490
  0
VERTEX
  8
0
 10
182.534731
 20
225.000000
 42
0.158294
  0
VERTEX
  8
0
 10
183.536697
 20
225.325364
 42
0.001284
  0
VERTEX
  8
0
 10
190.343768
 20
230.294080
 42
0.001490
  0
VERTEX
  8
0
 10
197.066931
 20
235.258954
 42
0.131872
  0
VERTEX
  8
0
 10
197.833333
 20
236.227310
 42
-0.202492
  0
VERTEX
  8
0
 10
198.455157
 20
236.823007
 42
-0.118468
  0
VERTEX
  8
0
 10
199.494654
 20
236.957350
 42
-0.092038
  0
VERTEX
  8
0
 10
200.712483
 20
236.592780
 42
-0.077900
  0
SEQEND
  0
POLYLINE
  8
0
 66
1
 70
1
  0
VERTEX
  8
0
 10
110.093782
 20
223.250000
 42
0.009183
  0
VERTEX
  8
0
 10
111.142462
 20
221.157354
 42
0.006069
  0
VERTEX
  8
0
 10
112.420237
 20
218.790636
 42
0.006108
  0
VERTEX
  8
0
 10
113.718750
 20
216.519594
 42
0.011774
  0
VERTEX
  8
0
 10
114.822889
 20
214.739400
 42
-0.042040
  0
VERTEX
  8
0
 10
116.120058
 20
212.334639
 42
-0.050076
  0
VERTEX
  8
0
 10
116.907414
 20
209.881584
 42
-0.033290
  0
VERTEX
  8
0
 10
117.381285
 20
206.612619
 42
-0.008378
  0
VERTEX
  8
0
 10
117.707554
 20
201.239400
 42
0.000000
  0
VERTEX
  8
0
 10
118.135307
 20
191.500000
 42
0.000000
  0
VERTEX
  8
0
 10
115.207070
 20
196.023056
 42
-0.016273
  0
VERTEX
  8
0
 10
112.923453
 20
199.815456
 42
-0.040469
  0
VERTEX
  8
0
 10
111.578407
 20
202.759390
 42
-0.136219
  0
VERTEX
  8
0
 10
111.469724
 20
204.169904
 42
-0.512404
  0
VERTEX
  8
0
 10
112.142866
 20
204.478525
 42
0.007679
  0
VERTEX
  8
0
 10
112.821199
 20
204.106360
 42
0.386337
  0
VERTEX
  8
0
 10
112.956875
 20
204.141134
 42
0.336198
  0
VERTEX
  8
0
 10
112.946864
 20
204.292364
 42
0.007014
  0
VERTEX
  8
0
 10
112.413693
 20
204.889602
 42
0.135920
  0
VERTEX
  8
0
 10
110.422106
 20
206.132135
 42
0.056150
  0
VERTEX
  8
0
 10
107.266712
 20
206.691447
 42
0.054045
  0
VERTEX
  8
0
 10
103.831139
 20
206.537655
 42
0.077661
  0
VERTEX
  8
0
 10
100.933485
 20
205.616704
 42
-0.003443
  0
VERTEX
  8
0
 10
99.669894
 20
204.997171
 42
-0.005149
  0
VERTEX
  8
0
 10
98.556699
 20
204.474907
 42
-0.002302
  0
VERTEX
  8
0
 10
97.602758
 20
204.044583
 42
-0.105176
  0
VERTEX
  8
0
 10
97.393156
 20
204.000000
 42
-0.293380
  0
VERTEX
  8
0
 10
97.060699
 20
204.213444
 42
-0.001094
  0
VERTEX
  8
0
 10
95.072878
 20
208.580966
 42
-0.002311
  0
VERTEX
  8
0
 10
93.195569
 20
212.781316
 42
-0.104297
  0
VERTEX
  8
0
 10
93.000000
 20
213.708678
 42
-0.531916
  0
VERTEX
  8
0
 10
93.144221
 20
213.805888
 42
-0.010717
  0
VERTEX
  8
0
 10
94.101562
 20
213.394285
 42
-0.015374
  0
VERTEX
  8
0
 10
95.311378
 20
212.797547
 42
-0.008546
  0
VERTEX
  8
0
 10
96.750000
 20
212.000252
 42
0.000000
  0
VERTEX
  8
0
 10
100.500000
 20
209.837385
 42
0.000000
  0
VERTEX
  8
0
 10
96.548896
 20
213.448510
 42
0.017374
  0
VERTEX
  8
0
 10
94.958992
 20
214.803309
 42
0.024725
  0
VERTEX
  8
0
 10
93.450315
 20
215.883884
 42
0.022569
  0
VERTEX
  8
0
 10
92.168860
 20
216.629510
 42
0.212887
  0
VERTEX
  8
0
 10
91.548896
 20
216.668204
 42
-0.090302
  0
VERTEX
  8
0
 10
91.008678
 20
216.571538
 42
-0.031852
  0
VERTEX
  8
0
 10
90.220613
 20
216.624207
 42
-0.030387
  0
VERTEX
  8
0
 10
89.342719
 20
216.794111
 42
-0.031219
  0
VERTEX
  8
0
 10
88.500000
 20
217.068100
 42
-0.076356
  0
VERTEX
  8
0
 10
87.875885
 20
217.433092
 42
-0.581672
  0
VERTEX
  8
0
 10
87.919847
 20
217.697978
 42
-0.077030
  0
VERTEX
  8
0
 10
88.751457
 20
217.865607
 42
-0.007240
  0
VERTEX
  8
0
 10
90.841036
 20
217.929715
 42
-0.034652
  0
VERTEX
  8
0
 10
93.269392
 20
217.800681
 42
-0.067033
  0
VERTEX
  8
0
 10
95.147448
 20
217.308653
 42
-0.058601
  0
VERTEX
  8
0
 10
96.985835
 20
216.287166
 42
-0.021114
  0
VERTEX
  8
0
 10
99.341036
 20
214.434796
 42
0.000000
  0
VERTEX
  8
0
 10
103.500000
 20
210.869591
 42
0.000000
  0
VERTEX
  8
0
 10
103.797954
 20
218.140113
 42
-0.019784
  0
VERTEX
  8
0
 10
104.359417
 20
225.097967
 42
-0.194634
  0
VERTEX
  8
0
 10
105.753035
 20
227.621648
 42
-0.428423
  0
VERTEX
  8
0
 10
107.617667
 20
227.382156
 42
-0.046869
  0
SEQEND
  0
POLYLINE
  8
0
 66
1
 70
1
  0
VERTEX
  8
0
 10
174.505548
 20
200.006131
 42
-0.029217
  0
VERTEX
  8
0
 10
173.724469
 20
199.238347
 42
-0.031723
  0
VERTEX
  8
0
 10
172.879442
 20
198.589301
 42
-0.033476
  0
VERTEX
  8
0
 10
172.091394
 20
198.133249
 42
-0.114925
  0
VERTEX
  8
0
 10
171.519326
 20
198.000000
 42
0.128393
  0
VERTEX
  8
0
 10
170.918413
 20
197.843107
 42
0.027133
  0
VERTEX
  8
0
 10
169.995374
 20
197.257921
 42
0.026743
  0
VERTEX
  8
0
 10
168.969852
 20
196.440839
 42
0.022599
  0
VERTEX
  8
0
 10
167.975362
 20
195.473774
 42
-0.037070
  0
VERTEX
  8
0
 10
166.578379
 20
194.191782
 42
-0.008505
  0
VERTEX
  8
0
 10
164.030073
 20
192.248968
 42
-0.008746
  0
VERTEX
  8
0
 10
161.008701
 20
190.106159
 42
-0.008430
  0
VERTEX
  8
0
 10
157.877262
 20
188.043178
 42
-0.002104
  0
VERTEX
  8
0
 10
152.642079
 20
184.750280
 42
-0.066141
  0
VERTEX
  8
0
 10
151.256172
 20
184.122764
 42
-0.534416
  0
VERTEX
  8
0
 10
150.816920
 20
184.484205
 42
-0.059094
  0
VERTEX
  8
0
 10
151.154937
 20
186.014609
 42
-0.115248
  0
VERTEX
  8
0
 10
153.987889
 20
190.484297
 42
-0.037316
  0
VERTEX
  8
0
 10
160.007319
 20
195.572972
 42
-0.037708
  0
VERTEX
  8
0
 10
167.079219
 20
199.926576
 42
-0.067395
  0
VERTEX
  8
0
 10
173.500000
 20
202.211279
 42
-0.023818
  0
VERTEX
  8
0
 10
175.301257
 20
202.501308
 42
-0.324462
  0
VERTEX
  8
0
 10
175.847031
 20
202.192090
 42
-0.277995
  0
VERTEX
  8
0
 10
175.769603
 20
201.518610
 42
-0.019703
  0
SEQEND
  0
POLYLINE
  8
0
 66
1
 70
1
  0
VERTEX
  8
0
 10
104.841319
 20
195.955426
 42
-0.027446
  0
VERTEX
  8
0
 10
106.283013
 20
194.964072
 42
-0.064654
  0
VERTEX
  8
0
 10
107.203398
 20
194.041870
 42
-0.097237
  0
VERTEX
  8
0
 10
107.631105
 20
193.181668
 42
-0.159831
  0
VERTEX
  8
0
 10
107.591319
 20
192.377377
 42
0.052792
  0
VERTEX
  8
0
 10
107.362149
 20
191.519090
 42
0.012877
  0
VERTEX
  8
0
 10
107.172470
 20
190.064667
 42
0.013055
  0
VERTEX
  8
0
 10
107.040867
 20
188.377014
 42
0.012678
  0
VERTEX
  8
0
 10
106.995815
 20
186.668213
 42
0.000000
  0
VERTEX
  8
0
 10
106.991629
 20
182.500000
 42
0.000000
  0
VERTEX
  8
0
 10
104.524298
 20
187.363217
 42
0.004422
  0
VERTEX
  8
0
 10
103.515624
 20
189.308530
 42
0.005207
  0
VERTEX
  8
0
 10
102.525228
 20
191.131794
 42
0.004593
  0
VERTEX
  8
0
 10
101.659288
 20
192.654032
 42
0.032171
  0
VERTEX
  8
0
 10
101.183718
 20
193.363217
 42
-0.029781
  0
VERTEX
  8
0
 10
100.804428
 20
193.923026
 42
-0.014382
  0
VERTEX
  8
0
 10
100.383730
 20
194.680133
 42
-0.014207
  0
VERTEX
  8
0
 10
99.989203
 20
195.496846
 42
-0.019792
  0
VERTEX
  8
0
 10
99.686619
 20
196.250000
 42
-0.166815
  0
VERTEX
  8
0
 10
99.672594
 20
197.432962
 42
-0.339497
  0
VERTEX
  8
0
 10
100.397741
 20
197.926396
 42
-0.102039
  0
VERTEX
  8
0
 10
102.101821
 20
197.472237
 42
-0.020920
  0
SEQEND
  0
POLYLINE
  8
0
 66
1
 70
1
  0
VERTEX
  8
0
 10
172.768379
 20
192.250000
 42
-0.018440
  0
VERTEX
  8
0
 10
172.183922
 20
191.024119
 42
-0.010968
  0
VERTEX
  8
0
 10
171.403070
 20
189.607260
 42
-0.010971
  0
VERTEX
  8
0
 10
170.561533
 20
188.227176
 42
-0.018578
  0
VERTEX
  8
0
 10
169.789818
 20
187.115141
 42
0.000000
  0
VERTEX
  8
0
 10
168.000000
 20
184.730283
 42
0.000000
  0
VERTEX
  8
0
 10
168.000000
 20
188.243169
 42
-0.037453
  0
VERTEX
  8
0
 10
168.128286
 20
189.953376
 42
-0.066856
  0
VERTEX
  8
0
 10
168.521822
 20
191.305349
 42
-0.075108
  0
VERTEX
  8
0
 10
169.217407
 20
192.398468
 42
-0.061343
  0
VERTEX
  8
0
 10
170.250000
 20
193.325576
 42
-0.014366
  0
VERTEX
  8
0
 10
172.412450
 20
194.743455
 42
-0.243463
  0
VERTEX
  8
0
 10
173.236254
 20
194.804523
 42
-0.387468
  0
VERTEX
  8
0
 10
173.506370
 20
194.212181
 42
-0.024140
  0
SEQEND
  0
POLYLINE
  8
0
 66
1
 70
1
  0
VERTEX
  8
0
 10
103.843111
 20
186.444988
 42
-0.027628
  0
VERTEX
  8
0
 10
104.209401
 20
185.506971
 42
-0.053038
  0
VERTEX
  8
0
 10
104.378397
 20
184.718215
 42
-0.087315
  0
VERTEX
  8
0
 10
104.341721
 20
184.188273
 42
-0.344624
  0
VERTEX
  8
0
 10
104.101006
 20
184.000000
 42
-0.170621
  0
VERTEX
  8
0
 10
103.268316
 20
184.292669
 42
-0.053785
  0
VERTEX
  8
0
 10
102.319842
 20
185.237438
 42
-0.046756
  0
VERTEX
  8
0
 10
101.416538
 20
186.596986
 42
-0.037839
  0
VERTEX
  8
0
 10
100.706162
 20
188.199072
 42
-0.204386
  0
VERTEX
  8
0
 10
100.767141
 20
189.189303
 42
-0.427495
  0
VERTEX
  8
0
 10
101.430726
 20
189.393200
 42
-0.101072
  0
VERTEX
  8
0
 10
102.751169
 20
188.255218
 42
-0.057688
  0
SEQEND
  0
POLYLINE
  8
0
 66
1
 70
1
  0
VERTEX
  8
0
 10
160.282459
 20
175.392631
 42
-0.157106
  0
VERTEX
  8
0
 10
159.906009
 20
174.895219
 42
-0.028927
  0
VERTEX
  8
0
 10
158.914412
 20
174.282558
 42
-0.028550
  0
VERTEX
  8
0
 10
157.623930
 20
173.677354
 42
-0.022589
  0
VERTEX
  8
0
 10
156.168686
 20
173.168686
 42
0.017558
  0
VERTEX
  8
0
 10
154.406803
 20
172.572650
 42
0.008033
  0
VERTEX
  8
0
 10
152.149855
 20
171.678027
 42
0.007943
  0
VERTEX
  8
0
 10
149.800831
 20
170.658916
 42
0.010856
  0
VERTEX
  8
0
 10
147.720942
 20
169.662064
 42
-0.011360
  0
VERTEX
  8
0
 10
145.909779
 20
168.796252
 42
-0.020618
  0
VERTEX
  8
0
 10
144.386777
 20
168.184451
 42
-0.018265
  0
VERTEX
  8
0
 10
143.222061
 20
167.818770
 42
-0.494978
  0
VERTEX
  8
0
 10
143.000000
 20
167.988126
 42
-0.126476
  0
VERTEX
  8
0
 10
143.112166
 20
168.424460
 42
-0.009538
  0
VERTEX
  8
0
 10
143.726680
 20
169.492005
 42
-0.012683
  0
VERTEX
  8
0
 10
144.526250
 20
170.748413
 42
-0.009297
  0
VERTEX
  8
0
 10
145.473805
 20
172.102117
 42
0.000604
  0
VERTEX
  8
0
 10
146.578566
 20
173.623414
 42
0.000387
  0
VERTEX
  8
0
 10
147.857536
 20
175.391968
 42
0.000389
  0
VERTEX
  8
0
 10
149.107264
 20
177.125749
 42
0.000729
  0
VERTEX
  8
0
 10
150.114779
 20
178.530113
 42
-0.028724
  0
VERTEX
  8
0
 10
151.202686
 20
179.880135
 42
-0.014836
  0
VERTEX
  8
0
 10
152.705493
 20
181.444290
 42
-0.014699
  0
VERTEX
  8
0
 10
154.350803
 20
182.965818
 42
-0.021554
  0
VERTEX
  8
0
 10
155.890973
 20
184.195661
 42
0.000000
  0
VERTEX
  8
0
 10
159.500000
 20
186.831095
 42
0.000000
  0
VERTEX
  8
0
 10
160.084715
 20
181.665548
 42
-0.009003
  0
VERTEX
  8
0
 10
160.280310
 20
179.606510
 42
-0.011298
  0
VERTEX
  8
0
 10
160.383997
 20
177.692090
 42
-0.009569
  0
VERTEX
  8
0
 10
160.403784
 20
176.093226
 42
-0.082542
  0
SEQEND
  0
POLYLINE
  8
0
 66
1
 70
1
  0
VERTEX
  8
0
 10
115.899729
 20
182.250000
 42
-0.018431
  0
VERTEX
  8
0
 10
116.514041
 20
180.954829
 42
-0.195660
  0
VERTEX
  8
0
 10
116.525253
 20
180.382588
 42
-0.272960
  0
VERTEX
  8
0
 10
116.139527
 20
180.076360
 42
-0.034532
  0
VERTEX
  8
0
 10
115.035184
 20
180.000000
 42
-0.175860
  0
VERTEX
  8
0
 10
113.818152
 20
180.441716
 42
-0.143109
  0
VERTEX
  8
0
 10
113.041479
 20
181.601229
 42
-0.131765
  0
VERTEX
  8
0
 10
112.976740
 20
183.075728
 42
-0.142772
  0
VERTEX
  8
0
 10
113.666667
 20
184.333333
 42
-0.067719
  0
VERTEX
  8
0
 10
114.169730
 20
184.715897
 42
-0.327415
  0
VERTEX
  8
0
 10
114.505416
 20
184.676137
 42
-0.082175
  0
VERTEX
  8
0
 10
114.865057
 20
184.208987
 42
-0.003092
  0
SEQEND
  0
POLYLINE
  8
0
 66
1
 70
1
  0
VERTEX
  8
0
 10
111.000000
 20
179.519191
 42
-0.017142
  0
VERTEX
  8
0
 10
114.560473
 20
178.241968
 42
-0.069582
  0
VERTEX
  8
0
 10
116.556979
 20
177.105080
 42
-0.118746
  0
VERTEX
  8
0
 10
117.599175
 20
175.810544
 42
-0.107970
  0
VERTEX
  8
0
 10
117.984687
 20
174.136456
 42
-0.218908
  0
VERTEX
  8
0
 10
117.712742
 20
173.527147
 42
-0.146865
  0
VERTEX
  8
0
 10
117.007647
 20
173.205184
 42
-0.059710
  0
VERTEX
  8
0
 10
115.658462
 20
173.181673
 42
-0.011746
  0
VERTEX
  8
0
 10
113.250000
 20
173.485152
 42
-0.021000
  0
VERTEX
  8
0
 10
109.232861
 20
174.261187
 42
-0.074331
  0
VERTEX
  8
0
 10
106.801817
 20
175.235599
 42
-0.095587
  0
VERTEX
  8
0
 10
105.094243
 20
176.733853
 42
-0.049356
  0
VERTEX
  8
0
 10
103.575974
 20
179.148162
 42
-0.003703
  0
VERTEX
  8
0
 10
102.258816
 20
181.838161
 42
-0.127140
  0
VERTEX
  8
0
 10
102.122788
 20
182.526860
 42
-0.507032
  0
VERTEX
  8
0
 10
102.430828
 20
182.726205
 42
-0.024024
  0
VERTEX
  8
0
 10
103.750000
 20
182.149410
 42
0.023406
  0
VERTEX
  8
0
 10
104.757551
 20
181.707385
 42
0.004651
  0
VERTEX
  8
0
 10
106.601562
 20
181.018924
 42
0.004913
  0
VERTEX
  8
0
 10
108.766002
 20
180.257673
 42
0.004556
  0
SEQEND
  0
POLYLINE
  8
0
 66
1
 70
1
  0
VERTEX
  8
0
 10
145.618689
 20
175.566722
 42
0.010237
  0
VERTEX
  8
0
 10
144.614106
 20
174.192176
 42
0.013665
  0
VERTEX
  8
0
 10
143.762708
 20
172.902057
 42
0.010869
  0
VERTEX
  8
0
 10
143.112140
 20
171.802495
 42
0.121926
  0
VERTEX
  8
0
 10
142.977764
 20
171.316722
 42
-0.107365
  0
VERTEX
  8
0
 10
142.866871
 20
170.865779
 42
-0.016992
  0
VERTEX
  8
0
 10
142.436027
 20
170.056121
 42
-0.018180
  0
VERTEX
  8
0
 10
141.852033
 20
169.123306
 42
-0.015005
  0
VERTEX
  8
0
 10
141.164778
 20
168.172199
 42
-0.020212
  0
VERTEX
  8
0
 10
140.149830
 20
166.957752
 42
-0.133811
  0
VERTEX
  8
0
 10
139.489641
 20
166.536279
 42
-0.228702
  0
VERTEX
  8
0
 10
138.895861
 20
166.624516
 42
-0.070335
  0
VERTEX
  8
0
 10
138.207189
 20
167.250352
 42
-0.187935
  0
VERTEX
  8
0
 10
137.885315
 20
168.217793
 42
-0.112813
  0
VERTEX
  8
0
 10
138.218480
 20
169.398495
 42
-0.051423
  0
VERTEX
  8
0
 10
139.362707
 20
171.062222
 42
-0.010132
  0
VERTEX
  8
0
 10
141.770176
 20
173.776996
 42
-0.009715
  0
VERTEX
  8
0
 10
145.345338
 20
177.499813
 42
-0.087952
  0
VERTEX
  8
0
 10
147.185617
 20
178.788062
 42
-0.744721
  0
VERTEX
  8
0
 10
147.552240
 20
178.374962
 42
-0.024314
  0
SEQEND
  0
POLYLINE
  8
0
 66
1
 70
1
  0
VERTEX
  8
0
 10
202.738618
 20
170.500000
 42
-0.020360
  0
VERTEX
  8
0
 10
202.266575
 20
169.159151
 42
-0.029894
  0
VERTEX
  8
0
 10
201.735514
 20
168.028125
 42
-0.029827
  0
VERTEX
  8
0
 10
201.217406
 20
167.198766
 42
-0.242802
  0
VERTEX
  8
0
 10
200.832219
 20
167.000000
 42
0.237778
  0
VERTEX
  8
0
 10
200.511967
 20
166.838576
 42
0.069306
  0
VERTEX
  8
0
 10
200.239966
 20
166.339063
 42
0.053253
  0
VERTEX
  8
0
 10
200.051277
 20
165.611755
 42
0.035171
  0
VERTEX
  8
0
 10
199.984687
 20
164.750000
 42
-0.031932
  0
VERTEX
  8
0
 10
199.916806
 20
163.790755
 42
-0.025316
  0
VERTEX
  8
0
 10
199.725500
 20
162.769120
 42
-0.025962
  0
VERTEX
  8
0
 10
199.449656
 20
161.836741
 42
-0.056414
  0
VERTEX
  8
0
 10
199.123851
 20
161.166154
 42
-0.041547
  0
VERTEX
  8
0
 10
198.662702
 20
160.557042
 42
-0.280387
  0
VERTEX
  8
0
 10
198.315560
 20
160.452317
 42
-0.214555
  0
VERTEX
  8
0
 10
197.993318
 20
160.711009
 42
-0.026318
  0
VERTEX
  8
0
 10
197.616478
 20
161.557059
 42
-0.097208
  0
VERTEX
  8
0
 10
197.472073
 20
162.385376
 42
-0.047109
  0
VERTEX
  8
0
 10
197.596336
 20
163.457813
 42
-0.044275
  0
VERTEX
  8
0
 10
197.943763
 20
164.588979
 42
-0.048426
  0
VERTEX
  8
0
 10
198.477315
 20
165.605722
 42
0.021370
  0
VERTEX
  8
0
 10
199.060135
 20
166.583978
 42
0.021846
  0
VERTEX
  8
0
 10
199.552711
 20
167.601377
 42
0.022241
  0
VERTEX
  8
0
 10
199.900969
 20
168.518997
 42
0.079732
  0
VERTEX
  8
0
 10
200.000000
 20
169.136076
 42
-0.138789
  0
VERTEX
  8
0
 10
200.287294
 20
170.151144
 42
-0.020098
  0
VERTEX
  8
0
 10
201.498655
 20
171.953229
 42
-0.017000
  0
VERTEX
  8
0
 10
202.845190
 20
173.666850
 42
-0.221202
  0
VERTEX
  8
0
 10
203.561387
 20
174.000000
 42
-0.477868
  0
VERTEX
  8
0
 10
203.634622
 20
173.909293
 42
-0.004635
  0
VERTEX
  8
0
 10
203.423406
 20
172.971875
 42
-0.010565
  0
VERTEX
  8
0
 10
203.132552
 20
171.842294
 42
-0.006160
  0
SEQEND
  0
POLYLINE
  8
0
 66
1
 70
1
  0
VERTEX
  8
0
 10
136.329644
 20
166.077606
 42
-0.034077
  0
VERTEX
  8
0
 10
139.587696
 20
164.316337
 42
-0.052150
  0
VERTEX
  8
0
 10
142.106406
 20
162.329379
 42
-0.069487
  0
VERTEX
  8
0
 10
143.559325
 20
160.456994
 42
-0.275343
  0
VERTEX
  8
0
 10
143.536676
 20
159.059343
 42
-0.254003
  0
VERTEX
  8
0
 10
142.535277
 20
158.486331
 42
-0.046314
  0
VERTEX
  8
0
 10
140.328020
 20
158.641783
 42
-0.047155
  0
VERTEX
  8
0
 10
138.107683
 20
159.225585
 42
-0.160127
  0
VERTEX
  8
0
 10
136.948388
 20
160.141991
 42
0.230950
  0
VERTEX
  8
0
 10
136.531624
 20
160.387598
 42
0.044030
  0
VERTEX
  8
0
 10
135.626356
 20
160.379074
 42
0.038890
  0
VERTEX
  8
0
 10
134.478493
 20
160.175935
 42
0.027013
  0
VERTEX
  8
0
 10
133.222458
 20
159.777867
 42
-0.030158
  0
VERTEX
  8
0
 10
131.317297
 20
159.187226
 42
-0.121385
  0
VERTEX
  8
0
 10
130.107935
 20
159.188751
 42
-0.108821
  0
VERTEX
  8
0
 10
128.967227
 20
159.753398
 42
-0.021893
  0
VERTEX
  8
0
 10
127.254243
 20
161.256420
 42
0.030000
  0
VERTEX
  8
0
 10
125.843351
 20
162.454479
 42
0.062381
  0
VERTEX
  8
0
 10
124.592349
 20
163.169789
 42
0.079037
  0
VERTEX
  8
0
 10
123.413517
 20
163.454614
 42
0.083973
  0
VERTEX
  8
0
 10
122.230173
 20
163.349941
 42
-0.036969
  0
VERTEX
  8
0
 10
121.163249
 20
163.153728
 42
-0.139322
  0
VERTEX
  8
0
 10
120.499714
 20
163.266874
 42
-0.197669
  0
VERTEX
  8
0
 10
120.128299
 20
163.677970
 42
-0.086320
  0
VERTEX
  8
0
 10
120.000000
 20
164.415593
 42
-0.295074
  0
VERTEX
  8
0
 10
121.437072
 20
166.638677
 42
-0.080584
  0
VERTEX
  8
0
 10
125.668933
 20
167.774646
 42
-0.064278
  0
VERTEX
  8
0
 10
131.165631
 20
167.626471
 42
-0.068138
  0
SEQEND
  0
POLYLINE
  8
0
 66
1
 70
1
  0
VERTEX
  8
0
 10
196.000000
 20
155.500000
 42
-0.020545
  0
VERTEX
  8
0
 10
195.559202
 20
154.470085
 42
-0.038491
  0
VERTEX
  8
0
 10
195.107356
 20
153.685353
 42
-0.054096
  0
VERTEX
  8
0
 10
194.708256
 20
153.218640
 42
-0.405410
  0
VERTEX
  8
0
 10
194.444043
 20
153.222623
 42
-0.213468
  0
VERTEX
  8
0
 10
194.309350
 20
153.575347
 42
-0.028055
  0
VERTEX
  8
0
 10
194.401106
 20
154.391603
 42
-0.028558
  0
VERTEX
  8
0
 10
194.631986
 20
155.399731
 42
-0.020274
  0
VERTEX
  8
0
 10
195.000000
 20
156.500000
 42
-0.020545
  0
VERTEX
  8
0
 10
195.440798
 20
157.529915
 42
-0.038491
  0
VERTEX
  8
0
 10
195.892644
 20
158.314647
 42
-0.054096
  0
VERTEX
  8
0
 10
196.291744
 20
158.781360
 42
-0.405410
  0
VERTEX
  8
0
 10
196.555957
 20
158.777377
 42
-0.213468
  0
VERTEX
  8
0
 10
196.690650
 20
158.424653
 42
-0.028055
  0
VERTEX
  8
0
 10
196.598894
 20
157.608397
 42
-0.028558
  0
VERTEX
  8
0
 10
196.368014
 20
156.600269
 42
-0.020274
  0
SEQEND
  0
POLYLINE
  8
0
 66
1
 70
1
  0
VERTEX
  8
0
 10
189.210415
 20
93.932778
 42
-0.001815
  0
VERTEX
  8
0
 10
188.571267
 20
93.191771
 42
-0.002953
  0
VERTEX
  8
0
 10
188.022564
 20
92.567754
 42
-0.000462
  0
VERTEX
  8
0
 10
187.533585
 20
92.019258
 42
-0.213607
  0
VERTEX
  8
0
 10
187.490563
 20
92.000000
 42
-0.380591
  0
VERTEX
  8
0
 10
187.462240
 20
92.025211
 42
-0.001263
  0
VERTEX
  8
0
 10
187.405013
 20
92.526709
 42
-0.005602
  0
VERTEX
  8
0
 10
187.347001
 20
93.105531
 42
-0.003375
  0
VERTEX
  8
0
 10
187.290542
 20
93.793052
 42
-0.089214
  0
VERTEX
  8
0
 10
187.366840
 20
94.532840
 42
-0.112076
  0
VERTEX
  8
0
 10
187.698752
 20
95.134737
 42
-0.109799
  0
VERTEX
  8
0
 10
188.264335
 20
95.542715
 42
-0.082939
  0
VERTEX
  8
0
 10
189.010393
 20
95.725830
 42
-0.019345
  0
VERTEX
  8
0
 10
190.111476
 20
95.766037
 42
-0.381411
  0
VERTEX
  8
0
 10
190.343881
 20
95.557658
 42
-0.199852
  0
VERTEX
  8
0
 10
190.227283
 20
95.157324
 42
-0.007545
  0
SEQEND
  0
POLYLINE
  8
0
 66
1
 70
1
  0
VERTEX
  8
0
 10
197.361626
 20
94.500000
 42
-0.055937
  0
VERTEX
  8
0
 10
197.511135
 20
93.925634
 42
-0.100118
  0
VERTEX
  8
0
 10
197.483616
 20
93.440625
 42
-0.147206
  0
VERTEX
  8
0
 10
197.289193
 20
93.122486
 42
-0.184534
  0
VERTEX
  8
0
 10
196.968615
 20
93.000000
 42
-0.152681
  0
VERTEX
  8
0
 10
196.599211
 20
93.115494
 42
-0.098158
  0
VERTEX
  8
0
 10
196.284531
 20
93.440625
 42
-0.080880
  0
VERTEX
  8
0
 10
196.072230
 20
93.926468
 42
-0.062722
  0
VERTEX
  8
0
 10
196.000000
 20
94.500000
 42
-0.024748
  0
VERTEX
  8
0
 10
196.028469
 20
95.074824
 42
-0.039339
  0
VERTEX
  8
0
 10
196.115447
 20
95.559375
 42
-0.046727
  0
VERTEX
  8
0
 10
196.241071
 20
95.903916
 42
-0.289661
  0
VERTEX
  8
0
 10
196.393011
 20
96.000000
 42
-0.222225
  0
VERTEX
  8
0
 10
196.579329
 20
95.912889
 42
-0.030693
  0
VERTEX
  8
0
 10
196.839659
 20
95.559375
 42
-0.030395
  0
VERTEX
  8
0
 10
197.112506
 20
95.074558
 42
-0.021360
  0
SEQEND
  0
POLYLINE
  8
0
 66
1
 70
1
  0
VERTEX
  8
0
 10
184.729167
 20
92.395833
 42
-0.126455
  0
VERTEX
  8
0
 10
184.402231
 20
92.202593
 42
-0.060344
  0
VERTEX
  8
0
 10
183.916927
 20
92.123424
 42
-0.054150
  0
VERTEX
  8
0
 10
183.359369
 20
92.160852
 42
-0.051402
  0
VERTEX
  8
0
 10
182.812500
 20
92.316886
 42
-0.054073
  0
VERTEX
  8
0
 10
182.395823
 20
92.538436
 42
-0.470617
  0
VERTEX
  8
0
 10
182.378580
 20
92.720685
 42
-0.168741
  0
VERTEX
  8
0
 10
182.670344
 20
92.862007
 42
-0.018894
  0
VERTEX
  8
0
 10
183.416667
 20
92.921053
 42
-0.028489
  0
VERTEX
  8
0
 10
184.112848
 20
92.910055
 42
-0.077125
  0
VERTEX
  8
0
 10
184.592839
 20
92.799335
 42
-0.208169
  0
VERTEX
  8
0
 10
184.775380
 20
92.614691
 42
-0.296942
  0
SEQEND
  0
POLYLINE
  8
0
 66
1
 70
1
  0
VERTEX
  8
0
 10
192.573661
 20
90.226190
 42
-0.002294
  0
VERTEX
  8
0
 10
191.354252
 20
89.072152
 42
-0.404836
  0
VERTEX
  8
0
 10
191.191606
 20
89.074764
 42
-0.323466
  0
VERTEX
  8
0
 10
191.162300
 20
89.256694
 42
-0.001975
  0
VERTEX
  8
0
 10
191.964205
 20
90.835646
 42
-0.029819
  0
VERTEX
  8
0
 10
192.467310
 20
91.687471
 42
-0.053860
  0
VERTEX
  8
0
 10
192.989204
 20
92.306169
 42
-0.082345
  0
VERTEX
  8
0
 10
193.448592
 20
92.619194
 42
-0.314606
  0
VERTEX
  8
0
 10
193.771496
 20
92.561837
 42
-0.253633
  0
VERTEX
  8
0
 10
193.877288
 20
92.205514
 42
-0.066521
  0
VERTEX
  8
0
 10
193.671033
 20
91.624340
 42
-0.050910
  0
VERTEX
  8
0
 10
193.221647
 20
90.931813
 42
-0.032763
  0
SEQEND
  0
POLYLINE
  8
0
 66
1
 70
1
  0
VERTEX
  8
0
 10
179.571429
 20
89.428571
 42
-0.035940
  0
VERTEX
  8
0
 10
178.887168
 20
88.836194
 42
-0.054397
  0
VERTEX
  8
0
 10
178.209465
 20
88.436368
 42
-0.071185
  0
VERTEX
  8
0
 10
177.636977
 20
88.270385
 42
-0.235585
  0
VERTEX
  8
0
 10
177.275382
 20
88.391285
 42
-0.261643
  0
VERTEX
  8
0
 10
177.178380
 20
88.736953
 42
-0.082274
  0
VERTEX
  8
0
 10
177.396476
 20
89.249357
 42
-0.058027
  0
VERTEX
  8
0
 10
177.879360
 20
89.843439
 42
-0.035262
  0
VERTEX
  8
0
 10
178.571429
 20
90.428571
 42
-0.023072
  0
VERTEX
  8
0
 10
180.184278
 20
91.497370
 42
-0.343782
  0
VERTEX
  8
0
 10
180.813324
 20
91.419509
 42
-0.385988
  0
VERTEX
  8
0
 10
180.842067
 20
90.829300
 42
-0.024335
  0
SEQEND
  0
POLYLINE
  8
0
 66
1
 70
1
  0
VERTEX
  8
0
 10
185.000000
 20
90.559017
 42
-0.151918
  0
VERTEX
  8
0
 10
184.934461
 20
90.348290
 42
-0.038439
  0
VERTEX
  8
0
 10
184.706250
 20
90.066025
 42
-0.035638
  0
VERTEX
  8
0
 10
184.382774
 20
89.768994
 42
-0.029505
  0
VERTEX
  8
0
 10
184.000000
 20
89.500000
 42
-0.082592
  0
VERTEX
  8
0
 10
183.617900
 20
89.343488
 42
-0.161196
  0
VERTEX
  8
0
 10
183.293750
 20
89.374600
 42
-0.182303
  0
VERTEX
  8
0
 10
183.078288
 20
89.586039
 42
-0.108972
  0
VERTEX
  8
0
 10
183.000000
 20
89.940983
 42
-0.093332
  0
VERTEX
  8
0
 10
183.076123
 20
90.345238
 42
-0.096420
  0
VERTEX
  8
0
 10
183.293750
 20
90.688914
 42
-0.099167
  0
VERTEX
  8
0
 10
183.618444
 20
90.918938
 42
-0.105053
  0
VERTEX
  8
0
 10
184.000000
 20
91.000000
 42
-0.042167
  0
VERTEX
  8
0
 10
184.382849
 20
90.967655
 42
-0.061769
  0
VERTEX
  8
0
 10
184.706250
 20
90.870461
 42
-0.081139
  0
VERTEX
  8
0
 10
184.925540
 20
90.727648
 42
-0.210953
  0
SEQEND
  0
POLYLINE
  8
0
 66
1
 70
1
  0
VERTEX
  8
0
 10
176.984687
 20
83.690983
 42
-0.056893
  0
VERTEX
  8
0
 10
176.927714
 20
83.243079
 42
-0.398791
  0
VERTEX
  8
0
 10
176.759063
 20
83.134577
 42
-0.185074
  0
VERTEX
  8
0
 10
176.501891
 20
83.293403
 42
-0.021693
  0
VERTEX
  8
0
 10
176.109687
 20
83.856763
 42
0.045108
  0
VERTEX
  8
0
 10
175.678736
 20
84.417879
 42
0.167837
  0
VERTEX
  8
0
 10
175.291912
 20
84.625764
 42
0.218762
  0
VERTEX
  8
0
 10
174.926300
 20
84.524505
 42
0.079241
  0
VERTEX
  8
0
 10
174.565983
 20
84.106763
 42
-0.070108
  0
VERTEX
  8
0
 10
174.215994
 20
83.685770
 42
-0.054223
  0
VERTEX
  8
0
 10
173.733045
 20
83.334454
 42
-0.055208
  0
VERTEX
  8
0
 10
173.197229
 20
83.101405
 42
-0.081846
  0
VERTEX
  8
0
 10
172.690983
 20
83.031803
 42
-0.246963
  0
VERTEX
  8
0
 10
172.426022
 20
83.180337
 42
-0.261769
  0
VERTEX
  8
0
 10
172.407190
 20
83.476138
 42
-0.089556
  0
VERTEX
  8
0
 10
172.746452
 20
83.944286
 42
-0.029290
  0
VERTEX
  8
0
 10
173.397322
 20
84.499770
 42
-0.062759
  0
VERTEX
  8
0
 10
174.793948
 20
85.304210
 42
-0.155990
  0
VERTEX
  8
0
 10
175.955484
 20
85.406384
 42
-0.219175
  0
VERTEX
  8
0
 10
176.710435
 20
84.828559
 42
-0.125364
  0
SEQEND
  0
POLYLINE
  8
0
 66
1
 70
1
  0
VERTEX
  8
0
 10
165.013299
 20
81.145242
 42
0.015245
  0
VERTEX
  8
0
 10
163.279462
 20
79.744554
 42
0.005123
  0
VERTEX
  8
0
 10
160.834051
 20
77.598704
 42
0.005091
  0
VERTEX
  8
0
 10
158.175511
 20
75.167936
 42
0.005806
  0
VERTEX
  8
0
 10
155.682291
 20
72.786515
 42
-0.005407
  0
VERTEX
  8
0
 10
151.995285
 20
69.259208
 42
-0.067470
  0
VERTEX
  8
0
 10
150.422280
 20
68.141641
 42
-0.203521
  0
VERTEX
  8
0
 10
149.278422
 20
68.048299
 42
-0.111781
  0
VERTEX
  8
0
 10
148.054601
 20
68.786515
 42
-0.024885
  0
VERTEX
  8
0
 10
147.291312
 20
69.596663
 42
-0.015249
  0
VERTEX
  8
0
 10
146.470696
 20
70.621111
 42
-0.015276
  0
VERTEX
  8
0
 10
145.718452
 20
71.687554
 42
-0.026171
  0
VERTEX
  8
0
 10
145.166907
 20
72.625778
 42
-0.055871
  0
VERTEX
  8
0
 10
144.688255
 20
73.869107
 42
-0.311100
  0
VERTEX
  8
0
 10
144.918830
 20
74.505995
 42
-0.123413
  0
VERTEX
  8
0
 10
145.862554
 20
74.877077
 42
-0.008191
  0
VERTEX
  8
0
 10
148.781298
 20
75.207341
 42
0.039825
  0
VERTEX
  8
0
 10
152.937227
 20
75.946003
 42
0.042560
  0
VERTEX
  8
0
 10
156.828224
 20
77.324912
 42
0.041959
  0
VERTEX
  8
0
 10
160.477160
 20
79.363636
 42
0.036708
  0
VERTEX
  8
0
 10
163.912364
 20
82.067138
 42
-0.019060
  0
VERTEX
  8
0
 10
165.230950
 20
83.182355
 42
-0.030620
  0
VERTEX
  8
0
 10
166.443730
 20
84.016871
 42
-0.031457
  0
VERTEX
  8
0
 10
167.433048
 20
84.530140
 42
-0.314196
  0
VERTEX
  8
0
 10
167.866569
 20
84.445340
 42
-0.347210
  0
VERTEX
  8
0
 10
167.907874
 20
84.035295
 42
-0.036249
  0
VERTEX
  8
0
 10
167.289711
 20
83.205809
 42
-0.032734
  0
VERTEX
  8
0
 10
166.304435
 20
82.206554
 42
-0.019496
  0
SEQEND
  0
POLYLINE
  8
0
 66
1
 70
1
  0
VERTEX
  8
0
 10
171.250000
 20
80.279762
 42
0.091153
  0
VERTEX
  8
0
 10
170.772185
 20
80.003112
 42
0.068411
  0
VERTEX
  8
0
 10
170.367188
 20
79.548326
 42
0.067172
  0
VERTEX
  8
0
 10
170.093566
 20
78.991590
 42
0.080841
  0
VERTEX
  8
0
 10
170.000000
 20
78.416667
 42
-0.068857
  0
VERTEX
  8
0
 10
169.925077
 20
77.875200
 42
-0.085122
  0
VERTEX
  8
0
 10
169.706250
 20
77.416146
 42
-0.099913
  0
VERTEX
  8
0
 10
169.381338
 20
77.109202
 42
-0.140362
  0
VERTEX
  8
0
 10
169.000000
 20
77.000000
 42
-0.164686
  0
VERTEX
  8
0
 10
168.286126
 20
77.241685
 42
-0.288334
  0
VERTEX
  8
0
 10
168.076050
 20
77.805831
 42
-0.108618
  0
VERTEX
  8
0
 10
168.509791
 20
78.773574
 42
-0.024460
  0
VERTEX
  8
0
 10
169.660536
 20
80.177390
 42
-0.033443
  0
VERTEX
  8
0
 10
170.339564
 20
80.833679
 42
-0.053647
  0
VERTEX
  8
0
 10
171.006444
 20
81.284376
 42
-0.072957
  0
VERTEX
  8
0
 10
171.564287
 20
81.482630
 42
-0.261917
  0
VERTEX
  8
0
 10
171.910536
 20
81.369226
 42
-0.167740
  0
VERTEX
  8
0
 10
172.032292
 20
81.088763
 42
-0.156822
  0
VERTEX
  8
0
 10
171.959657
 20
80.783944
 42
-0.110311
  0
VERTEX
  8
0
 10
171.685181
 20
80.497903
 42
-0.060892
  0
SEQEND
  0
POLYLINE
  8
0
 66
1
 70
1
  0
VERTEX
  8
0
 10
166.357499
 20
70.107499
 42
-0.393154
  0
VERTEX
  8
0
 10
165.780980
 20
70.017754
 42
-0.034249
  0
VERTEX
  8
0
 10
164.504258
 20
71.015235
 42
-0.035360
  0
VERTEX
  8
0
 10
163.321320
 20
72.239060
 42
-0.176221
  0
VERTEX
  8
0
 10
163.000000
 20
73.122445
 42
-0.391772
  0
VERTEX
  8
0
 10
163.162443
 20
73.297943
 42
-0.131091
  0
VERTEX
  8
0
 10
163.538542
 20
73.228156
 42
-0.055885
  0
VERTEX
  8
0
 10
164.128635
 20
72.861625
 42
-0.023673
  0
VERTEX
  8
0
 10
164.833333
 20
72.250000
 42
-0.018449
  0
VERTEX
  8
0
 10
165.513605
 20
71.550908
 42
-0.029140
  0
VERTEX
  8
0
 10
166.037307
 20
70.898765
 42
-0.028767
  0
VERTEX
  8
0
 10
166.377943
 20
70.356425
 42
-0.301270
  0
SEQEND
  0
POLYLINE
  8
0
 66
1
 70
1
  0
VERTEX
  8
0
 10
171.000000
 20
73.000000
 42
-0.171310
  0
VERTEX
  8
0
 10
170.865757
 20
72.619685
 42
-0.095191
  0
VERTEX
  8
0
 10
170.485938
 20
72.298248
 42
-0.075283
  0
VERTEX
  8
0
 10
169.919445
 20
72.083567
 42
-0.055234
  0
VERTEX
  8
0
 10
169.250000
 20
72.015313
 42
-0.011938
  0
VERTEX
  8
0
 10
168.271084
 20
72.047261
 42
-0.327416
  0
VERTEX
  8
0
 10
168.083458
 20
72.201904
 42
-0.309569
  0
VERTEX
  8
0
 10
168.169589
 20
72.436556
 42
-0.011213
  0
VERTEX
  8
0
 10
169.000000
 20
73.000000
 42
-0.007234
  0
VERTEX
  8
0
 10
170.262820
 20
73.790433
 42
-0.137048
  0
VERTEX
  8
0
 10
170.707705
 20
73.914708
 42
-0.364836
  0
VERTEX
  8
0
 10
170.938046
 20
73.720828
 42
-0.042895
  0
SEQEND
  0
POLYLINE
  8
0
 66
1
 70
1
  0
VERTEX
  8
0
 10
142.000000
 20
68.000000
 42
-0.042167
  0
VERTEX
  8
0
 10
141.967655
 20
67.617151
 42
-0.061769
  0
VERTEX
  8
0
 10
141.870461
 20
67.293750
 42
-0.081139
  0
VERTEX
  8
0
 10
141.727648
 20
67.074460
 42
-0.210953
  0
VERTEX
  8
0
 10
141.559017
 20
67.000000
 42
-0.151918
  0
VERTEX
  8
0
 10
141.348290
 20
67.065539
 42
-0.038439
  0
VERTEX
  8
0
 10
141.066025
 20
67.293750
 42
-0.035638
  0
VERTEX
  8
0
 10
140.768994
 20
67.617226
 42
-0.029505
  0
VERTEX
  8
0
 10
140.500000
 20
68.000000
 42
-0.082592
  0
VERTEX
  8
0
 10
140.343488
 20
68.382100
 42
-0.161196
  0
VERTEX
  8
0
 10
140.374600
 20
68.706250
 42
-0.182303
  0
VERTEX
  8
0
 10
140.586039
 20
68.921712
 42
-0.108972
  0
VERTEX
  8
0
 10
140.940983
 20
69.000000
 42
-0.093332
  0
VERTEX
  8
0
 10
141.345238
 20
68.923877
 42
-0.096420
  0
VERTEX
  8
0
 10
141.688914
 20
68.706250
 42
-0.099167
  0
VERTEX
  8
0
 10
141.918938
 20
68.381556
 42
-0.105053
  0
SEQEND
  0
POLYLINE
  8
0
 66
1
 70
1
  0
VERTEX
  8
0
 10
156.000000
 20
68.606989
 42
-0.225200
  0
VERTEX
  8
0
 10
155.911231
 20
68.419896
 42
-0.029412
  0
VERTEX
  8
0
 10
155.544118
 20
68.154486
 42
-0.029555
  0
VERTEX
  8
0
 10
155.042538
 20
67.875192
 42
-0.020646
  0
VERTEX
  8
0
 10
154.448062
 20
67.618443
 42
-0.036408
  0
VERTEX
  8
0
 10
153.868281
 20
67.443138
 42
-0.155351
  0
VERTEX
  8
0
 10
153.512472
 20
67.474315
 42
-0.329480
  0
VERTEX
  8
0
 10
153.393111
 20
67.674071
 42
-0.114400
  0
VERTEX
  8
0
 10
153.507079
 20
68.011454
 42
-0.115814
  0
VERTEX
  8
0
 10
154.098109
 20
68.603931
 42
-0.080554
  0
VERTEX
  8
0
 10
154.973761
 20
68.969265
 42
-0.115534
  0
VERTEX
  8
0
 10
155.708846
 20
68.972535
 42
-0.349578
  0
SEQEND
  0
POLYLINE
  8
0
 66
1
 70
1
  0
VERTEX
  8
0
 10
160.000000
 20
66.500000
 42
-0.030490
  0
VERTEX
  8
0
 10
159.474366
 20
65.939923
 42
-0.049393
  0
VERTEX
  8
0
 10
158.957819
 20
65.541140
 42
-0.065890
  0
VERTEX
  8
0
 10
158.523352
 20
65.343381
 42
-0.277016
  0
VERTEX
  8
0
 10
158.256619
 20
65.410048
 42
-0.353344
  0
VERTEX
  8
0
 10
158.189390
 20
66.041329
 42
-0.036388
  0
VERTEX
  8
0
 10
159.156957
 20
67.324859
 42
-0.037136
  0
VERTEX
  8
0
 10
160.290111
 20
68.441065
 42
-0.383897
  0
VERTEX
  8
0
 10
160.892501
 20
68.423307
 42
-0.271366
  0
VERTEX
  8
0
 10
160.962178
 20
68.179399
 42
-0.045722
  0
VERTEX
  8
0
 10
160.792235
 20
67.703658
 42
-0.039198
  0
VERTEX
  8
0
 10
160.463853
 20
67.120468
 42
-0.025390
  0
SEQEND
  0
POLYLINE
  8
0
 66
1
 70
1
  0
VERTEX
  8
0
 10
142.876298
 20
64.209106
 42
0.087571
  0
VERTEX
  8
0
 10
143.420434
 20
64.190235
 42
0.229830
  0
VERTEX
  8
0
 10
143.736228
 20
64.402520
 42
0.174504
  0
VERTEX
  8
0
 10
143.816483
 20
64.839553
 42
0.050666
  0
VERTEX
  8
0
 10
143.634136
 20
65.511044
 42
-0.034577
  0
VERTEX
  8
0
 10
143.449904
 20
66.112402
 42
-0.149867
  0
VERTEX
  8
0
 10
143.475474
 20
66.480439
 42
-0.333671
  0
VERTEX
  8
0
 10
143.673481
 20
66.604524
 42
-0.117858
  0
VERTEX
  8
0
 10
144.011454
 20
66.492921
 42
-0.105932
  0
VERTEX
  8
0
 10
144.732478
 20
65.801211
 42
-0.182287
  0
VERTEX
  8
0
 10
144.923334
 20
65.002131
 42
-0.107882
  0
VERTEX
  8
0
 10
144.553681
 20
63.960759
 42
-0.025672
  0
VERTEX
  8
0
 10
143.497546
 20
62.441130
 42
-0.003582
  0
VERTEX
  8
0
 10
142.620409
 20
61.324511
 42
-0.176333
  0
VERTEX
  8
0
 10
142.383631
 20
61.179764
 42
-0.569855
  0
VERTEX
  8
0
 10
142.287502
 20
61.286213
 42
-0.008475
  0
VERTEX
  8
0
 10
142.608887
 20
62.261341
 42
0.033245
  0
VERTEX
  8
0
 10
142.834282
 20
63.079389
 42
0.210578
  0
VERTEX
  8
0
 10
142.745266
 20
63.491561
 42
0.280810
  0
VERTEX
  8
0
 10
142.409711
 20
63.631649
 42
0.053645
  0
VERTEX
  8
0
 10
141.742762
 20
63.454783
 42
-0.119781
  0
VERTEX
  8
0
 10
141.068999
 20
63.368080
 42
-0.148624
  0
VERTEX
  8
0
 10
140.490785
 20
63.616326
 42
-0.109105
  0
VERTEX
  8
0
 10
140.024885
 20
64.225607
 42
-0.047145
  0
VERTEX
  8
0
 10
139.681158
 20
65.193442
 42
-0.006114
  0
VERTEX
  8
0
 10
139.369986
 20
66.494216
 42
-0.223528
  0
VERTEX
  8
0
 10
139.434392
 20
66.786004
 42
-0.470969
  0
VERTEX
  8
0
 10
139.635499
 20
66.792727
 42
-0.011898
  0
VERTEX
  8
0
 10
140.303354
 20
66.000000
 42
0.039831
  0
VERTEX
  8
0
 10
140.864815
 20
65.404440
 42
0.031804
  0
VERTEX
  8
0
 10
141.555757
 20
64.855175
 42
0.032786
  0
VERTEX
  8
0
 10
142.265300
 20
64.427419
 42
0.067002
  0
SEQEND
  0
POLYLINE
  8
0
 66
1
 70
1
  0
VERTEX
  8
0
 10
136.541119
 20
61.066531
 42
-0.059523
  0
VERTEX
  8
0
 10
136.216259
 20
60.658569
 42
-0.050715
  0
VERTEX
  8
0
 10
135.787597
 20
60.313294
 42
-0.053114
  0
VERTEX
  8
0
 10
135.325214
 20
60.078071
 42
-0.091370
  0
VERTEX
  8
0
 10
134.901556
 20
60.000000
 42
-0.236389
  0
VERTEX
  8
0
 10
134.649322
 20
60.126309
 42
-0.218285
  0
VERTEX
  8
0
 10
134.587911
 20
60.410998
 42
-0.095760
  0
VERTEX
  8
0
 10
134.782662
 20
60.861158
 42
-0.036357
  0
VERTEX
  8
0
 10
135.210573
 20
61.399141
 42
-0.036267
  0
VERTEX
  8
0
 10
136.170873
 20
62.300380
 42
-0.235763
  0
VERTEX
  8
0
 10
136.798991
 20
62.439593
 42
-0.441210
  0
VERTEX
  8
0
 10
137.009641
 20
62.049187
 42
-0.054386
  0
SEQEND
  0
POLYLINE
  8
0
 66
1
 70
1
  0
VERTEX
  8
0
 10
155.500000
 20
61.000000
 42
-0.064269
  0
VERTEX
  8
0
 10
155.189439
 20
60.617474
 42
-0.051777
  0
VERTEX
  8
0
 10
154.769763
 20
60.293750
 42
-0.053414
  0
VERTEX
  8
0
 10
154.310186
 20
60.073533
 42
-0.085235
  0
VERTEX
  8
0
 10
153.881966
 20
60.000000
 42
-0.117858
  0
VERTEX
  8
0
 10
153.550471
 20
60.079239
 42
-0.186277
  0
VERTEX
  8
0
 10
153.357263
 20
60.293750
 42
-0.154201
  0
VERTEX
  8
0
 10
153.338175
 20
60.617617
 42
-0.076764
  0
VERTEX
  8
0
 10
153.500000
 20
61.000000
 42
-0.064269
  0
VERTEX
  8
0
 10
153.810561
 20
61.382526
 42
-0.051777
  0
VERTEX
  8
0
 10
154.230237
 20
61.706250
 42
-0.053414
  0
VERTEX
  8
0
 10
154.689814
 20
61.926467
 42
-0.085235
  0
VERTEX
  8
0
 10
155.118034
 20
62.000000
 42
-0.117858
  0
VERTEX
  8
0
 10
155.449529
 20
61.920761
 42
-0.186277
  0
VERTEX
  8
0
 10
155.642737
 20
61.706250
 42
-0.154201
  0
VERTEX
  8
0
 10
155.661825
 20
61.382383
 42
-0.076764
  0
SEQEND
  0
POLYLINE
  8
0
 66
1
 70
1
  0
VERTEX
  8
0
 10
154.000000
 20
57.440983
 42
-0.067432
  0
VERTEX
  8
0
 10
153.925389
 20
56.890269
 42
-0.140899
  0
VERTEX
  8
0
 10
153.701458
 20
56.524436
 42
-0.190788
  0
VERTEX
  8
0
 10
153.369640
 20
56.397824
 42
-0.136093
  0
VERTEX
  8
0
 10
152.983688
 20
56.510081
 42
-0.090427
  0
VERTEX
  8
0
 10
152.639411
 20
56.820631
 42
-0.095498
  0
VERTEX
  8
0
 10
152.434921
 20
57.227140
 42
-0.099685
  0
VERTEX
  8
0
 10
152.401101
 20
57.665803
 42
-0.108373
  0
VERTEX
  8
0
 10
152.542705
 20
58.069098
 42
-0.050477
  0
VERTEX
  8
0
 10
153.133140
 20
58.838655
 42
-0.315493
  0
VERTEX
  8
0
 10
153.592818
 20
58.933879
 42
-0.257010
  0
VERTEX
  8
0
 10
153.914842
 20
58.519563
 42
-0.039415
  0
SEQEND
  0
POLYLINE
  8
0
 66
1
 70
1
  0
VERTEX
  8
0
 10
157.816121
 20
56.495774
 42
-0.019039
  0
VERTEX
  8
0
 10
157.348509
 20
55.565096
 42
-0.034614
  0
VERTEX
  8
0
 10
156.887330
 20
54.850122
 42
-0.043766
  0
VERTEX
  8
0
 10
156.490621
 20
54.406426
 42
-0.404981
  0
VERTEX
  8
0
 10
156.256539
 20
54.410128
 42
-0.300693
  0
VERTEX
  8
0
 10
156.127702
 20
55.041766
 42
-0.018521
  0
VERTEX
  8
0
 10
156.948724
 20
56.880207
 42
-0.019051
  0
VERTEX
  8
0
 10
157.906105
 20
58.653076
 42
-0.265366
  0
VERTEX
  8
0
 10
158.513745
 20
59.000000
 42
-0.464369
  0
VERTEX
  8
0
 10
158.626347
 20
58.866672
 42
-0.025889
  0
VERTEX
  8
0
 10
158.491711
 20
58.264384
 42
-0.025154
  0
VERTEX
  8
0
 10
158.222201
 20
57.456495
 42
-0.013811
  0
SEQEND
  0
POLYLINE
  8
0
 66
1
 70
1
  0
VERTEX
  8
0
 10
192.000000
 20
54.031385
 42
-0.184534
  0
VERTEX
  8
0
 10
191.877514
 20
53.710807
 42
-0.147206
  0
VERTEX
  8
0
 10
191.559375
 20
53.516384
 42
-0.100118
  0
VERTEX
  8
0
 10
191.074366
 20
53.488865
 42
-0.055937
  0
VERTEX
  8
0
 10
190.500000
 20
53.638374
 42
-0.021360
  0
VERTEX
  8
0
 10
189.925442
 20
53.887494
 42
-0.030395
  0
VERTEX
  8
0
 10
189.440625
 20
54.160341
 42
-0.030693
  0
VERTEX
  8
0
 10
189.087111
 20
54.420671
 42
-0.222225
  0
VERTEX
  8
0
 10
189.000000
 20
54.606989
 42
-0.289661
  0
VERTEX
  8
0
 10
189.096084
 20
54.758929
 42
-0.046727
  0
VERTEX
  8
0
 10
189.440625
 20
54.884553
 42
-0.039339
  0
VERTEX
  8
0
 10
189.925176
 20
54.971531
 42
-0.024748
  0
VERTEX
  8
0
 10
190.500000
 20
55.000000
 42
-0.062722
  0
VERTEX
  8
0
 10
191.073532
 20
54.927770
 42
-0.080880
  0
VERTEX
  8
0
 10
191.559375
 20
54.715469
 42
-0.098158
  0
VERTEX
  8
0
 10
191.884506
 20
54.400789
 42
-0.152681
  0
SEQEND
  0
POLYLINE
  8
0
 66
1
 70
1
  0
VERTEX
  8
0
 10
131.806872
 20
51.473539
 42
-0.278911
  0
VERTEX
  8
0
 10
131.538684
 20
51.407510
 42
-0.120343
  0
VERTEX
  8
0
 10
131.210949
 20
51.604915
 42
-0.070189
  0
VERTEX
  8
0
 10
130.866277
 20
52.059266
 42
-0.036269
  0
VERTEX
  8
0
 10
130.564293
 20
52.706872
 42
-0.008399
  0
VERTEX
  8
0
 10
130.218210
 20
53.663782
 42
-0.286372
  0
VERTEX
  8
0
 10
130.270328
 20
53.888819
 42
-0.400052
  0
VERTEX
  8
0
 10
130.463552
 20
53.893514
 42
-0.011214
  0
VERTEX
  8
0
 10
131.124088
 20
53.266667
 42
-0.043285
  0
VERTEX
  8
0
 10
131.558688
 20
52.753423
 42
-0.063152
  0
VERTEX
  8
0
 10
131.837219
 20
52.231185
 42
-0.082976
  0
VERTEX
  8
0
 10
131.927901
 20
51.779789
 42
-0.207420
  0
SEQEND
  0
POLYLINE
  8
0
 66
1
 70
1
  0
VERTEX
  8
0
 10
155.018999
 20
52.477108
 42
-0.008807
  0
VERTEX
  8
0
 10
155.707299
 20
51.617386
 42
-0.270710
  0
VERTEX
  8
0
 10
155.741192
 20
51.355597
 42
-0.389672
  0
VERTEX
  8
0
 10
155.541716
 20
51.264678
 42
-0.012731
  0
VERTEX
  8
0
 10
154.641444
 20
51.584097
 42
-0.044200
  0
VERTEX
  8
0
 10
154.013435
 20
51.891147
 42
-0.051260
  0
VERTEX
  8
0
 10
153.482174
 20
52.291272
 42
-0.058677
  0
VERTEX
  8
0
 10
153.117443
 20
52.719384
 42
-0.148172
  0
VERTEX
  8
0
 10
153.000000
 20
53.106989
 42
-0.097466
  0
VERTEX
  8
0
 10
153.129499
 20
53.765008
 42
-0.389178
  0
VERTEX
  8
0
 10
153.469452
 20
53.925000
 42
-0.127361
  0
VERTEX
  8
0
 10
154.053128
 20
53.562498
 42
-0.017238
  0
SEQEND
  0
POLYLINE
  8
0
 66
1
 70
1
  0
VERTEX
  8
0
 10
150.052886
 20
47.449733
 42
-0.001416
  0
VERTEX
  8
0
 10
149.433345
 20
45.396584
 42
-0.232216
  0
VERTEX
  8
0
 10
149.276677
 20
45.229166
 42
-0.511146
  0
VERTEX
  8
0
 10
149.153508
 20
45.310363
 42
-0.002412
  0
VERTEX
  8
0
 10
149.085953
 20
47.083333
 42
-0.024395
  0
VERTEX
  8
0
 10
149.102062
 20
48.121194
 42
-0.028136
  0
VERTEX
  8
0
 10
149.221082
 20
49.103646
 42
-0.028978
  0
VERTEX
  8
0
 10
149.414250
 20
49.911326
 42
-0.123803
  0
VERTEX
  8
0
 10
149.666667
 20
50.333333
 42
-0.131040
  0
VERTEX
  8
0
 10
150.293319
 20
50.696138
 42
-0.453143
  0
VERTEX
  8
0
 10
150.636067
 20
50.468272
 42
-0.091806
  0
VERTEX
  8
0
 10
150.584384
 20
49.434553
 42
-0.014295
  0
SEQEND
  0
POLYLINE
  8
0
 66
1
 70
1
  0
VERTEX
  8
0
 10
154.345077
 20
47.456872
 42
-0.035865
  0
VERTEX
  8
0
 10
154.083816
 20
46.899181
 42
-0.069269
  0
VERTEX
  8
0
 10
153.786868
 20
46.507038
 42
-0.118528
  0
VERTEX
  8
0
 10
153.505460
 20
46.335123
 42
-0.281567
  0
VERTEX
  8
0
 10
153.276326
 20
46.390341
 42
-0.156651
  0
VERTEX
  8
0
 10
153.142323
 20
46.651151
 42
-0.070517
  0
VERTEX
  8
0
 10
153.133355
 20
47.040231
 42
-0.059701
  0
VERTEX
  8
0
 10
153.242038
 20
47.490157
 42
-0.049364
  0
VERTEX
  8
0
 10
153.458881
 20
47.933469
 42
-0.030391
  0
VERTEX
  8
0
 10
154.120758
 20
48.871774
 42
-0.361950
  0
VERTEX
  8
0
 10
154.525317
 20
48.954259
 42
-0.344086
  0
VERTEX
  8
0
 10
154.696703
 20
48.564815
 42
-0.029555
  0
SEQEND
  0
POLYLINE
  8
0
 66
1
 70
1
  0
VERTEX
  8
0
 10
140.662281
 20
42.750000
 42
-0.174857
  0
VERTEX
  8
0
 10
140.474999
 20
42.540618
 42
-0.447206
  0
VERTEX
  8
0
 10
140.306058
 20
42.601562
 42
-0.078554
  0
VERTEX
  8
0
 10
140.189089
 20
43.108560
 42
-0.017491
  0
VERTEX
  8
0
 10
140.157895
 20
44.000000
 42
-0.017491
  0
VERTEX
  8
0
 10
140.189089
 20
44.891440
 42
-0.078554
  0
VERTEX
  8
0
 10
140.306058
 20
45.398438
 42
-0.447206
  0
VERTEX
  8
0
 10
140.474999
 20
45.459382
 42
-0.174857
  0
VERTEX
  8
0
 10
140.662281
 20
45.250000
 42
-0.057986
  0
VERTEX
  8
0
 10
140.818615
 20
44.679992
 42
-0.037979
  0
VERTEX
  8
0
 10
140.870340
 20
44.000000
 42
-0.037979
  0
VERTEX
  8
0
 10
140.818615
 20
43.320008
 42
-0.057986
  0
SEQEND
  0
POLYLINE
  8
0
 66
1
 70
1
  0
VERTEX
  8
0
 10
124.000000
 20
41.622445
 42
-0.184603
  0
VERTEX
  8
0
 10
123.918850
 20
41.410139
 42
-0.013803
  0
VERTEX
  8
0
 10
123.485938
 20
40.952641
 42
-0.017649
  0
VERTEX
  8
0
 10
122.920402
 20
40.425681
 42
-0.012436
  0
VERTEX
  8
0
 10
122.250000
 20
39.872445
 42
-0.001576
  0
VERTEX
  8
0
 10
121.120493
 20
38.992360
 42
-0.377591
  0
VERTEX
  8
0
 10
121.000000
 20
39.000000
 42
-0.377591
  0
VERTEX
  8
0
 10
120.992360
 20
39.120493
 42
-0.001576
  0
VERTEX
  8
0
 10
121.872445
 20
40.250000
 42
-0.017685
  0
VERTEX
  8
0
 10
122.763320
 20
41.306759
 42
-0.065617
  0
VERTEX
  8
0
 10
123.426111
 20
41.869516
 42
-0.241985
  0
VERTEX
  8
0
 10
123.806605
 20
41.906950
 42
-0.307699
  0
SEQEND
  0
POLYLINE
  8
0
 66
1
 70
1
  0
VERTEX
  8
0
 10
139.124088
 20
38.733333
 42
-0.011214
  0
VERTEX
  8
0
 10
138.463552
 20
38.106486
 42
-0.400052
  0
VERTEX
  8
0
 10
138.270328
 20
38.111181
 42
-0.286372
  0
VERTEX
  8
0
 10
138.218210
 20
38.336218
 42
-0.008399
  0
VERTEX
  8
0
 10
138.564293
 20
39.293128
 42
-0.036269
  0
VERTEX
  8
0
 10
138.866277
 20
39.940734
 42
-0.070189
  0
VERTEX
  8
0
 10
139.210949
 20
40.395085
 42
-0.120343
  0
VERTEX
  8
0
 10
139.538684
 20
40.592490
 42
-0.278911
  0
VERTEX
  8
0
 10
139.806872
 20
40.526461
 42
-0.207420
  0
VERTEX
  8
0
 10
139.927901
 20
40.220211
 42
-0.082976
  0
VERTEX
  8
0
 10
139.837219
 20
39.768815
 42
-0.063152
  0
VERTEX
  8
0
 10
139.558688
 20
39.246577
 42
-0.043285
  0
SEQEND
  0
POLYLINE
  8
0
 66
1
 70
1
  0
VERTEX
  8
0
 10
158.662281
 20
37.750000
 42
-0.174857
  0
VERTEX
  8
0
 10
158.474999
 20
37.540618
 42
-0.447206
  0
VERTEX
  8
0
 10
158.306058
 20
37.601562
 42
-0.078554
  0
VERTEX
  8
0
 10
158.189089
 20
38.108560
 42
-0.017491
  0
VERTEX
  8
0
 10
158.157895
 20
39.000000
 42
-0.017491
  0
VERTEX
  8
0
 10
158.189089
 20
39.891440
 42
-0.078554
  0
VERTEX
  8
0
 10
158.306058
 20
40.398438
 42
-0.447206
  0
VERTEX
  8
0
 10
158.474999
 20
40.459382
 42
-0.174857
  0
VERTEX
  8
0
 10
158.662281
 20
40.250000
 42
-0.057986
  0
VERTEX
  8
0
 10
158.818615
 20
39.679992
 42
-0.037979
  0
VERTEX
  8
0
 10
158.870340
 20
39.000000
 42
-0.037979
  0
VERTEX
  8
0
 10
158.818615
 20
38.320008
 42
-0.057986
  0
SEQEND
  0
POLYLINE
  8
0
 66
1
 70
1
  0
VERTEX
  8
0
 10
122.806872
 20
34.473539
 42
-0.278911
  0
VERTEX
  8
0
 10
122.538684
 20
34.407510
 42
-0.120343
  0
VERTEX
  8
0
 10
122.210949
 20
34.604915
 42
-0.070189
  0
VERTEX
  8
0
 10
121.866277
 20
35.059266
 42
-0.036269
  0
VERTEX
  8
0
 10
121.564293
 20
35.706872
 42
-0.008399
  0
VERTEX
  8
0
 10
121.218210
 20
36.663782
 42
-0.286372
  0
VERTEX
  8
0
 10
121.270328
 20
36.888819
 42
-0.400052
  0
VERTEX
  8
0
 10
121.463552
 20
36.893514
 42
-0.011214
  0
VERTEX
  8
0
 10
122.124088
 20
36.266667
 42
-0.043285
  0
VERTEX
  8
0
 10
122.558688
 20
35.753423
 42
-0.063152
  0
VERTEX
  8
0
 10
122.837219
 20
35.231185
 42
-0.082976
  0
VERTEX
  8
0
 10
122.927901
 20
34.779789
 42
-0.207420
  0
SEQEND
  0
POLYLINE
  8
0
 66
1
 70
1
  0
VERTEX
  8
0
 10
163.000000
 20
34.559017
 42
-0.151918
  0
VERTEX
  8
0
 10
162.934461
 20
34.348290
 42
-0.038439
  0
VERTEX
  8
0
 10
162.706250
 20
34.066025
 42
-0.035638
  0
VERTEX
  8
0
 10
162.382774
 20
33.768994
 42
-0.029505
  0
VERTEX
  8
0
 10
162.000000
 20
33.500000
 42
-0.082592
  0
VERTEX
  8
0
 10
161.617900
 20
33.343488
 42
-0.161196
  0
VERTEX
  8
0
 10
161.293750
 20
33.374600
 42
-0.182303
  0
VERTEX
  8
0
 10
161.078288
 20
33.586039
 42
-0.108972
  0
VERTEX
  8
0
 10
161.000000
 20
33.940983
 42
-0.093332
  0
VERTEX
  8
0
 10
161.076123
 20
34.345238
 42
-0.096420
  0
VERTEX
  8
0
 10
161.293750
 20
34.688914
 42
-0.099167
  0
VERTEX
  8
0
 10
161.618444
 20
34.918938
 42
-0.105053
  0
VERTEX
  8
0
 10
162.000000
 20
35.000000
 42
-0.042167
  0
VERTEX
  8
0
 10
162.382849
 20
34.967655
 42
-0.061769
  0
VERTEX
  8
0
 10
162.706250
 20
34.870461
 42
-0.081139
  0
VERTEX
  8
0
 10
162.925540
 20
34.727648
 42
-0.210953
  0
SEQEND
  0
POLYLINE
  8
0
 66
1
 70
1
  0
VERTEX
  8
0
 10
144.662281
 20
29.750000
 42
-0.174857
  0
VERTEX
  8
0
 10
144.474999
 20
29.540618
 42
-0.447206
  0
VERTEX
  8
0
 10
144.306058
 20
29.601562
 42
-0.078554
  0
VERTEX
  8
0
 10
144.189089
 20
30.108560
 42
-0.017491
  0
VERTEX
  8
0
 10
144.157895
 20
31.000000
 42
-0.017491
  0
VERTEX
  8
0
 10
144.189089
 20
31.891440
 42
-0.078554
  0
VERTEX
  8
0
 10
144.306058
 20
32.398438
 42
-0.447206
  0
VERTEX
  8
0
 10
144.474999
 20
32.459382
 42
-0.174857
  0
VERTEX
  8
0
 10
144.662281
 20
32.250000
 42
-0.057986
  0
VERTEX
  8
0
 10
144.818615
 20
31.679992
 42
-0.037979
  0
VERTEX
  8
0
 10
144.870340
 20
31.000000
 42
-0.037979
  0
VERTEX
  8
0
 10
144.818615
 20
30.320008
 42
-0.057986
  0
SEQEND
  0
POLYLINE
  8
0
 66
1
 70
1
  0
VERTEX
  8
0
 10
175.500000
 20
31.000000
 42
-0.082592
  0
VERTEX
  8
0
 10
175.656512
 20
30.617900
 42
-0.161196
  0
VERTEX
  8
0
 10
175.625400
 20
30.293750
 42
-0.182303
  0
VERTEX
  8
0
 10
175.413961
 20
30.078288
 42
-0.108972
  0
VERTEX
  8
0
 10
175.059017
 20
30.000000
 42
-0.093332
  0
VERTEX
  8
0
 10
174.654762
 20
30.076123
 42
-0.096420
  0
VERTEX
  8
0
 10
174.311086
 20
30.293750
 42
-0.099167
  0
VERTEX
  8
0
 10
174.081062
 20
30.618444
 42
-0.105053
  0
VERTEX
  8
0
 10
174.000000
 20
31.000000
 42
-0.042167
  0
VERTEX
  8
0
 10
174.032345
 20
31.382849
 42
-0.061769
  0
VERTEX
  8
0
 10
174.129539
 20
31.706250
 42
-0.081139
  0
VERTEX
  8
0
 10
174.272352
 20
31.925540
 42
-0.210953
  0
VERTEX
  8
0
 10
174.440983
 20
32.000000
 42
-0.151918
  0
VERTEX
  8
0
 10
174.651710
 20
31.934461
 42
-0.038439
  0
VERTEX
  8
0
 10
174.933975
 20
31.706250
 42
-0.035638
  0
VERTEX
  8
0
 10
175.231006
 20
31.382774
 42
-0.029505
  0
SEQEND
  0
POLYLINE
  8
0
 66
1
 70
1
  0
VERTEX
  8
0
 10
142.995269
 20
23.287676
 42
-0.001285
  0
VERTEX
  8
0
 10
142.215612
 20
22.078613
 42
-0.274771
  0
VERTEX
  8
0
 10
142.096136
 20
22.019541
 42
-0.480310
  0
VERTEX
  8
0
 10
142.041936
 20
22.099086
 42
-0.001747
  0
VERTEX
  8
0
 10
142.424495
 20
23.331787
 42
0.012294
  0
VERTEX
  8
0
 10
142.650633
 20
24.118725
 42
0.010113
  0
VERTEX
  8
0
 10
142.854136
 20
24.968650
 42
0.010249
  0
VERTEX
  8
0
 10
143.009284
 20
25.757118
 42
0.026585
  0
VERTEX
  8
0
 10
143.078947
 20
26.331787
 42
-0.019832
  0
VERTEX
  8
0
 10
143.135852
 20
26.860903
 42
-0.393954
  0
VERTEX
  8
0
 10
143.252586
 20
26.954040
 42
-0.269455
  0
VERTEX
  8
0
 10
143.403102
 20
26.850283
 42
-0.013863
  0
VERTEX
  8
0
 10
143.649722
 20
26.287676
 42
-0.103788
  0
VERTEX
  8
0
 10
143.756682
 20
25.695062
 42
-0.046663
  0
VERTEX
  8
0
 10
143.660355
 20
24.906342
 42
-0.043469
  0
VERTEX
  8
0
 10
143.397416
 20
24.061330
 42
-0.045436
  0
SEQEND
  0
POLYLINE
  8
0
 66
1
 70
1
  0
VERTEX
  8
0
 10
161.000000
 20
23.000000
 42
-0.099038
  0
VERTEX
  8
0
 10
160.923658
 20
22.618362
 42
-0.097945
  0
VERTEX
  8
0
 10
160.706250
 20
22.293750
 42
-0.097945
  0
VERTEX
  8
0
 10
160.381638
 20
22.076342
 42
-0.099038
  0
VERTEX
  8
0
 10
160.000000
 20
22.000000
 42
-0.099038
  0
VERTEX
  8
0
 10
159.618362
 20
22.076342
 42
-0.097945
  0
VERTEX
  8
0
 10
159.293750
 20
22.293750
 42
-0.097945
  0
VERTEX
  8
0
 10
159.076342
 20
22.618362
 42
-0.099038
  0
VERTEX
  8
0
 10
159.000000
 20
23.000000
 42
-0.099038
  0
VERTEX
  8
0
 10
159.076342
 20
23.381638
 42
-0.097945
  0
VERTEX
  8
0
 10
159.293750
 20
23.706250
 42
-0.097945
  0
VERTEX
  8
0
 10
159.618362
 20
23.923658
 42
-0.099038
  0
VERTEX
  8
0
 10
160.000000
 20
24.000000
 42
-0.099038
  0
VERTEX
  8
0
 10
160.381638
 20
23.923658
 42
-0.097945
  0
VERTEX
  8
0
 10
160.706250
 20
23.706250
 42
-0.097945
  0
VERTEX
  8
0
 10
160.923658
 20
23.381638
 42
-0.099038
  0
SEQEND
  0
POLYLINE
  8
0
 66
1
 70
1
  0
VERTEX
  8
0
 10
124.662281
 20
19.750000
 42
-0.174857
  0
VERTEX
  8
0
 10
124.474999
 20
19.540618
 42
-0.447206
  0
VERTEX
  8
0
 10
124.306058
 20
19.601562
 42
-0.078554
  0
VERTEX
  8
0
 10
124.189089
 20
20.108560
 42
-0.017491
  0
VERTEX
  8
0
 10
124.157895
 20
21.000000
 42
-0.017491
  0
VERTEX
  8
0
 10
124.189089
 20
21.891440
 42
-0.078554
  0
VERTEX
  8
0
 10
124.306058
 20
22.398438
 42
-0.447206
  0
VERTEX
  8
0
 10
124.474999
 20
22.459382
 42
-0.174857
  0
VERTEX
  8
0
 10
124.662281
 20
22.250000
 42
-0.057986
  0
VERTEX
  8
0
 10
124.818615
 20
21.679992
 42
-0.037979
  0
VERTEX
  8
0
 10
124.870340
 20
21.000000
 42
-0.037979
  0
VERTEX
  8
0
 10
124.818615
 20
20.320008
 42
-0.057986
  0
SEQEND
  0
POLYLINE
  8
0
 66
1
 70
1
  0
VERTEX
  8
0
 10
161.414286
 20
5.014286
 42
-0.090732
  0
VERTEX
  8
0
 10
160.990389
 20
4.721518
 42
-0.311764
  0
VERTEX
  8
0
 10
160.678571
 20
4.778571
 42
-0.165815
  0
VERTEX
  8
0
 10
160.481152
 20
5.180305
 42
-0.032041
  0
VERTEX
  8
0
 10
160.428571
 20
6.000000
 42
-0.032041
  0
VERTEX
  8
0
 10
160.481152
 20
6.819695
 42
-0.165815
  0
VERTEX
  8
0
 10
160.678571
 20
7.221429
 42
-0.311764
  0
VERTEX
  8
0
 10
160.990389
 20
7.278482
 42
-0.090732
  0
VERTEX
  8
0
 10
161.414286
 20
6.985714
 42
-0.074369
  0
VERTEX
  8
0
 10
161.776302
 20
6.496362
 42
-0.122728
  0
VERTEX
  8
0
 10
161.900000
 20
6.000000
 42
-0.122728
  0
VERTEX
  8
0
 10
161.776302
 20
5.503638
 42
-0.074369
  0
SEQEND
  0
POLYLINE
  8
0
 66
1
 70
1
  0
VERTEX
  8
0
 10
128.441465
 20
194.708055
 42
0.074665
  0
VERTEX
  8
0
 10
128.244408
 20
193.815765
 42
0.009305
  0
VERTEX
  8
0
 10
128.145533
 20
191.827656
 42
0.010796
  0
VERTEX
  8
0
 10
128.122939
 20
189.447101
 42
0.008752
  0
VERTEX
  8
0
 10
128.198527
 20
186.894673
 42
0.000000
  0
VERTEX
  8
0
 10
128.500000
 20
180.500000
 42
0.000000
  0
VERTEX
  8
0
 10
129.542464
 20
187.819247
 42
0.010895
  0
VERTEX
  8
0
 10
129.884100
 20
190.660025
 42
0.016705
  0
VERTEX
  8
0
 10
130.043843
 20
193.133618
 42
0.011275
  0
VERTEX
  8
0
 10
130.061020
 20
195.146321
 42
0.256196
  0
VERTEX
  8
0
 10
129.785401
 20
195.632629
 42
0.171098
  0
VERTEX
  8
0
 10
129.438087
 20
195.708351
 42
0.120160
  0
VERTEX
  8
0
 10
129.060815
 20
195.564866
 42
0.090807
  0
VERTEX
  8
0
 10
128.708955
 20
195.214188
 42
0.059961
  0
SEQEND
  0
POLYLINE
  8
0
 66
1
 70
1
  0
VERTEX
  8
0
 10
199.157895
 20
8.000000
 42
0.017491
  0
VERTEX
  8
0
 10
199.189089
 20
7.108560
 42
0.078554
  0
VERTEX
  8
0
 10
199.306058
 20
6.601562
 42
0.447206
  0
VERTEX
  8
0
 10
199.474999
 20
6.540618
 42
0.174857
  0
VERTEX
  8
0
 10
199.662281
 20
6.750000
 42
0.057986
  0
VERTEX
  8
0
 10
199.818615
 20
7.320008
 42
0.037979
  0
VERTEX
  8
0
 10
199.870340
 20
8.000000
 42
0.037979
  0
VERTEX
  8
0
 10
199.818615
 20
8.679992
 42
0.057986
  0
VERTEX
  8
0
 10
199.662281
 20
9.250000
 42
0.174857
  0
VERTEX
  8
0
 10
199.474999
 20
9.459382
 42
0.447206
  0
VERTEX
  8
0
 10
199.306058
 20
9.398438
 42
0.078554
  0
VERTEX
  8
0
 10
199.189089
 20
8.891440
 42
0.017491
  0
SEQEND
  0
POLYLINE
  8
0
 66
1
 70
1
  0
VERTEX
  8
0
 10
199.078947
 20
3.416667
 42
0.018894
  0
VERTEX
  8
0
 10
199.137993
 20
2.670344
 42
0.168741
  0
VERTEX
  8
0
 10
199.279315
 20
2.378580
 42
0.470617
  0
VERTEX
  8
0
 10
199.461564
 20
2.395823
 42
0.054073
  0
VERTEX
  8
0
 10
199.683114
 20
2.812500
 42
0.051402
  0
VERTEX
  8
0
 10
199.839148
 20
3.359369
 42
0.054150
  0
VERTEX
  8
0
 10
199.876576
 20
3.916927
 42
0.060344
  0
VERTEX
  8
0
 10
199.797407
 20
4.402231
 42
0.126455
  0
VERTEX
  8
0
 10
199.604167
 20
4.729167
 42
0.296942
  0
VERTEX
  8
0
 10
199.385309
 20
4.775380
 42
0.208169
  0
VERTEX
  8
0
 10
199.200665
 20
4.592839
 42
0.077125
  0
VERTEX
  8
0
 10
199.089945
 20
4.112848
 42
0.028489
  0
SEQEND
  0
POLYLINE
  8
0
 66
1
 70
1
  0
VERTEX
  8
0
 10
208.500000
 20
222.584892
 42
0.064172
  0
VERTEX
  8
0
 10
204.099689
 20
220.890095
 42
0.023115
  0
VERTEX
  8
0
 10
198.342036
 20
217.422864
 42
0.016153
  0
VERTEX
  8
0
 10
193.001623
 20
213.605799
 42
0.233599
  0
VERTEX
  8
0
 10
192.000000
 20
211.578895
 42
-0.131381
  0
VERTEX
  8
0
 10
191.832933
 20
210.954057
 42
-0.018506
  0
VERTEX
  8
0
 10
191.118750
 20
209.813747
 42
-0.020059
  0
VERTEX
  8
0
 10
190.148734
 20
208.501786
 42
-0.015845
  0
VERTEX
  8
0
 10
189.000000
 20
207.161143
 42
0.015564
  0
VERTEX
  8
0
 10
187.851245
 20
205.822002
 42
0.019797
  0
VERTEX
  8
0
 10
186.881250
 20
204.514584
 42
0.018141
  0
VERTEX
  8
0
 10
186.165799
 20
203.379583
 42
0.132304
  0
VERTEX
  8
0
 10
186.000000
 20
202.763968
 42
0.610095
  0
VERTEX
  8
0
 10
186.642564
 20
202.433370
 42
0.047352
  0
VERTEX
  8
0
 10
188.529264
 20
204.071762
 42
0.034048
  0
VERTEX
  8
0
 10
190.678909
 20
206.660374
 42
0.058128
  0
VERTEX
  8
0
 10
192.046183
 20
209.111497
 42
-0.052661
  0
VERTEX
  8
0
 10
192.693981
 20
210.303155
 42
-0.048700
  0
VERTEX
  8
0
 10
193.591553
 20
211.367772
 42
-0.051266
  0
VERTEX
  8
0
 10
194.618613
 20
212.182404
 42
-0.080729
  0
VERTEX
  8
0
 10
195.649918
 20
212.626983
 42
0.046328
  0
VERTEX
  8
0
 10
196.657463
 20
212.981682
 42
0.033587
  0
VERTEX
  8
0
 10
197.702950
 20
213.550437
 42
0.034182
  0
VERTEX
  8
0
 10
198.630271
 20
214.231857
 42
0.060814
  0
VERTEX
  8
0
 10
199.273329
 20
214.925935
 42
-0.072780
  0
VERTEX
  8
0
 10
200.054680
 20
215.729980
 42
-0.017521
  0
VERTEX
  8
0
 10
201.571621
 20
216.811494
 42
-0.017622
  0
VERTEX
  8
0
 10
203.418596
 20
217.941575
 42
-0.016666
  0
VERTEX
  8
0
 10
205.374741
 20
218.961264
 42
-0.027800
  0
VERTEX
  8
0
 10
208.232185
 20
220.141204
 42
-0.041723
  0
VERTEX
  8
0
 10
210.843109
 20
220.815182
 42
-0.034375
  0
VERTEX
  8
0
 10
213.876542
 20
221.121074
 42
-0.012695
  0
VERTEX
  8
0
 10
218.176435
 20
221.148540
 42
-0.014185
  0
VERTEX
  8
0
 10
221.619998
 20
220.985296
 42
-0.018871
  0
VERTEX
  8
0
 10
224.733210
 20
220.630493
 42
-0.020752
  0
VERTEX
  8
0
 10
227.309628
 20
220.127740
 42
-0.060834
  0
VERTEX
  8
0
 10
229.002034
 20
219.498948
 42
0.007378
  0
VERTEX
  8
0
 10
231.409887
 20
218.298494
 42
0.112908
  0
VERTEX
  8
0
 10
232.310502
 20
218.094380
 42
0.448147
  0
VERTEX
  8
0
 10
232.620893
 20
218.443895
 42
0.062573
  0
VERTEX
  8
0
 10
232.359463
 20
219.505636
 42
0.148601
  0
VERTEX
  8
0
 10
231.875292
 20
220.127620
 42
0.042501
  0
VERTEX
  8
0
 10
230.808479
 20
220.751755
 42
0.038747
  0
VERTEX
  8
0
 10
229.422542
 20
221.284445
 42
0.032743
  0
VERTEX
  8
0
 10
227.890848
 20
221.633445
 42
-0.014627
  0
VERTEX
  8
0
 10
226.399521
 20
221.916881
 42
-0.023112
  0
VERTEX
  8
0
 10
225.142796
 20
222.255622
 42
-0.019333
  0
VERTEX
  8
0
 10
224.184068
 20
222.603592
 42
-0.304741
  0
VERTEX
  8
0
 10
223.999522
 20
222.877808
 42
0.407495
  0
VERTEX
  8
0
 10
223.278264
 20
223.614711
 42
0.010281
  0
VERTEX
  8
0
 10
218.149435
 20
223.623248
 42
0.019420
  0
VERTEX
  8
0
 10
212.798341
 20
223.313977
 42
0.035742
  0
SEQEND
  0
POLYLINE
  8
0
 66
1
 70
1
  0
VERTEX
  8
0
 10
204.301752
 20
214.998756
 42
0.017778
  0
VERTEX
  8
0
 10
201.834133
 20
213.751850
 42
0.019654
  0
VERTEX
  8
0
 10
199.544627
 20
212.370914
 42
0.019447
  0
VERTEX
  8
0
 10
197.695235
 20
211.048014
 42
0.088411
  0
VERTEX
  8
0
 10
196.811206
 20
210.069300
 42
-0.035645
  0
VERTEX
  8
0
 10
196.234440
 20
209.277430
 42
-0.040001
  0
VERTEX
  8
0
 10
195.571097
 20
208.607857
 42
-0.043825
  0
VERTEX
  8
0
 10
194.921739
 20
208.141800
 42
-0.134535
  0
VERTEX
  8
0
 10
194.404276
 20
208.000000
 42
0.271772
  0
VERTEX
  8
0
 10
193.344472
 20
207.378008
 42
0.003203
  0
VERTEX
  8
0
 10
189.299286
 20
200.024781
 42
0.005375
  0
VERTEX
  8
0
 10
185.524711
 20
192.875753
 42
0.121725
  0
VERTEX
  8
0
 10
184.991725
 20
190.627555
 42
0.576083
  0
VERTEX
  8
0
 10
185.531719
 20
190.321225
 42
0.095149
  0
VERTEX
  8
0
 10
186.674264
 20
191.321304
 42
0.036272
  0
VERTEX
  8
0
 10
188.355371
 20
193.834512
 42
0.019756
  0
VERTEX
  8
0
 10
190.062436
 20
197.133303
 42
-0.086683
  0
VERTEX
  8
0
 10
196.961788
 20
206.984564
 42
-0.105189
  0
VERTEX
  8
0
 10
206.390275
 20
213.125411
 42
-0.118119
  0
VERTEX
  8
0
 10
216.631238
 20
214.490749
 42
-0.131832
  0
VERTEX
  8
0
 10
225.917459
 20
210.944832
 42
0.012368
  0
VERTEX
  8
0
 10
227.484313
 20
209.867875
 42
0.023679
  0
VERTEX
  8
0
 10
228.800754
 20
209.096387
 42
0.026475
  0
VERTEX
  8
0
 10
229.772867
 20
208.650786
 42
0.529433
  0
VERTEX
  8
0
 10
230.000000
 20
208.805166
 42
0.172814
  0
VERTEX
  8
0
 10
229.571348
 20
210.008342
 42
0.027329
  0
VERTEX
  8
0
 10
227.854788
 20
211.891546
 42
0.027556
  0
VERTEX
  8
0
 10
225.940786
 20
213.576749
 42
0.166958
  0
VERTEX
  8
0
 10
224.711045
 20
214.006161
 42
-0.072718
  0
VERTEX
  8
0
 10
224.057308
 20
214.105142
 42
-0.015821
  0
VERTEX
  8
0
 10
222.974494
 20
214.472513
 42
-0.016171
  0
VERTEX
  8
0
 10
221.737374
 20
214.982581
 42
-0.014866
  0
VERTEX
  8
0
 10
220.500000
 20
215.585092
 42
0.056324
  0
VERTEX
  8
0
 10
216.705987
 20
217.058117
 42
0.073630
  0
VERTEX
  8
0
 10
213.012164
 20
217.469125
 42
0.065165
  0
VERTEX
  8
0
 10
209.022081
 20
216.799272
 42
0.033977
  0
SEQEND
  0
POLYLINE
  8
0
 66
1
 70
1
  0
VERTEX
  8
0
 10
235.284567
 20
210.250000
 42
-0.075722
  0
VERTEX
  8
0
 10
236.338195
 20
206.856663
 42
-0.027747
  0
VERTEX
  8
0
 10
236.813073
 20
201.842514
 42
-0.027534
  0
VERTEX
  8
0
 10
236.725569
 20
196.410378
 42
-0.037343
  0
VERTEX
  8
0
 10
236.012940
 20
191.557740
 42
0.010220
  0
VERTEX
  8
0
 10
235.631596
 20
189.676724
 42
0.015282
  0
VERTEX
  8
0
 10
235.382619
 20
188.018351
 42
0.010186
  0
VERTEX
  8
0
 10
235.248175
 20
186.652089
 42
0.219191
  0
VERTEX
  8
0
 10
235.385007
 20
186.281660
 42
0.508081
  0
VERTEX
  8
0
 10
236.251550
 20
186.416870
 42
0.041766
  0
VERTEX
  8
0
 10
237.278486
 20
188.898610
 42
0.031576
  0
VERTEX
  8
0
 10
238.232569
 20
192.702842
 42
0.019040
  0
VERTEX
  8
0
 10
238.902448
 20
197.305717
 42
0.012286
  0
VERTEX
  8
0
 10
239.228011
 20
201.273187
 42
0.038616
  0
VERTEX
  8
0
 10
239.174894
 20
203.943322
 42
0.049006
  0
VERTEX
  8
0
 10
238.726823
 20
206.211719
 42
0.030890
  0
VERTEX
  8
0
 10
237.788317
 20
208.745639
 42
0.017980
  0
VERTEX
  8
0
 10
236.996159
 20
210.375412
 42
0.025906
  0
VERTEX
  8
0
 10
236.171673
 20
211.750281
 42
0.024063
  0
VERTEX
  8
0
 10
235.411112
 20
212.771575
 42
0.224296
  0
VERTEX
  8
0
 10
234.927525
 20
213.000000
 42
0.342058
  0
VERTEX
  8
0
 10
234.652423
 20
212.786859
 42
0.095685
  0
VERTEX
  8
0
 10
234.616581
 20
212.206485
 42
0.054585
  0
VERTEX
  8
0
 10
234.830828
 20
211.324015
 42
0.026251
  0
SEQEND
  0
POLYLINE
  8
0
 66
1
 70
1
  0
VERTEX
  8
0
 10
230.865389
 20
202.219780
 42
-0.045651
  0
VERTEX
  8
0
 10
230.812410
 20
197.726257
 42
-0.026228
  0
VERTEX
  8
0
 10
229.972998
 20
192.370708
 42
-0.024786
  0
VERTEX
  8
0
 10
228.677880
 20
187.452349
 42
-0.099890
  0
VERTEX
  8
0
 10
227.179893
 20
184.750000
 42
0.024404
  0
VERTEX
  8
0
 10
226.661828
 20
184.077608
 42
0.055322
  0
VERTEX
  8
0
 10
226.356044
 20
183.514062
 42
0.120265
  0
VERTEX
  8
0
 10
226.302158
 20
183.150728
 42
0.387475
  0
VERTEX
  8
0
 10
226.467457
 20
183.000000
 42
-0.332104
  0
VERTEX
  8
0
 10
226.648279
 20
182.865008
 42
-0.150571
  0
VERTEX
  8
0
 10
226.644941
 20
182.552276
 42
-0.067150
  0
VERTEX
  8
0
 10
226.411690
 20
182.061504
 42
-0.028746
  0
VERTEX
  8
0
 10
225.979944
 20
181.475834
 42
0.072655
  0
VERTEX
  8
0
 10
225.149198
 20
180.113741
 42
0.378558
  0
VERTEX
  8
0
 10
225.404547
 20
179.346179
 42
0.263809
  0
VERTEX
  8
0
 10
226.407373
 20
179.336149
 42
0.057488
  0
VERTEX
  8
0
 10
227.867670
 20
180.380243
 42
0.069717
  0
VERTEX
  8
0
 10
228.632017
 20
181.295063
 42
0.031687
  0
VERTEX
  8
0
 10
229.372263
 20
182.671380
 42
0.030607
  0
VERTEX
  8
0
 10
229.980990
 20
184.245875
 42
0.036711
  0
VERTEX
  8
0
 10
230.349787
 20
185.790779
 42
-0.004834
  0
VERTEX
  8
0
 10
230.655476
 20
187.565087
 42
-0.002200
  0
VERTEX
  8
0
 10
231.087765
 20
189.879166
 42
-0.002178
  0
VERTEX
  8
0
 10
231.564824
 20
192.314574
 42
-0.002992
  0
VERTEX
  8
0
 10
232.016429
 20
194.500000
 42
0.035023
  0
VERTEX
  8
0
 10
232.534907
 20
198.186066
 42
0.034377
  0
VERTEX
  8
0
 10
232.538640
 20
201.931673
 42
0.033064
  0
VERTEX
  8
0
 10
232.115948
 20
205.071092
 42
0.207201
  0
VERTEX
  8
0
 10
231.211268
 20
206.369471
 42
0.516328
  0
VERTEX
  8
0
 10
230.957395
 20
206.262246
 42
0.033702
  0
VERTEX
  8
0
 10
230.816268
 20
205.331847
 42
0.026863
  0
VERTEX
  8
0
 10
230.775573
 20
203.950154
 42
0.013796
  0
SEQEND
  0
POLYLINE
  8
0
 66
1
 70
1
  0
VERTEX
  8
0
 10
158.666667
 20
200.333333
 42
0.063896
  0
VERTEX
  8
0
 10
158.411277
 20
200.002755
 42
0.039129
  0
VERTEX
  8
0
 10
158.195833
 20
199.558958
 42
0.038674
  0
VERTEX
  8
0
 10
158.048893
 20
199.077840
 42
0.054831
  0
VERTEX
  8
0
 10
158.000000
 20
198.633333
 42
0.142677
  0
VERTEX
  8
0
 10
158.093678
 20
198.311730
 42
0.290264
  0
VERTEX
  8
0
 10
158.322581
 20
198.204271
 42
0.131573
  0
VERTEX
  8
0
 10
158.693024
 20
198.355562
 42
0.034019
  0
VERTEX
  8
0
 10
159.183333
 20
198.783333
 42
0.041736
  0
VERTEX
  8
0
 10
159.598500
 20
199.274266
 42
0.061283
  0
VERTEX
  8
0
 10
159.867292
 20
199.770833
 42
0.080535
  0
VERTEX
  8
0
 10
159.959631
 20
200.197768
 42
0.212536
  0
VERTEX
  8
0
 10
159.850000
 20
200.483333
 42
0.128169
  0
VERTEX
  8
0
 10
159.601612
 20
200.629018
 42
0.100736
  0
VERTEX
  8
0
 10
159.289271
 20
200.652396
 42
0.089268
  0
VERTEX
  8
0
 10
158.960280
 20
200.549128
 42
0.075941
  0
SEQEND
  0
POLYLINE
  8
0
 66
1
 70
1
  0
VERTEX
  8
0
 10
176.665926
 20
185.929404
 42
-0.025580
  0
VERTEX
  8
0
 10
175.168670
 20
180.043409
 42
-0.096590
  0
VERTEX
  8
0
 10
173.377812
 20
176.708612
 42
-0.089849
  0
VERTEX
  8
0
 10
170.396474
 20
174.165846
 42
-0.020426
  0
VERTEX
  8
0
 10
164.500000
 20
171.050145
 42
-0.010818
  0
VERTEX
  8
0
 10
159.171447
 20
168.647333
 42
-0.024732
  0
VERTEX
  8
0
 10
155.035746
 20
167.125780
 42
-0.032185
  0
VERTEX
  8
0
 10
151.564261
 20
166.280905
 42
-0.043624
  0
VERTEX
  8
0
 10
148.350777
 20
166.000000
 42
0.021384
  0
VERTEX
  8
0
 10
147.066516
 20
165.945049
 42
0.034396
  0
VERTEX
  8
0
 10
145.984291
 20
165.776735
 42
0.038113
  0
VERTEX
  8
0
 10
145.200887
 20
165.535050
 42
0.308067
  0
VERTEX
  8
0
 10
145.000000
 20
165.239949
 42
0.442081
  0
VERTEX
  8
0
 10
145.970948
 20
164.356411
 42
0.012027
  0
VERTEX
  8
0
 10
152.341441
 20
165.113262
 42
0.020489
  0
VERTEX
  8
0
 10
158.760426
 20
166.303064
 42
0.059631
  0
VERTEX
  8
0
 10
163.000000
 20
167.818852
 42
0.007849
  0
VERTEX
  8
0
 10
170.302368
 20
171.603746
 42
0.057090
  0
VERTEX
  8
0
 10
173.538200
 20
173.855432
 42
0.095822
  0
VERTEX
  8
0
 10
175.425308
 20
176.298329
 42
0.041740
  0
VERTEX
  8
0
 10
176.964607
 20
180.116196
 42
0.016625
  0
VERTEX
  8
0
 10
178.295242
 20
184.989106
 42
0.021111
  0
VERTEX
  8
0
 10
179.181038
 20
189.567656
 42
0.014977
  0
VERTEX
  8
0
 10
179.634041
 20
193.358435
 42
0.440523
  0
VERTEX
  8
0
 10
179.047168
 20
194.000000
 42
0.324237
  0
VERTEX
  8
0
 10
178.690682
 20
193.741670
 42
0.007430
  0
VERTEX
  8
0
 10
178.033139
 20
191.629262
 42
0.013733
  0
VERTEX
  8
0
 10
177.341445
 20
189.023325
 42
0.008510
  0
SEQEND
  0
POLYLINE
  8
0
 66
1
 70
1
  0
VERTEX
  8
0
 10
199.922392
 20
183.165737
 42
0.029845
  0
VERTEX
  8
0
 10
197.760438
 20
181.606423
 42
0.042983
  0
VERTEX
  8
0
 10
196.068475
 20
179.964360
 42
0.044715
  0
VERTEX
  8
0
 10
194.730514
 20
178.110221
 42
0.036268
  0
VERTEX
  8
0
 10
193.634480
 20
175.915737
 42
-0.002565
  0
VERTEX
  8
0
 10
192.836256
 20
174.005604
 42
-0.001938
  0
VERTEX
  8
0
 10
191.940791
 20
171.915873
 42
-0.001959
  0
VERTEX
  8
0
 10
191.084316
 20
169.959390
 42
-0.004542
  0
VERTEX
  8
0
 10
190.422708
 20
168.500000
 42
0.071626
  0
VERTEX
  8
0
 10
189.175967
 20
164.348011
 42
0.016547
  0
VERTEX
  8
0
 10
188.331510
 20
157.076321
 42
0.011293
  0
VERTEX
  8
0
 10
187.903881
 20
149.950062
 42
0.600014
  0
VERTEX
  8
0
 10
188.843221
 20
149.403106
 42
0.131876
  0
VERTEX
  8
0
 10
189.288096
 20
149.875900
 42
0.045076
  0
VERTEX
  8
0
 10
189.660196
 20
150.749527
 42
0.041069
  0
VERTEX
  8
0
 10
189.914601
 20
151.833756
 42
0.037112
  0
VERTEX
  8
0
 10
190.000000
 20
152.982727
 42
-0.035963
  0
VERTEX
  8
0
 10
190.220905
 20
156.050072
 42
-0.010410
  0
VERTEX
  8
0
 10
190.999249
 20
160.735791
 42
-0.010831
  0
VERTEX
  8
0
 10
192.046431
 20
165.720059
 42
-0.016404
  0
VERTEX
  8
0
 10
193.192099
 20
170.000000
 42
-0.064889
  0
VERTEX
  8
0
 10
194.802946
 20
173.569166
 42
-0.030261
  0
VERTEX
  8
0
 10
197.733009
 20
177.725461
 42
-0.029171
  0
VERTEX
  8
0
 10
201.008920
 20
181.364874
 42
-0.104445
  0
VERTEX
  8
0
 10
203.626705
 20
183.048173
 42
0.035242
  0
VERTEX
  8
0
 10
204.535101
 20
183.468940
 42
0.044473
  0
VERTEX
  8
0
 10
205.302845
 20
183.986461
 42
0.050898
  0
VERTEX
  8
0
 10
205.837252
 20
184.519071
 42
0.173040
  0
VERTEX
  8
0
 10
206.000000
 20
184.975249
 42
0.252865
  0
VERTEX
  8
0
 10
205.612615
 20
185.692263
 42
0.220859
  0
VERTEX
  8
0
 10
204.760554
 20
185.817001
 42
0.059988
  0
VERTEX
  8
0
 10
203.074418
 20
185.085739
 42
0.009034
  0
SEQEND
  0
POLYLINE
  8
0
 66
1
 70
1
  0
VERTEX
  8
0
 10
95.430981
 20
177.783520
 42
0.050921
  0
VERTEX
  8
0
 10
96.126738
 20
172.070959
 42
0.119754
  0
VERTEX
  8
0
 10
98.026565
 20
168.249125
 42
0.122000
  0
VERTEX
  8
0
 10
101.441732
 20
165.767958
 42
0.053917
  0
VERTEX
  8
0
 10
106.841335
 20
164.228303
 42
0.000000
  0
VERTEX
  8
0
 10
112.500000
 20
163.256712
 42
0.000000
  0
VERTEX
  8
0
 10
107.750000
 20
163.128356
 42
0.019809
  0
VERTEX
  8
0
 10
105.929428
 20
163.006875
 42
0.031757
  0
VERTEX
  8
0
 10
104.395313
 20
162.743955
 42
0.033390
  0
VERTEX
  8
0
 10
103.272559
 20
162.396669
 42
0.310448
  0
VERTEX
  8
0
 10
103.000000
 20
162.000000
 42
0.389606
  0
VERTEX
  8
0
 10
103.759766
 20
161.172962
 42
0.023252
  0
VERTEX
  8
0
 10
107.449073
 20
161.031807
 42
0.030214
  0
VERTEX
  8
0
 10
111.530355
 20
161.312483
 42
0.051635
  0
VERTEX
  8
0
 10
114.850777
 20
162.097825
 42
0.059888
  0
VERTEX
  8
0
 10
117.618569
 20
163.452144
 42
0.566463
  0
VERTEX
  8
0
 10
117.581645
 20
164.516148
 42
0.092562
  0
VERTEX
  8
0
 10
114.848538
 20
165.424053
 42
0.007114
  0
VERTEX
  8
0
 10
107.129046
 20
166.369700
 42
-0.035854
  0
VERTEX
  8
0
 10
104.902736
 20
166.773310
 42
-0.049327
  0
VERTEX
  8
0
 10
102.993429
 20
167.469382
 42
-0.048212
  0
VERTEX
  8
0
 10
101.225294
 20
168.540139
 42
-0.032240
  0
VERTEX
  8
0
 10
99.422771
 20
170.074853
 42
-0.030531
  0
VERTEX
  8
0
 10
97.639582
 20
172.027871
 42
-0.069941
  0
VERTEX
  8
0
 10
96.618446
 20
173.734186
 42
-0.062229
  0
VERTEX
  8
0
 10
96.041103
 20
175.777897
 42
-0.020207
  0
VERTEX
  8
0
 10
95.693912
 20
178.903786
 42
0.000502
  0
VERTEX
  8
0
 10
95.453881
 20
182.268834
 42
0.859028
  0
VERTEX
  8
0
 10
95.395154
 20
182.273492
 42
0.062286
  0
VERTEX
  8
0
 10
95.353614
 20
181.883520
 42
0.000288
  0
SEQEND
  0
POLYLINE
  8
0
 66
1
 70
1
  0
VERTEX
  8
0
 10
165.000000
 20
165.958505
 42
-0.016895
  0
VERTEX
  8
0
 10
162.615220
 20
165.250875
 42
-0.013399
  0
VERTEX
  8
0
 10
159.996726
 20
164.643658
 42
-0.013612
  0
VERTEX
  8
0
 10
157.535841
 20
164.211472
 42
-0.032659
  0
VERTEX
  8
0
 10
155.690983
 20
164.061093
 42
0.021600
  0
VERTEX
  8
0
 10
154.179714
 20
163.971475
 42
0.054705
  0
VERTEX
  8
0
 10
153.105339
 20
163.740542
 42
0.112586
  0
VERTEX
  8
0
 10
152.550283
 20
163.403849
 42
0.352300
  0
VERTEX
  8
0
 10
152.500000
 20
163.000000
 42
0.245728
  0
VERTEX
  8
0
 10
154.152054
 20
162.020204
 42
0.038961
  0
VERTEX
  8
0
 10
158.043905
 20
162.115487
 42
0.039602
  0
VERTEX
  8
0
 10
162.568836
 20
162.946016
 42
0.043787
  0
VERTEX
  8
0
 10
166.750000
 20
164.463764
 42
0.007996
  0
VERTEX
  8
0
 10
168.762273
 20
165.440064
 42
0.012509
  0
VERTEX
  8
0
 10
170.457812
 20
166.350388
 42
0.006634
  0
VERTEX
  8
0
 10
171.833244
 20
167.158143
 42
0.262416
  0
VERTEX
  8
0
 10
172.000000
 20
167.453995
 42
0.373199
  0
VERTEX
  8
0
 10
171.695741
 20
167.804856
 42
0.088356
  0
VERTEX
  8
0
 10
170.855934
 20
167.776105
 42
0.025470
  0
VERTEX
  8
0
 10
169.124175
 20
167.312810
 42
0.002476
  0
SEQEND
  0
POLYLINE
  8
0
 66
1
 70
1
  0
VERTEX
  8
0
 10
120.030409
 20
122.441130
 42
0.061063
  0
VERTEX
  8
0
 10
120.130393
 20
121.512071
 42
0.033579
  0
VERTEX
  8
0
 10
120.464768
 20
120.416846
 42
0.032933
  0
VERTEX
  8
0
 10
120.959882
 20
119.335244
 42
0.044844
  0
VERTEX
  8
0
 10
121.551779
 20
118.441130
 42
0.003232
  0
VERTEX
  8
0
 10
122.596243
 20
117.151779
 42
0.379200
  0
VERTEX
  8
0
 10
122.792836
 20
117.120338
 42
0.324729
  0
VERTEX
  8
0
 10
122.872293
 20
117.321306
 42
0.002852
  0
VERTEX
  8
0
 10
122.430816
 20
119.000000
 42
0.014106
  0
VERTEX
  8
0
 10
122.111146
 20
120.067031
 42
0.011040
  0
VERTEX
  8
0
 10
121.706408
 20
121.206250
 42
0.011196
  0
VERTEX
  8
0
 10
121.282292
 20
122.250364
 42
0.026664
  0
VERTEX
  8
0
 10
120.909446
 20
123.000000
 42
0.019043
  0
VERTEX
  8
0
 10
120.453725
 20
123.738421
 42
0.406995
  0
VERTEX
  8
0
 10
120.224877
 20
123.786417
 42
0.241047
  0
VERTEX
  8
0
 10
120.069973
 20
123.522895
 42
0.010895
  0
SEQEND
  0
POLYLINE
  8
0
 66
1
 70
1
  0
VERTEX
  8
0
 10
123.000000
 20
115.650340
 42
0.111109
  0
VERTEX
  8
0
 10
123.257131
 20
114.507517
 42
0.010584
  0
VERTEX
  8
0
 10
124.545153
 20
111.932386
 42
0.006559
  0
VERTEX
  8
0
 10
125.969492
 20
109.313176
 42
0.271276
  0
VERTEX
  8
0
 10
126.504241
 20
109.000000
 42
0.523723
  0
VERTEX
  8
0
 10
126.735539
 20
109.333840
 42
0.009172
  0
VERTEX
  8
0
 10
125.782040
 20
111.739729
 42
0.016479
  0
VERTEX
  8
0
 10
124.706962
 20
114.092397
 42
0.061196
  0
VERTEX
  8
0
 10
123.810068
 20
115.450000
 42
0.036988
  0
VERTEX
  8
0
 10
123.497986
 20
115.765468
 42
0.119160
  0
VERTEX
  8
0
 10
123.237958
 20
115.900725
 42
0.284366
  0
VERTEX
  8
0
 10
123.072503
 20
115.847423
 42
0.178107
  0
SEQEND
  0
POLYLINE
  8
0
 66
1
 70
1
  0
VERTEX
  8
0
 10
128.065073
 20
105.000000
 42
0.129894
  0
VERTEX
  8
0
 10
128.442872
 20
103.575915
 42
0.028248
  0
VERTEX
  8
0
 10
129.835303
 20
101.423205
 42
0.025063
  0
VERTEX
  8
0
 10
131.430899
 20
99.453047
 42
0.213127
  0
VERTEX
  8
0
 10
132.445476
 20
99.000000
 42
0.516228
  0
VERTEX
  8
0
 10
132.695346
 20
99.351707
 42
0.035346
  0
VERTEX
  8
0
 10
132.125844
 20
100.676313
 42
0.028511
  0
VERTEX
  8
0
 10
131.067260
 20
102.467728
 42
0.016481
  0
VERTEX
  8
0
 10
129.605078
 20
104.500000
 42
0.014431
  0
VERTEX
  8
0
 10
128.834935
 20
105.441727
 42
0.136463
  0
VERTEX
  8
0
 10
128.404363
 20
105.727028
 42
0.421153
  0
VERTEX
  8
0
 10
128.151668
 20
105.594418
 42
0.072949
  0
SEQEND
  0
ENDSEC
  0
EOF
